<svg width="82" height="103" viewBox="0 0 82 103" fill="none"
     xmlns="http://www.w3.org/2000/svg">
    <g filter="url(#filter0_d)">
        <rect x="12" y="20" width="58" height="3" rx="1.08404" fill="#918899"/>
        <rect x="12" y="6" width="29" height="3" rx="1.08404" fill="#918899"/>
        <rect x="44" y="28" width="26" height="3" rx="1.08404" fill="#918899"/>
        <path fill-rule="evenodd" clip-rule="evenodd"
              d="M29.0405 25.2761C28.4418 25.2761 27.9565 25.7615 27.9565 26.3602L27.9565 37.2006H12.084C11.4853 37.2006 11 37.686 11 38.2847V49.1251H27.9565L27.9565 49.125H44.913V26.3602C44.913 25.7615 44.4276 25.2761 43.8289 25.2761H29.0405ZM70.9999 49.1251H11V85.9825H70.9999V49.1251ZM54.0435 38.2845C54.0435 37.6858 54.5288 37.2004 55.1275 37.2004H69.9159C70.5146 37.2004 71 37.6858 71 38.2845V49.1249H54.0435V38.2845Z"
              fill="#F3B773"/>
        <rect x="24" y="55.3704" width="5.54774" height="5.4202" rx="0.977012"
              fill="white"/>
        <rect x="24" y="66.1174" width="5.54774" height="5.4202" rx="0.977012"
              fill="white"/>
        <rect x="38.4238" y="66.1174" width="5.54774" height="5.4202"
              rx="0.977012" fill="white"/>
        <rect x="53.1914" y="66.1174" width="5.54774" height="5.4202"
              rx="0.977012" fill="white"/>
        <rect x="38.4238" y="55.3704" width="5.54774" height="5.4202"
              rx="0.977012" fill="white"/>
        <rect x="53.1914" y="55.3704" width="5.54774" height="5.4202"
              rx="0.977012" fill="white"/>
        <rect x="34.5625" y="88.9993" width="12.7734" height="11.7666"
              rx="3.45369" transform="rotate(-90 34.5625 88.9993)"
              fill="#918899"/>
        <rect x="10" y="85.0918" width="62" height="3.90805" rx="1.95402"
              fill="#918899"/>
    </g>
    <rect x="17" y="36.9163" width="35.3333" height="2" rx="1"
          transform="rotate(-90 17 36.9163)" fill="#918899"/>
    <rect x="48" y="49" width="35.3333" height="2" rx="1"
          transform="rotate(-90 48 49)" fill="#918899"/>
    <rect x="33" y="25" width="25" height="2" rx="1"
          transform="rotate(-90 33 25)" fill="#918899"/>
    <rect x="63" y="37.1111" width="35.3333" height="2" rx="1"
          transform="rotate(-90 63 37.1111)" fill="#918899"/>
    <defs>
        <filter id="filter0_d" x="0" y="0" width="82" height="103"
                filterUnits="userSpaceOnUse"
                color-interpolation-filters="sRGB">
            <feFlood flood-opacity="0" result="BackgroundImageFix"/>
            <feColorMatrix in="SourceAlpha" type="matrix"
                           values="0 0 0 0 0 0 0 0 0 0 0 0 0 0 0 0 0 0 127 0"/>
            <feOffset dy="4"/>
            <feGaussianBlur stdDeviation="5"/>
            <feColorMatrix type="matrix"
                           values="0 0 0 0 0 0 0 0 0 0 0 0 0 0 0 0 0 0 0.08 0"/>
            <feBlend mode="normal" in2="BackgroundImageFix"
                     result="effect1_dropShadow"/>
            <feBlend mode="normal" in="SourceGraphic" in2="effect1_dropShadow"
                     result="shape"/>
        </filter>
    </defs>
</svg>
