<svg width="24" height="25" viewBox="0 0 24 25" fill="none" xmlns="http://www.w3.org/2000/svg">
<path d="M18.1892 10.0174L14.222 9.44083L12.4486 5.84551C12.4002 5.74708 12.3205 5.66739 12.222 5.61895C11.9752 5.49708 11.6752 5.59864 11.5517 5.84551L9.77828 9.44083L5.81109 10.0174C5.70171 10.033 5.60171 10.0846 5.52515 10.1627C5.43259 10.2578 5.38159 10.3858 5.38334 10.5185C5.3851 10.6513 5.43948 10.7779 5.53453 10.8705L8.40484 13.669L7.72671 17.6205C7.71081 17.7124 7.72098 17.807 7.75608 17.8934C7.79117 17.9798 7.84978 18.0547 7.92526 18.1095C8.00074 18.1644 8.09007 18.1969 8.18312 18.2036C8.27617 18.2102 8.36922 18.1906 8.45171 18.1471L12.0002 16.2815L15.5486 18.1471C15.6455 18.1986 15.758 18.2158 15.8658 18.1971C16.1377 18.1502 16.3205 17.8924 16.2736 17.6205L15.5955 13.669L18.4658 10.8705C18.5439 10.794 18.5955 10.694 18.6111 10.5846C18.6533 10.3111 18.4627 10.058 18.1892 10.0174Z" fill="#CFABFA"/>
<path d="M20.4177 9.55277L15.0217 8.76855L12.6095 3.87831C12.5436 3.74441 12.4352 3.63602 12.3013 3.57014C11.9656 3.40437 11.5575 3.54251 11.3896 3.87831L8.97743 8.76855L3.58138 9.55277C3.43261 9.57402 3.29659 9.64416 3.19245 9.75042C3.06656 9.87982 2.99718 10.0539 2.99957 10.2344C3.00196 10.415 3.07592 10.5871 3.2052 10.7132L7.10932 14.5195L6.18695 19.8943C6.16532 20.0193 6.17916 20.1479 6.22689 20.2655C6.27462 20.3831 6.35434 20.4849 6.45701 20.5595C6.55967 20.634 6.68118 20.6783 6.80774 20.6874C6.93431 20.6964 7.06087 20.6698 7.17308 20.6105L11.9996 18.073L16.826 20.6105C16.9578 20.6807 17.1108 20.704 17.2575 20.6785C17.6273 20.6148 17.8759 20.2641 17.8122 19.8943L16.8898 14.5195L20.7939 10.7132C20.9002 10.609 20.9703 10.473 20.9916 10.3242C21.0489 9.95232 20.7897 9.60803 20.4177 9.55277ZM15.247 13.984L16.0142 18.4534L11.9996 16.3451L7.98493 18.4555L8.75215 13.9861L5.50474 10.8194L9.9933 10.167L11.9996 6.10133L14.0058 10.167L18.4944 10.8194L15.247 13.984Z" fill="#652DD0" stroke="#652DD0" stroke-width="0.25"/>
</svg>
