<svg width="20" height="21" viewBox="0 0 20 21" fill="none" xmlns="http://www.w3.org/2000/svg">
<path d="M4.18889 18.5081H16.0111C16.459 18.5081 16.8886 18.3325 17.2053 18.0199C17.5221 17.7074 17.7 17.2834 17.7 16.8414V7.67475C17.7 7.45373 17.611 7.24177 17.4527 7.08549C17.2943 6.92921 17.0795 6.84141 16.8556 6.84141H14.3222V6.19391C14.3222 4.01975 12.7152 2.07308 10.5222 1.86225C9.93523 1.80467 9.34252 1.869 8.78223 2.05108C8.22194 2.23316 7.70648 2.52897 7.26901 2.91948C6.83155 3.30998 6.48176 3.78653 6.24215 4.31847C6.00254 4.85041 5.87842 5.42595 5.87778 6.00808V6.84141H3.34444C3.12048 6.84141 2.9057 6.92921 2.74733 7.08549C2.58897 7.24177 2.5 7.45373 2.5 7.67475V16.8414C2.5 17.2834 2.67794 17.7074 2.99466 18.0199C3.31139 18.3325 3.74097 18.5081 4.18889 18.5081ZM14.3222 8.50808V10.1747H12.6333V8.50808H14.3222ZM7.56667 6.00808C7.56667 4.62975 8.70329 3.50808 10.1 3.50808C11.4967 3.50808 12.6333 4.62975 12.6333 6.00808V6.84141H7.56667V6.00808ZM5.87778 8.50808H7.56667V10.1747H5.87778V8.50808Z" fill="#64B5F6"/>
</svg>
