<svg width="185" height="164" viewBox="0 0 185 164" fill="none" xmlns="http://www.w3.org/2000/svg">
<g clip-path="url(#clip0)">
<path d="M115.69 19.4601L133.59 29.3601L142.18 18.7201L129.13 11.3101L115.69 19.4601Z" fill="#CC8769"/>
<path d="M112.93 24.34C114.547 24.3438 116.13 24.8011 117.5 25.66L131.27 34.25C132.242 34.8543 133.085 35.6447 133.75 36.5759C134.415 37.5071 134.89 38.5606 135.146 39.6759C135.403 40.7912 135.436 41.9462 135.245 43.0744C135.053 44.2027 134.64 45.2819 134.03 46.25L127.85 56.14L99.38 38.32L105.56 28.42C106.338 27.1676 107.424 26.1351 108.714 25.421C110.004 24.7068 111.455 24.3347 112.93 24.34ZM112.93 17.73C110.33 17.7237 107.772 18.3807 105.497 19.6388C103.223 20.897 101.306 22.7147 99.93 24.92L90.27 40.43L130 65.2L139.68 49.7C140.743 47.9984 141.461 46.1038 141.792 44.1247C142.123 42.1456 142.06 40.1206 141.608 38.1657C141.155 36.2107 140.322 34.3641 139.156 32.7313C137.99 31.0986 136.513 29.7117 134.81 28.65L121 20.05C118.581 18.5338 115.785 17.7297 112.93 17.73Z" fill="#4E45B2"/>
<path d="M147.06 0L117.93 3.11C115.395 3.38771 113.031 4.52388 111.23 6.33L91.23 26.53L92.23 27.22C93.4442 28.0892 94.8831 28.5902 96.3746 28.6629C97.8661 28.7356 99.347 28.377 100.64 27.63L107 23.91C107 23.91 117.79 26.56 123.8 18.17L125.69 19.17C128.905 20.8034 132.424 21.7533 136.024 21.9598C139.625 22.1663 143.229 21.625 146.61 20.37L147.06 0Z" fill="#E5A17F"/>
<path d="M114.092 24.7965C115.073 23.4269 114.757 21.5217 113.388 20.5411C112.018 19.5605 110.113 19.8759 109.132 21.2456L107.281 23.8312C106.301 25.2009 106.616 27.1061 107.986 28.0867C109.355 29.0672 111.261 28.7518 112.241 27.3822L114.092 24.7965Z" fill="#FFBE9E"/>
<path d="M122.986 22.3386C123.963 20.9742 123.649 19.0761 122.284 18.0991C120.92 17.1221 119.022 17.4362 118.045 18.8006L114.072 24.3491C113.095 25.7135 113.409 27.6116 114.773 28.5886C116.138 29.5656 118.036 29.2515 119.013 27.8871L122.986 22.3386Z" fill="#FFBE9E"/>
<path d="M128.874 25.6666C129.854 24.297 129.539 22.3918 128.169 21.4112C126.8 20.4306 124.894 20.7461 123.914 22.1157L120.182 27.3277C119.202 28.6973 119.517 30.6025 120.887 31.5831C122.257 32.5637 124.162 32.2483 125.142 30.8786L128.874 25.6666Z" fill="#FFBE9E"/>
<path d="M133.509 29.9235C134.489 28.5538 134.174 26.6486 132.804 25.6681C131.435 24.6875 129.529 25.0029 128.549 26.3725L125.702 30.3486C124.722 31.7182 125.037 33.6235 126.407 34.604C127.776 35.5846 129.682 35.2692 130.662 33.8995L133.509 29.9235Z" fill="#FFBE9E"/>
<path d="M66.31 61.0501L87.89 30.1401L135.38 56.0001C136.135 56.4297 136.791 57.0126 137.307 57.7113C137.823 58.4099 138.187 59.2089 138.375 60.0567C138.564 60.9045 138.573 61.7824 138.401 62.6338C138.23 63.4852 137.882 64.2913 137.38 65.0001L120 89.6601C119.005 91.0453 117.515 91.9938 115.839 92.3085C114.163 92.6233 112.43 92.28 111 91.3501L66.31 61.0501Z" fill="#6652D0"/>
<path d="M41.13 127.12C41.56 127.12 42.13 127.12 42.82 127.12C43.51 127.12 44.26 127.03 45.11 126.93C49.2913 126.513 53.3059 125.074 56.8 122.74C63.8 117.74 65.63 108.89 65.63 108.89C65.63 108.89 56.06 108.26 49.03 113.29C47.5491 114.36 46.229 115.636 45.11 117.08C43.4054 119.214 42.0549 121.608 41.11 124.17V127.17L41.13 127.12Z" fill="#1D6D60"/>
<path d="M40.9 133.17C41.04 133.72 41.6 135.97 40.73 136.08C35.19 136.77 29.25 136.23 24.34 133.62C16.16 129.28 12.77 120.08 12.77 120.08C12.77 120.08 22.64 117.93 30.84 122.27C34.6349 124.425 37.8077 127.526 40.05 131.27C40.4398 131.85 40.7273 132.493 40.9 133.17Z" fill="#1D6D60"/>
<path d="M63.78 165.15H17.92L15.93 145.22H65.78L63.78 165.15Z" fill="#CA7433"/>
<path d="M39.47 130.41V129.14V116.24H42.23V124.68V128.25V129.67V130.87V142.39H39.47V131V130.41Z" fill="#81B7A9"/>
<path d="M69.76 140.23H11.94V146.21H69.76V140.23Z" fill="#EB8C47"/>
<path d="M67.79 60.7002C67.6018 60.7082 67.4161 60.6556 67.26 60.5502C66.59 60.0702 66.38 58.0602 67.42 54.6602C68.8287 50.4508 70.8905 46.4891 73.53 42.9202C79.17 35.0802 84.76 30.8502 87.15 30.8502C87.3653 30.8364 87.5792 30.8925 87.76 31.0102C88.35 31.4302 88.6 33.1702 87.37 36.6902C85.7821 40.8277 83.6392 44.7301 81 48.2902C74.87 56.8102 69.85 60.7002 67.79 60.7002Z" fill="#282C78"/>
<path d="M87.15 31.8502C87.65 33.0302 86.39 39.0602 80.15 47.7002C74.3 55.8302 69.49 59.5602 67.79 59.7002C67.11 58.3802 68.42 51.7002 74.3 43.5102C80.02 35.5102 85.3 31.8602 87.11 31.8602L87.15 31.8502ZM87.11 29.8602C84 29.8502 78 34.9302 72.72 42.3302C66.6 50.8402 64.17 59.5602 66.72 61.3302C67.0458 61.5549 67.4344 61.6704 67.83 61.6602C70.83 61.6602 76.49 56.2902 81.83 48.8302C87.95 40.3202 90.83 31.9602 88.36 30.1602C88.0126 29.9158 87.5944 29.7928 87.17 29.8102L87.11 29.8602Z" fill="#AE7FF0"/>
<path d="M76.37 87.3301C76.37 87.3301 33.42 92.3301 31.77 136.89" stroke="#3EBCDB" stroke-width="2" stroke-miterlimit="10" stroke-dasharray="4 4"/>
<path d="M76.37 89C76.37 89 45 98.9 51.59 140.2" stroke="#3EBCDB" stroke-width="2" stroke-miterlimit="10" stroke-dasharray="4 4"/>
<path d="M99.78 87.75L69.53 94.75L66.11 87.9L95.41 73.1C96.7325 72.5482 98.1833 72.3784 99.5975 72.61C101.012 72.8415 102.333 73.4652 103.41 74.41C104.498 75.3577 105.297 76.5928 105.716 77.9737C106.134 79.3546 106.155 80.8255 105.776 82.2178C105.398 83.6101 104.634 84.8675 103.574 85.846C102.513 86.8244 101.198 87.4843 99.78 87.75Z" fill="#4E45B2"/>
<path d="M146.64 20.34L184.5 21.65V0H147.06L146.64 20.34Z" fill="#E5A17F"/>
</g>
<defs>
<clipPath id="clip0">
<rect width="185" height="165" fill="white"/>
</clipPath>
</defs>
</svg>
