<svg width="17" height="17" viewBox="0 0 17 17" fill="none" xmlns="http://www.w3.org/2000/svg">
    <path
        d="M0.684408 16.163V5.71056H3.92943V16.163H0.684408ZM2.30448 4.283C1.2651 4.283 0.425781 3.43722 0.425781 2.40078C0.425781 1.36433 1.2651 0.518555 2.30448 0.518555C3.33899 0.518555 4.18318 1.36433 4.18318 2.40078C4.18318 3.44211 3.34387 4.283 2.30448 4.283ZM16.0702 16.163H12.8301V11.0786C12.8301 9.86611 12.8057 8.30656 11.1466 8.30656C9.45818 8.30656 9.19955 9.62656 9.19955 10.9906V16.163H5.95941V5.71056H9.0678V7.13811H9.11172C9.54601 6.31678 10.6049 5.45145 12.1811 5.45145C15.4603 5.45145 16.0702 7.61722 16.0702 10.4332V16.163Z"
        fill="white"/>
</svg>
