<svg width="18" height="16" viewBox="0 0 18 16" fill="none" xmlns="http://www.w3.org/2000/svg">
    <path
        d="M17.5535 2.3112C16.9372 2.59565 16.2735 2.83268 15.5624 2.9275C16.2735 2.45343 16.8424 1.74232 17.1268 0.841576C16.4631 1.26824 15.7046 1.60009 14.8987 1.74231C14.2824 0.983796 13.3342 0.557129 12.3387 0.557129C10.395 0.557129 8.83052 2.2638 8.83052 4.34972C8.83052 4.63417 8.87793 4.91861 8.92533 5.20306C6.03348 5.06083 3.42608 3.5438 1.71941 1.26824C1.43496 1.83713 1.24534 2.45343 1.24534 3.16454C1.24534 4.49194 1.86163 5.62972 2.80978 6.29343C2.24089 6.29343 1.672 6.1038 1.24534 5.81935V5.86676C1.24534 7.66824 2.43052 9.23269 4.04237 9.56454C3.75793 9.65935 3.42608 9.70676 3.09422 9.70676C2.85719 9.70676 2.66756 9.70676 2.43052 9.65935C2.85719 11.1764 4.18459 12.2668 5.70163 12.2668C4.51645 13.2623 2.99941 13.8786 1.34015 13.8786C1.0557 13.8786 0.771261 13.8786 0.486816 13.8312C2.05126 14.9216 3.85274 15.5379 5.84385 15.5379C12.2913 15.5379 15.7994 9.80157 15.7994 4.8238C15.7994 4.68157 15.7994 4.49194 15.7994 4.34972C16.5105 3.73343 17.0794 3.06972 17.5535 2.3112Z"
        fill="white"/>
</svg>
