<svg width="348" height="268" viewBox="0 0 348 268" fill="none" xmlns="http://www.w3.org/2000/svg">
<path d="M70.1465 112.28C70.1465 112.28 72.7174 180.64 73.1379 182.008C73.5584 183.377 67.9348 210.064 67.9348 210.064L67.9597 233.781C93.5109 223.913 173.697 192.062 202.157 181.578L243.215 154.027C261.565 147.424 299.991 136.37 319.103 131.585L330.475 120.609L333.321 76.392L347.236 35.3858C295.657 44.4618 212.363 69.4349 162.587 86.8271L87.2237 111.358L70.1465 112.28Z" fill="#E6E7E8"/>
<path d="M131.32 224.16L116.62 184.57L116.62 157.83L114.42 157.83L114.42 221.75L116.62 221.75L116.62 190.32L129.44 224.85L131.32 224.16Z" fill="#414042"/>
<path d="M205.32 190.16L190.62 150.57L190.62 123.83L188.42 123.83L188.42 187.75L190.62 187.75L190.62 156.32L203.44 190.85L205.32 190.16Z" fill="#414042"/>
<path d="M284.32 149.16L269.62 109.57L269.62 82.8301L267.42 82.8301L267.42 146.75L269.62 146.75L269.62 115.32L282.44 149.85L284.32 149.16Z" fill="#414042"/>
<path d="M142.55 113.113C142.39 113.783 140.98 144.313 140.98 144.313L137.76 136.563L134 147.213L141.76 164.393L141.76 184.143L138.34 189.083L142.55 197.003L141.06 233.673C141.06 233.673 147.67 235.983 153.78 234.333C159.89 232.683 163.85 233.503 163.85 233.503L155.93 177.023L153.78 144.493L161.34 136.733L158.57 125.173L151.63 128.803L151.47 114.113L142.55 113.113Z" fill="#69574E"/>
<path d="M160.89 136.983C162.007 136.769 162.404 133.944 161.777 130.673C161.149 127.402 159.735 124.925 158.618 125.139C157.5 125.354 157.103 128.179 157.731 131.449C158.358 134.72 159.773 137.198 160.89 136.983Z" fill="#F9CD90"/>
<path d="M151.555 114.736C151.764 113.567 149.906 112.257 147.405 111.81C144.905 111.363 142.708 111.948 142.499 113.116C142.29 114.285 144.148 115.595 146.648 116.043C149.149 116.49 151.346 115.905 151.555 114.736Z" fill="#F9CD90"/>
<path d="M225.94 106.43L224.05 128.06L220 122.12L218.35 131.7L223.35 139.95L218.35 214.27C218.35 214.27 224.79 216.74 227.76 214.27L230.24 157.39L235.85 152.54L233.85 142.6L230.22 144.74L232.53 107.74L225.94 106.43Z" fill="#69574E"/>
<path d="M232.67 107.59C232.776 106.981 231.358 106.225 229.503 105.902C227.647 105.579 226.057 105.812 225.951 106.421C225.845 107.03 227.263 107.786 229.119 108.109C230.974 108.432 232.564 108.199 232.67 107.59Z" fill="#F9CD90"/>
<path d="M235.782 152.566C236.493 152.43 236.64 150.086 236.112 147.331C235.583 144.575 234.578 142.452 233.868 142.588C233.157 142.725 233.01 145.069 233.538 147.824C234.067 150.58 235.072 152.703 235.782 152.566Z" fill="#F9CD90"/>
<g clip-path="url(#clip0)">
<path d="M315.68 107.4L309.4 119.57L309.4 132.78L312.54 126.01L315.68 132.78L309.4 143.02L310.39 174.23L295.53 176.38L298.51 115.11L293.88 111.31L296.03 103.06L299.83 106.19L301.97 89.1799L307.75 89.1799L308.58 105.7L312.05 99.7499L315.68 107.4Z" fill="#69574E"/>
<path d="M304.85 89.92C306.469 89.92 307.78 89.6513 307.78 89.32C307.78 88.9886 306.469 88.72 304.85 88.72C303.232 88.72 301.92 88.9886 301.92 89.32C301.92 89.6513 303.232 89.92 304.85 89.92Z" fill="#F9CD90"/>
<path d="M315.716 107.296C316.268 107.017 315.868 105.117 314.823 103.052C313.777 100.987 312.483 99.5402 311.931 99.8196C311.379 100.099 311.779 101.999 312.824 104.064C313.869 106.128 315.164 107.576 315.716 107.296Z" fill="#F9CD90"/>
</g>
<path d="M129.408 163.26C127.044 173.403 117.993 185.816 107.075 189.683C95.2557 193.867 60.6527 201.208 43.5456 195.959C26.4385 190.71 2.17749 183.394 3.00175 169.993C3.42165 157.313 11.0576 145.332 13.997 132.97C14.2548 131.631 14.6822 130.318 15.2722 129.052C17.7139 124.348 24.059 120.912 27.5893 116.677C32.2549 111.136 36.9205 105.038 44.3387 101.69C67.0601 94.197 102.798 100.499 114.773 118.363C117.122 122.167 118.226 126.643 120.994 130.32C123.436 133.604 125.66 135.543 126.531 139.575L128.506 148.146C129.572 151.887 130.094 155.717 130.061 159.558C129.943 160.802 129.725 162.039 129.408 163.26V163.26Z" fill="#81B7A9"/>
<path d="M94.1359 161.193C79.9214 167.343 67.4333 155.602 67.4333 155.602C61.2125 163.564 48.4288 161.612 48.4288 161.612C42.5968 173.327 26.3451 172.414 26.3451 172.414C16.8273 172.693 9.23798 164.807 5.07006 159.089C3.96001 162.659 3.30338 166.313 3.11052 169.993C2.31737 183.394 26.5784 190.71 43.6855 195.959C60.7926 201.208 95.3956 193.867 107.215 189.683C112.549 187.794 117.433 183.825 121.305 179.122C100.497 178.754 94.1359 161.193 94.1359 161.193Z" fill="#68A394"/>
<path d="M74.2607 149.896L67.589 167.064L62.3324 146.549L51.5394 149.896L56.9359 186.742L44.4944 260.711C44.4944 261.814 50.7151 262.702 58.3356 262.702C65.956 262.702 72.1768 261.814 72.1768 260.711L76.4069 188.897L88.6463 152.407L74.2607 149.896Z" fill="#726658"/>
<path d="M128.615 148.146C127.961 145.294 127.293 142.428 126.64 139.575C125.706 135.543 123.529 133.604 121.103 130.32C118.366 126.643 117.262 122.192 114.882 118.363C102.923 100.499 67.1846 94.197 44.4788 101.69C37.1072 105.038 32.3483 111.136 27.7294 116.626C24.1835 120.861 17.8539 124.297 15.4122 129.001C14.8222 130.268 14.3949 131.581 14.137 132.919C12.053 141.667 7.63628 150.239 5.07021 158.974C9.33144 164.693 16.8275 172.63 26.3452 172.414C26.3452 172.414 37.3249 173.074 44.4788 166.797C47.4995 164.06 51.5458 162.215 55.9872 161.548C57.0447 161.405 58.0853 161.189 59.0976 160.902C65.2049 159.228 71.8573 159.468 77.7599 161.574C80.4239 162.53 83.3098 163.005 86.2201 162.968C88.5962 162.888 90.957 163.314 93.0703 164.203C95.1835 165.092 96.9765 166.415 98.2729 168.04C102.207 173.036 109.408 178.969 121.414 179.147C125.355 174.327 128.116 168.933 129.548 163.26C129.842 162.038 130.029 160.801 130.108 159.558C130.169 155.719 129.668 151.888 128.615 148.146V148.146Z" fill="#81B7A9"/>
<defs>
<clipPath id="clip0">
<rect width="28.68" height="95.85" fill="white" transform="translate(287 84)"/>
</clipPath>
</defs>
</svg>
