<svg width="16" height="16" viewBox="0 0 16 16" fill="none" xmlns="http://www.w3.org/2000/svg">
    <path fill-rule="evenodd" clip-rule="evenodd"
          d="M14.3921 0C14.826 0 15.1778 0.351771 15.1778 0.785702V6.28561C15.1778 8.8892 13.0672 10.9998 10.4636 10.9998H3.5046L7.16353 14.6587C7.47037 14.9656 7.47037 15.463 7.16353 15.7699C6.85669 16.0767 6.35921 16.0767 6.05237 15.7699L1.05215 10.7697C0.745312 10.4629 0.745312 9.96538 1.05215 9.65855L6.05237 4.65837C6.35921 4.35154 6.85669 4.35154 7.16353 4.65837C7.47037 4.96521 7.47037 5.46269 7.16353 5.76952L3.5046 9.42842H10.4636C12.1993 9.42842 13.6064 8.02134 13.6064 6.28561V0.785702C13.6064 0.351771 13.9582 0 14.3921 0Z"
          fill="#4D20B2"/>
</svg>
