<svg fill="none" height="48" viewBox="0 0 48 48" width="48" xmlns="http://www.w3.org/2000/svg"><rect fill="#90c0f0" height="48" rx="12" width="48"/><path d="m24 10c-3.713 0-7.274 1.475-9.8995 4.1005s-4.1005 6.1865-4.1005 9.8995 1.475 7.274 4.1005 9.8995 6.1865 4.1005 9.8995 4.1005 7.274-1.475 9.8995-4.1005 4.1005-6.1865 4.1005-9.8995-1.475-7.274-4.1005-9.8995-6.1865-4.1005-9.8995-4.1005z" fill="#fff"/><path d="m24 12c-3.1826 0-6.2348 1.2643-8.4853 3.5147-2.2504 2.2505-3.5147 5.3027-3.5147 8.4853s1.2643 6.2348 3.5147 8.4853c2.2505 2.2504 5.3027 3.5147 8.4853 3.5147s6.2348-1.2643 8.4853-3.5147c2.2504-2.2505 3.5147-5.3027 3.5147-8.4853s-1.2643-6.2348-3.5147-8.4853c-2.2505-2.2504-5.3027-3.5147-8.4853-3.5147z" fill="#039be5"/><path d="m25.3809 27.2144h3.1018l.487-3.1426h-3.5894v-1.7176c0-1.3056.4277-2.4632 1.6521-2.4632h1.9676v-2.7425c-.3457-.0466-1.0768-.1485-2.4584-.1485-2.8848 0-4.576 1.5194-4.576 4.9811v2.0907h-2.9656v3.1426h2.9656v8.6377c.5873.0881 1.1821.1479 1.7928.1479.552 0 1.0907-.0503 1.6225-.1221z" fill="#fff"/></svg>