<svg width="14" height="18" viewBox="0 0 14 18" fill="none" xmlns="http://www.w3.org/2000/svg">
<path fill-rule="evenodd" clip-rule="evenodd" d="M4.11011 0.807617C1.90097 0.807617 0.110107 2.59848 0.110107 4.80762V13.2308C0.110107 14.4299 0.813599 15.4647 1.83037 15.9449L1.24532 16.5132C0.90858 16.8402 0.900744 17.3784 1.22782 17.7151C1.5549 18.0519 2.09303 18.0597 2.42978 17.7326L3.976 16.2308H10.0243L11.5707 17.7328C11.9075 18.0599 12.4456 18.052 12.7727 17.7153C13.0998 17.3785 13.0919 16.8404 12.7552 16.5133L12.1698 15.9448C13.1864 15.4645 13.8898 14.4298 13.8898 13.2308V4.80762C13.8898 2.59848 12.0989 0.807617 9.88977 0.807617H4.11011ZM4.40679 3.3252C3.4679 3.3252 2.70679 4.08631 2.70679 5.0252V8.54694C2.70679 9.48582 3.4679 10.2469 4.40679 10.2469H9.59314C10.532 10.2469 11.2931 9.48582 11.2931 8.54694V5.0252C11.2931 4.08631 10.532 3.3252 9.59314 3.3252H4.40679ZM4.92027 12.7239C4.92027 13.3349 4.42498 13.8302 3.81402 13.8302C3.20305 13.8302 2.70776 13.3349 2.70776 12.7239C2.70776 12.113 3.20305 11.6177 3.81402 11.6177C4.42498 11.6177 4.92027 12.113 4.92027 12.7239ZM11.2923 12.7239C11.2923 13.3349 10.7971 13.8302 10.1861 13.8302C9.57512 13.8302 9.07983 13.3349 9.07983 12.7239C9.07983 12.113 9.57512 11.6177 10.1861 11.6177C10.7971 11.6177 11.2923 12.113 11.2923 12.7239Z" fill="#FA584E"/>
</svg>
