<svg width="16" height="17" viewBox="0 0 16 17" fill="none" xmlns="http://www.w3.org/2000/svg">
<path d="M7.36415 0.81249C7.5483 0.676747 7.77108 0.603516 7.99986 0.603516C8.22864 0.603516 8.45142 0.676747 8.63557 0.81249L15.4191 5.81606C16.222 6.40892 15.8463 7.65749 14.8906 7.74463H1.10915C0.153432 7.65749 -0.221569 6.40892 0.580574 5.81606L7.36486 0.81249H7.36415ZM7.99986 5.60249C8.28402 5.60249 8.55654 5.48961 8.75747 5.28868C8.95841 5.08774 9.07129 4.81522 9.07129 4.53106C9.07129 4.2469 8.95841 3.97438 8.75747 3.77345C8.55654 3.57252 8.28402 3.45963 7.99986 3.45963C7.7157 3.45963 7.44318 3.57252 7.24225 3.77345C7.04131 3.97438 6.92843 4.2469 6.92843 4.53106C6.92843 4.81522 7.04131 5.08774 7.24225 5.28868C7.44318 5.48961 7.7157 5.60249 7.99986 5.60249ZM11.9284 8.45963H13.7134V12.7453H11.9277V8.45963H11.9284ZM10.4999 12.7453V8.45963H8.71415V12.7453H10.4999ZM7.28557 12.7461V8.46035H5.49986V12.7461H7.28557ZM4.072 12.7461V8.46035H2.28629V12.7461H4.072ZM2.46486 13.4603C1.84918 13.4603 1.25871 13.7049 0.823362 14.1403C0.38801 14.5756 0.143431 15.1661 0.143431 15.7818V16.1389C0.144146 16.4353 0.384146 16.6753 0.679146 16.6753H15.3199C15.4619 16.6753 15.5982 16.6189 15.6987 16.5184C15.7991 16.418 15.8556 16.2817 15.8556 16.1396V15.7825C15.8556 15.1668 15.611 14.5763 15.1756 14.141C14.7403 13.7056 14.1498 13.4611 13.5341 13.4611H2.46557L2.46486 13.4603Z" fill="#F06292"/>
</svg>
