<svg width="18" height="19" viewBox="0 0 18 19" fill="none" xmlns="http://www.w3.org/2000/svg">
<path d="M2.5 0.390625C0.5 0.390625 0 0.890625 0 2.89062V12.4201C0.531285 12.3904 1.8305 12.3091 3.32663 12.0613C3.81801 11.98 4.223 11.9281 4.57808 11.8826C5.75112 11.7323 6.37937 11.6518 7.77786 10.8087C9.02645 9.90734 8.97202 8.66784 8.91592 7.39062C8.87091 6.36561 8.82483 5.31632 9.45032 4.39801C10.4591 2.91702 12.1717 2.22567 13.9713 1.9815C15.4467 1.78131 17.3237 1.8891 17.9518 1.93441C17.7531 1.05075 16.9636 0.390625 16.02 0.390625H2.5Z" fill="#81C784"/>
<path d="M18 4.32404C17.4228 4.28012 15.6245 4.21404 14.5021 4.96407C13.7381 5.47464 13.9955 6.2046 14.2956 7.0555C14.3384 7.17714 14.3822 7.30126 14.424 7.42756C15.6235 11.054 15.0565 13.2501 11.9445 16.0367C10.7745 17.0845 9.67774 17.8429 8.63754 18.3906H16.02C17.1135 18.3906 18 17.5041 18 16.4106V4.32404Z" fill="#81C784"/>
</svg>
