<svg width="20" height="21" viewBox="0 0 20 21" fill="none" xmlns="http://www.w3.org/2000/svg">
<path d="M10.0002 1.84131C6.66683 1.84131 3.3335 2.25798 3.3335 5.17464V13.0913C3.3335 13.883 3.65016 14.5996 4.16683 15.1246V16.4246C4.16683 17.1163 4.72516 17.6746 5.41683 17.6746C6.1085 17.6746 6.66683 17.1163 6.66683 16.4246V16.008H13.3335V16.4246C13.3335 17.108 13.8918 17.6746 14.5835 17.6746C15.2668 17.6746 15.8335 17.1163 15.8335 16.4246V15.1246C16.3502 14.5996 16.6668 13.883 16.6668 13.0913V5.17464C16.6668 2.25798 13.6835 1.84131 10.0002 1.84131ZM7.0835 13.508C6.39183 13.508 5.8335 12.9496 5.8335 12.258C5.8335 11.5663 6.39183 11.008 7.0835 11.008C7.77516 11.008 8.3335 11.5663 8.3335 12.258C8.3335 12.9496 7.77516 13.508 7.0835 13.508ZM12.9168 13.508C12.2252 13.508 11.6668 12.9496 11.6668 12.258C11.6668 11.5663 12.2252 11.008 12.9168 11.008C13.6085 11.008 14.1668 11.5663 14.1668 12.258C14.1668 12.9496 13.6085 13.508 12.9168 13.508ZM15.0002 8.50798H5.00016V6.00798H15.0002V8.50798Z" fill="#FF8A65"/>
</svg>
