<svg fill="none" height="48" viewBox="0 0 48 48" width="48" xmlns="http://www.w3.org/2000/svg" xmlns:xlink="http://www.w3.org/1999/xlink"><clipPath id="a"><path d="m8 8h32v32h-32z"/></clipPath><rect fill="#cfabfa" height="48" rx="12" width="48"/><g clip-path="url(#a)"><path d="m24 8c-4.2435 0-8.3131 1.68571-11.3137 4.6863-3.00059 3.0006-4.6863 7.0702-4.6863 11.3137s1.68571 8.3131 4.6863 11.3137c3.0006 3.0006 7.0702 4.6863 11.3137 4.6863s8.3131-1.6857 11.3137-4.6863 4.6863-7.0702 4.6863-11.3137-1.6857-8.3131-4.6863-11.3137c-3.0006-3.00059-7.0702-4.6863-11.3137-4.6863z" fill="#8f5de2"/><path d="m24 33c-1.23 0-2.3925-.2364-3.4875-.7092-1.095-.4722-2.0511-1.1172-2.8683-1.935-.8178-.8172-1.4628-1.7733-1.935-2.8683-.4728-1.095-.7092-2.2575-.7092-3.4875 0-1.245.2364-2.4111.7092-3.4983.4722-1.0878 1.1172-2.0403 1.935-2.8575.8172-.8178 1.7733-1.4631 2.8683-1.9359 1.095-.4722 2.2575-.7083 3.4875-.7083 1.245 0 2.4111.2361 3.4983.7083 1.0878.4728 2.0403 1.1181 2.8575 1.9359.8178.8172 1.4628 1.7697 1.935 2.8575.4728 1.0872.7092 2.2533.7092 3.4983 0 1.23-.2364 2.3925-.7092 3.4875-.4722 1.095-1.1172 2.0511-1.935 2.8683-.8172.8178-1.7697 1.4628-2.8575 1.935-1.0872.4728-2.2533.7092-3.4983.7092zm0-1.845c.39-.54.7275-1.1025 1.0125-1.6875s.5175-1.2075.6975-1.8675h-3.42c.18.66.4125 1.2825.6975 1.8675s.6225 1.1475 1.0125 1.6875zm-2.34-.36c-.27-.495-.5061-1.0089-.7083-1.5417-.2028-.5322-.3717-1.0833-.5067-1.6533h-2.655c.435.75.9786 1.4025 1.6308 1.9575.6528.555 1.3992.9675 2.2392 1.2375zm4.68 0c.84-.27 1.5861-.6825 2.2383-1.2375.6528-.555 1.1967-1.2075 1.6317-1.9575h-2.655c-.135.57-.3036 1.1211-.5058 1.6533-.2028.5328-.4392 1.0467-.7092 1.5417zm-9.315-4.995h3.06c-.045-.3-.0789-.5964-.1017-.8892-.0222-.2922-.0333-.5958-.0333-.9108s.0111-.6186.0333-.9108c.0228-.2928.0567-.5892.1017-.8892h-3.06c-.075.3-.1314.5964-.1692.8892-.0372.2922-.0558.5958-.0558.9108s.0186.6186.0558.9108c.0378.2928.0942.5892.1692.8892zm4.86 0h4.23c.045-.3.0789-.5964.1017-.8892.0222-.2922.0333-.5958.0333-.9108s-.0111-.6186-.0333-.9108c-.0228-.2928-.0567-.5892-.1017-.8892h-4.23c-.045.3-.0786.5964-.1008.8892-.0228.2922-.0342.5958-.0342.9108s.0114.6186.0342.9108c.0222.2928.0558.5892.1008.8892zm6.03 0h3.06c.075-.3.1314-.5964.1692-.8892.0372-.2922.0558-.5958.0558-.9108s-.0186-.6186-.0558-.9108c-.0378-.2928-.0942-.5892-.1692-.8892h-3.06c.045.3.0786.5964.1008.8892.0228.2922.0342.5958.0342.9108s-.0114.6186-.0342.9108c-.0222.2928-.0558.5892-.1008.8892zm-.36-5.4h2.655c-.435-.75-.9789-1.4025-1.6317-1.9575-.6522-.555-1.3983-.9675-2.2383-1.2375.27.495.5064 1.0086.7092 1.5408.2022.5328.3708 1.0842.5058 1.6542zm-5.265 0h3.42c-.18-.66-.4125-1.2825-.6975-1.8675s-.6225-1.1475-1.0125-1.6875c-.39.54-.7275 1.1025-1.0125 1.6875s-.5175 1.2075-.6975 1.8675zm-4.5 0h2.655c.135-.57.3039-1.1214.5067-1.6542.2022-.5322.4383-1.0458.7083-1.5408-.84.27-1.5864.6825-2.2392 1.2375-.6522.555-1.1958 1.2075-1.6308 1.9575z" fill="#fff"/></g></svg>