<svg fill="none" height="48" viewBox="0 0 48 48" width="48" xmlns="http://www.w3.org/2000/svg"><rect fill="#adebd6" height="48" rx="12" width="48"/><path d="m10 38 1.9729-7.1896c-1.2188-2.1091-1.859-4.5016-1.8561-6.9364.0032-7.6502 6.2408-13.874 13.9059-13.874 3.7196.0019 7.2109 1.4466 9.8366 4.0692s4.0704 6.1085 4.0691 9.8159c-.0034 7.6497-6.242 13.8746-13.9059 13.8746h-.0061c-2.327-.001-4.6137-.5837-6.6448-1.689z" fill="#fff"/><path d="m24.027 12.3426c-6.3754 0-11.5601 5.1729-11.5624 11.5311-.0031 2.1712.6094 4.2989 1.7669 6.1372l.275.4363-1.1678 4.2552 4.3745-1.1448.4224.2498c1.7741 1.0508 3.8083 1.6066 5.8827 1.6077h.0043c6.3705 0 11.5552-5.1735 11.5576-11.5321.0048-1.5156-.2916-3.017-.8721-4.4175-.5806-1.4004-1.4337-2.672-2.5099-3.7411-1.0703-1.075-2.3436-1.9274-3.7462-2.5079s-2.9066-.8775-4.425-.8739z" fill="#00b074"/><path clip-rule="evenodd" d="m20.5471 18.0734c-.2605-.5774-.5345-.5891-.7819-.5991l-.666-.0081c-.2317 0-.6082.0868-.9265.4339-.3182.3471-1.2162 1.1859-1.2162 2.8921s1.2451 3.3549 1.4186 3.5865 2.4037 3.8445 5.9354 5.2346c2.9349 1.1552 3.5322.9254 4.1695.8677s2.0557-.8389 2.345-1.6487c.2894-.8098.2896-1.5036.2028-1.6486-.0867-.1451-.3185-.2313-.6662-.4048-.3478-.1736-2.0557-1.0124-2.3742-1.1282-.3184-.1159-.5499-.1734-.7818.1737s-.897 1.1278-1.0998 1.3593c-.2028.2314-.4052.2605-.753.0871-.3477-.1733-1.4666-.5396-2.7941-1.7211-1.0328-.9192-1.73-2.0544-1.933-2.4013s-.0215-.5347.1527-.7075c.1559-.1555.3474-.405.5214-.6074.1741-.2024.2314-.3471.347-.5782.1157-.2311.0581-.434-.0289-.6074-.0869-.1733-.762-1.8884-1.0708-2.5743" fill="#fff" fill-rule="evenodd"/></svg>