<svg width="20" height="20" viewBox="0 0 20 20" fill="none" xmlns="http://www.w3.org/2000/svg">
<path d="M4.375 20C3.85938 20 3.41781 19.8133 3.05031 19.44C2.68281 19.0667 2.49938 18.6184 2.5 18.0952V8.57143C2.5 8.04762 2.68375 7.59905 3.05125 7.22571C3.41875 6.85238 3.86 6.66603 4.375 6.66667H5.3125V4.7619C5.3125 3.44444 5.76969 2.32127 6.68406 1.39238C7.59844 0.463493 8.70375 -0.00063427 10 6.50534e-07C11.2969 6.50534e-07 12.4025 0.464445 13.3169 1.39333C14.2312 2.32222 14.6881 3.44508 14.6875 4.7619V6.66667H15.625C16.1406 6.66667 16.5822 6.85333 16.9497 7.22667C17.3172 7.6 17.5006 8.04825 17.5 8.57143V18.0952C17.5 18.619 17.3162 19.0676 16.9487 19.441C16.5812 19.8143 16.14 20.0006 15.625 20H4.375ZM4.375 18.0952H15.625V8.57143H4.375V18.0952ZM10 15.2381C10.5156 15.2381 10.9572 15.0514 11.3247 14.6781C11.6922 14.3048 11.8756 13.8565 11.875 13.3333C11.875 12.8095 11.6912 12.361 11.3237 11.9876C10.9562 11.6143 10.515 11.4279 10 11.4286C9.48438 11.4286 9.04281 11.6152 8.67531 11.9886C8.30781 12.3619 8.12438 12.8102 8.125 13.3333C8.125 13.8571 8.30875 14.3057 8.67625 14.679C9.04375 15.0524 9.485 15.2387 10 15.2381ZM7.1875 6.66667H12.8125V4.7619C12.8125 3.96825 12.5391 3.29365 11.9922 2.7381C11.4453 2.18254 10.7812 1.90476 10 1.90476C9.21875 1.90476 8.55469 2.18254 8.00781 2.7381C7.46094 3.29365 7.1875 3.96825 7.1875 4.7619V6.66667Z" fill="#E21243"/>
</svg>
