<svg width="200" height="313" viewBox="0 0 200 313" fill="none" xmlns="http://www.w3.org/2000/svg">
<rect y="9.79883" width="172" height="303" rx="12" transform="rotate(-3 0 9.79883)" fill="#D3E0EB" fill-opacity="0.15"/>
<rect y="9.79883" width="172" height="303" rx="12" transform="rotate(-3 0 9.79883)" fill="url(#paint0_angular_7801_7192)" fill-opacity="0.1"/>
<path d="M89.6791 103.832C89.6791 103.832 92.3139 91.3969 82.1324 90.7071C82.1324 90.7071 82.759 95.4704 82.6745 95.2881C82.59 95.1058 88.7183 103.943 88.7183 103.943L89.6791 103.832Z" fill="#594A42"/>
<path d="M86.8074 102.972C86.8074 102.972 89.3069 96.4844 90.2414 98.5482C92.3385 103.198 90.1927 105.93 88.5497 106.524L86.8074 102.972Z" fill="#CF865F"/>
<path d="M89.2003 101.285C89.2003 101.285 89.3994 99.7428 89.7568 100.055C90.1142 100.368 90.5363 102.6 89.9441 103.389" fill="#B87754"/>
<path d="M51.9175 242.61C52.0348 241.429 41.0255 7.5641 41.0255 7.5641" stroke="#58595B" stroke-width="1.28807" stroke-miterlimit="10"/>
<path d="M81.9543 209.569L82.3788 212.794L171.945 180.547L171.527 177.374L81.9543 209.569Z" fill="#4A3D37"/>
<path d="M171.526 177.372L81.953 209.567L61.9058 206.294L151.478 174.095L171.526 177.372Z" fill="#594A42"/>
<path d="M125.954 180.942L128.85 178.238L152.342 186.248L150.009 188.549L125.954 180.942Z" fill="#6DA6B3"/>
<path d="M91.9296 112.442C91.4194 115.687 87.7249 117.216 85.3437 118.356C85.8136 118.074 87.1872 115.843 87.5629 115.452C91.8101 111.171 85.5261 99.974 84.7175 95.1375L87.3388 94.369C88.4665 98.5292 92.0948 108.125 91.9296 112.442Z" fill="#414042"/>
<path d="M90.2025 106.415L86.4795 95.084" stroke="#414042" stroke-width="1.93211" stroke-miterlimit="10"/>
<path d="M131.186 172.276C132.176 169.092 130.34 165.733 127.084 164.773C123.829 163.814 120.388 165.617 119.398 168.801L116.908 176.808C115.918 179.992 117.754 183.351 121.009 184.31C124.264 185.27 127.706 183.467 128.696 180.283L131.186 172.276Z" stroke="#BCBEC0" stroke-width="2.57615" stroke-miterlimit="10"/>
<path d="M141.083 66.7443L130.444 69.829L130.237 101.109L120.975 105.606L129.922 120.156L136.615 116.362L136.949 116.163L138.657 115.194C138.915 115.043 139.156 114.866 139.375 114.666C140.953 113.691 142.862 112.506 144.15 111.706C144.589 111.435 144.94 111.048 145.162 110.59C145.384 110.132 145.468 109.621 145.404 109.119L143.712 95.7582L141.083 66.7443Z" fill="#CA855E"/>
<path d="M170.268 271.927L154.288 267.472L151.887 262.213L138.338 268.277C138.407 268.801 140.23 273.355 141.516 276.511C145.845 277.471 163.077 281.245 170.222 279.01C171.444 278.636 172.646 278.2 173.821 277.702C174.049 275.337 172.733 272.627 170.268 271.927Z" fill="#1D6D60"/>
<path d="M141.528 276.51C141.873 277.36 142.179 278.112 142.403 278.653C142.515 278.926 142.699 279.165 142.937 279.345C143.174 279.525 143.457 279.639 143.756 279.676L160.394 282.171C164.052 282.82 167.824 282.491 171.312 281.219C172.884 280.644 173.683 279.249 173.827 277.701C172.651 278.199 171.45 278.635 170.227 279.009C163.087 281.244 145.856 277.469 141.528 276.51Z" fill="#231F20"/>
<path d="M136.985 221.673C135.564 218.285 133.458 215.213 130.792 212.642L114.489 196.919L127.342 183.857L118.901 171.021L84.2495 189.919L87.0809 200.244C87.72 202.578 89.0891 204.658 90.9974 206.193L117.403 227.441L132.67 264.458C136.264 262.871 146.419 259.515 151.382 257.359L136.985 221.673Z" fill="#398596"/>
<path d="M156.93 263.022L151.241 250.543C145.654 252.969 133.712 258.164 129.667 259.953L135.429 272.256L156.93 263.022Z" fill="#6DA6B3"/>
<path d="M164.876 196.698C164.439 194.791 163.489 193.033 162.125 191.606C160.76 190.179 159.03 189.135 157.113 188.581C144.756 184.995 118.504 177.395 117.697 177.343L113.096 196.309L149.478 206.291L159.07 249.551L175.926 241.4L164.876 196.698Z" fill="#398596"/>
<path d="M55.8977 131.184C59.0573 128.602 64.6124 124.944 77.9255 120.069C87.3545 116.616 100.562 114.088 108.314 112.619L111.182 140.3C112.241 147.912 114.245 155.368 117.152 162.501L123.129 174.659C118.683 178.656 113.188 181.364 107.261 182.481C97.5855 184.205 84.2765 192.092 84.2765 192.092C84.2765 192.092 82.0596 182.514 80.6064 177.48C79.7312 174.415 76.819 167.453 74.4417 161.138C73.0631 157.446 56.2782 131.774 55.8977 131.184Z" fill="#F3B773"/>
<path d="M70.4282 111.281L83.9285 106.868C84.2317 106.769 84.5624 106.792 84.8479 106.931C85.1334 107.07 85.3504 107.315 85.451 107.611L89.0707 118.257C89.7657 120.301 89.6007 122.534 88.6119 124.463C87.6231 126.392 85.8916 127.861 83.7981 128.545C81.7047 129.229 79.421 129.073 77.4493 128.111C75.4775 127.15 73.9794 125.461 73.2843 123.417L69.6607 112.759C69.5639 112.464 69.5902 112.143 69.7339 111.866C69.8776 111.59 70.1271 111.379 70.4282 111.281Z" fill="#B87754"/>
<path d="M131.617 71.1996L141.09 66.7445C141.09 66.7445 141.853 63.2424 141.185 61.7488C140.516 60.2551 136.515 54.027 136.515 54.027L126.624 59.7567L131.617 71.1996Z" fill="#E5A17F"/>
<path d="M124.501 52.5297L146.91 89.5765C147.35 90.3049 148.069 90.8318 148.908 91.0413C149.747 91.2507 150.638 91.1256 151.384 90.6934C152.131 90.2612 152.671 89.5574 152.888 88.7368C153.104 87.9161 152.978 87.0459 152.538 86.3174L130.129 49.2706L124.501 52.5297ZM150.738 89.5972C150.351 89.8219 149.905 89.9295 149.456 89.9063C149.007 89.8831 148.575 89.7303 148.215 89.467C147.856 89.2038 147.585 88.842 147.436 88.4275C147.287 88.013 147.268 87.5644 147.38 87.1386C147.493 86.7127 147.732 86.3286 148.067 86.0351C148.402 85.7415 148.819 85.5515 149.265 85.4893C149.71 85.4271 150.164 85.4954 150.569 85.6855C150.974 85.8756 151.312 86.179 151.54 86.5574C151.691 86.8088 151.789 87.087 151.83 87.376C151.871 87.6649 151.853 87.959 151.777 88.2415C151.701 88.5239 151.57 88.7892 151.389 89.0221C151.209 89.255 150.983 89.451 150.725 89.5988L150.738 89.5972Z" fill="#8F5CE2"/>
<path d="M134.487 52.1225L129.985 55.2537C129.395 55.6637 129.256 56.4624 129.674 57.0375L129.864 57.2992C130.283 57.8743 131.1 58.0082 131.689 57.5982L136.191 54.467C136.781 54.057 136.92 53.2583 136.502 52.6831L136.312 52.4215C135.893 51.8463 135.076 51.7125 134.487 52.1225Z" fill="#B87754"/>
<path d="M136.462 55.0587L130.822 58.9807C130.176 59.4304 130.023 60.3062 130.482 60.937L130.526 60.9974C130.984 61.6281 131.88 61.7749 132.527 61.3253L138.166 57.4032C138.813 56.9536 138.965 56.0778 138.507 55.447L138.463 55.3866C138.004 54.7559 137.108 54.6091 136.462 55.0587Z" fill="#B87754"/>
<path d="M138.548 57.9192L132.447 62.1604C131.801 62.6101 131.648 63.4859 132.107 64.1167L132.151 64.177C132.61 64.8078 133.506 64.9546 134.153 64.5049L140.253 60.2637C140.9 59.8141 141.053 58.9382 140.594 58.3075L140.55 58.2471C140.091 57.6164 139.195 57.4696 138.548 57.9192Z" fill="#B87754"/>
<path d="M140.837 60.6343L137.392 63.0301C136.862 63.3986 136.737 64.1162 137.113 64.6331L137.457 65.106C137.832 65.6228 138.567 65.7431 139.096 65.3747L142.541 62.9788C143.071 62.6103 143.196 61.8927 142.82 61.3759L142.476 60.9029C142.1 60.3861 141.366 60.2658 140.837 60.6343Z" fill="#B87754"/>
<path d="M130.855 71.3122C130.855 71.3122 122.879 66.2126 122.79 65.7537C122.701 65.2947 125.151 57.6958 125.151 57.6958L131.786 53.85C131.786 53.85 133.863 58.627 129.609 61.1929L129.239 63.0313C129.239 63.0313 134.656 60.7805 138.613 66.815L130.855 71.3122Z" fill="#CA855E"/>
<path d="M192.208 255.12L177.958 253.4L176.054 250.146L162.43 255.388L163.481 263.374L197.585 262.66C198.197 259.822 197.917 255.902 192.208 255.12Z" fill="#1D6D60"/>
<path d="M163.483 263.373L163.675 264.831C163.727 265.225 163.925 265.585 164.232 265.844C164.539 266.103 164.933 266.242 165.339 266.235L195.38 265.697C195.75 265.69 196.109 265.573 196.411 265.363C196.712 265.153 196.941 264.858 197.068 264.518C197.294 263.912 197.475 263.29 197.611 262.658L163.483 263.373Z" fill="#231F20"/>
<path d="M156.856 246.157L160.551 259.822L179.223 250.881L176.028 236.9L156.856 246.157Z" fill="#6DA6B3"/>
<path d="M150.39 31.2685L100.272 60.3027L102.355 63.7456L152.473 34.7114L150.39 31.2685Z" fill="#414042"/>
<path d="M101.709 64.084L152.807 34.4805C153.37 35.4112 153.532 36.5233 153.255 37.5721C152.979 38.6209 152.288 39.5205 151.335 40.073L107.428 65.51C106.474 66.0625 105.336 66.2227 104.263 65.9552C103.191 65.6878 102.272 65.0147 101.709 64.084Z" fill="#8F5CE2"/>
<path d="M100.952 115.113L111.68 136.468L131.936 122.123L122.4 104.225L100.952 115.113Z" fill="#F3B773"/>
<path d="M81.9544 209.568L82.3789 212.793L62.3674 209.798L61.9062 206.294L81.9544 209.568Z" fill="#40352F"/>
<path d="M81.3352 181.54C81.3352 181.54 99.1549 167.333 121.562 169.136L124.484 176.396C104.417 174.782 85.418 188.315 83.4796 189.744L81.3352 181.54Z" fill="#414042"/>
<path d="M120.963 203.169L119.065 201.338C119.129 201.242 115.279 198.01 115.343 197.89C116.717 195.39 117.592 191.017 115.239 189.126C111.402 186.041 102.558 178.573 102.184 178.257L101.485 177.667L101.142 176.83C88.3667 145.501 62.0894 126.719 61.826 126.535L68.4766 122.176C68.7683 122.382 73.4819 125.616 82.1197 134.661C89.9518 142.866 100.715 156.165 107.844 173.224C110.043 175.08 116.911 180.857 120.066 183.393C122.873 185.653 124.338 188.939 124.298 192.899C124.232 195.862 123.453 198.769 122.023 201.386C121.854 201.697 121.15 202.89 120.963 203.169Z" fill="#414042"/>
<path d="M100.971 176.29C100.577 174.627 90.9871 137.291 93.9814 114.453L101.928 113.405C99.1077 134.925 108.269 174.216 108.363 174.609L100.971 176.29Z" fill="#414042"/>
<path d="M84.3828 206.505L79.3836 207.376L105.085 141.762L167.505 177.391L161.672 178.636L107.683 148.784L84.3828 206.505Z" fill="#231F20"/>
<path d="M130.854 71.3124L141.846 81.9687L138.624 66.8105L130.854 71.3124Z" fill="#CA855E"/>
<path d="M57.5543 161.281L72.9326 180.671C73.6723 181.643 74.7731 182.292 75.9987 182.478C77.2243 182.665 78.4772 182.375 79.4884 181.669L81.7769 180.065C82.6905 179.397 83.3385 178.439 83.6097 177.356C83.8808 176.274 83.7581 175.133 83.2628 174.131L72.7544 152.427L57.5543 161.281Z" fill="#CA855E"/>
<path d="M89.7193 139.628L73.941 166.04L78.9017 181.931L80.2585 181.097C82.3883 179.784 84.0191 177.825 84.8995 175.52L97.7175 144.525L89.7193 139.628Z" fill="#CA855E"/>
<path d="M68.2249 140.452L58.8865 128.989C56.938 130.123 53.4386 132.941 52.1768 135.635C50.5036 139.201 50.5012 145.505 57.0055 162.928C57.3104 163.743 57.6203 164.547 57.9281 165.336L74.941 156.287C70.6071 146.199 68.0914 142.151 68.2249 140.452Z" fill="#F3B773"/>
<path d="M89.7623 105.254C90.6603 112.804 94.6388 117.088 83.7392 119.614C74.5983 121.744 67.4865 115.381 66.5912 107.827C65.6959 100.273 65.0806 94.3624 76.5633 92.391C83.5117 91.19 86.2761 94.2437 87.8463 98.447C88.1955 99.3803 87.9942 101.194 88.243 102.237C88.4918 103.279 89.6386 104.12 89.7623 105.254Z" fill="#CF865F"/>
<path d="M63.8144 94.2808C63.758 94.0949 67.8883 84.9756 76.9673 85.2149L75.0404 87.5298C75.0404 87.5298 82.4104 85.708 88.3444 91.1436L81.9383 90.5994C81.9383 90.5994 85.6772 91.0552 88.5076 93.2314L85.4707 95.8815C85.4707 95.8815 75.4977 88.4369 67.1133 96.6742L63.8144 94.2808Z" fill="#6D6E71"/>
<path d="M65.4615 104.769C65.4615 104.769 67.8446 105.554 68.5083 108.537L69.3896 107.82L67.7567 102.585L69.9103 98.9857L70.8487 90.733L62.1037 94.7615C62.1037 94.7615 61.69 98.2563 65.4615 104.769Z" fill="#594A42"/>
<path d="M68.6079 112.281L62.9189 100.877" stroke="#414042" stroke-width="1.93211" stroke-miterlimit="10"/>
<path d="M74.4595 105.372C75.126 105.287 75.5968 104.69 75.5111 104.038C75.4254 103.387 74.8156 102.928 74.1492 103.013C73.4827 103.099 73.0119 103.696 73.0975 104.347C73.1832 104.999 73.793 105.457 74.4595 105.372Z" fill="#231F20"/>
<path d="M68.2031 106.266C68.2031 106.266 61.6832 101.703 61.6674 105.047C61.6522 110.31 66.5679 111.064 68.8073 110.422L68.2031 106.266Z" fill="#CF865F"/>
<path d="M85.2271 103.46C85.8945 103.375 86.366 102.777 86.2802 102.126C86.1943 101.475 85.5838 101.016 84.9164 101.101C84.249 101.187 83.7776 101.784 83.8634 102.435C83.9492 103.087 84.5598 103.545 85.2271 103.46Z" fill="#231F20"/>
<path d="M86.321 107.983C86.0412 108.761 85.475 109.408 84.7332 109.8C84.1275 110.09 83.4903 110.311 82.8337 110.461C82.8413 110.402 82.8409 110.342 82.8327 110.283C82.7902 110.064 82.6638 109.87 82.4792 109.739C82.2946 109.609 82.0658 109.552 81.8396 109.581C81.6134 109.61 81.4068 109.723 81.2621 109.895C81.1174 110.068 81.0455 110.288 81.0611 110.51C80.8684 110.471 80.682 110.407 80.5067 110.319C80.2061 110.171 79.9775 109.913 79.8701 109.6C79.8139 109.374 79.8168 109.137 79.8785 108.911C79.9401 108.686 80.0586 108.479 80.223 108.309L79.111 102.646L81.4063 102.159C81.4063 102.159 82.2301 104.639 83.7202 106.077C85.2104 107.515 86.321 107.983 86.321 107.983Z" fill="#E5A17F"/>
<path d="M78.7673 113.411L88.6047 110.659C88.6047 110.659 87.6533 112.924 85.3932 113.964C83.7699 114.707 81.3548 114.69 78.7673 113.411Z" fill="#F1F2F2"/>
<path d="M67.6318 99.2148C67.6492 99.3466 69.935 112.569 69.935 112.569" stroke="#414042" stroke-width="1.93211" stroke-miterlimit="10"/>
<path d="M70.6734 101.44L76.9331 100.187C76.9331 100.187 72.2559 98.565 70.6734 101.44Z" fill="#594A42"/>
<path d="M87.333 98.0701L81.0553 99.2227C81.0553 99.2227 84.7652 95.9974 87.333 98.0701Z" fill="#594A42"/>
<path d="M67.5354 112.292C67.5354 112.292 69.2577 116.295 73.2192 118.466C73.2192 118.466 71.0024 114.533 70.4495 111.034L67.5354 112.292Z" fill="#414042"/>
<path d="M70.8222 112.2C70.8392 112.329 71.5433 117.073 80.156 120.126C80.156 120.126 75.7077 120.658 72.5157 118.21C72.5157 118.21 70.4248 117.151 68.5192 113.865L70.8222 112.2Z" fill="#414042"/>
<path d="M87.4566 204.188L99.3974 191.412L116.274 209.55L105.202 220.571L87.4566 204.188Z" fill="#6DA6B3"/>
<path d="M107.376 129.901L106.285 121.606C106.109 120.263 105.552 118.995 104.676 117.948C103.8 116.9 102.641 116.113 101.33 115.678C100.019 115.242 98.6087 115.174 97.2584 115.482C95.9081 115.789 94.672 116.46 93.6903 117.419L95.0173 119.678C95.602 118.917 96.4055 118.342 97.325 118.029C98.2445 117.715 99.2381 117.676 100.179 117.918C101.119 118.159 101.964 118.67 102.605 119.384C103.246 120.098 103.654 120.984 103.777 121.927L104.868 130.222C104.961 130.932 104.89 131.653 104.659 132.333C104.428 133.012 104.045 133.633 103.536 134.149L104.829 136.347C105.768 135.563 106.493 134.563 106.938 133.438C107.383 132.312 107.533 131.096 107.376 129.901Z" fill="#939598"/>
<path d="M150.094 176.169L155.605 175.725L105.777 141.933L106.936 148.849L107.055 148.659L150.094 176.169Z" fill="#231F20"/>
<path d="M107.194 151.469C105.241 151.717 103.269 151.197 101.712 150.025C100.154 148.853 99.1368 147.123 98.8841 145.216L97.7922 136.921C97.5409 135.012 98.0763 133.082 99.2806 131.555C100.485 130.028 102.259 129.03 104.214 128.779C106.168 128.529 108.142 129.048 109.702 130.221C111.262 131.394 112.279 133.126 112.53 135.035L113.622 143.33C113.871 145.239 113.334 147.169 112.129 148.695C110.923 150.221 109.148 151.219 107.194 151.469ZM104.531 131.234C103.243 131.4 102.075 132.059 101.282 133.065C100.489 134.071 100.136 135.342 100.301 136.6L101.393 144.895C101.558 146.154 102.23 147.296 103.258 148.07C104.287 148.844 105.589 149.186 106.878 149.021C108.167 148.856 109.338 148.197 110.132 147.19C110.926 146.183 111.279 144.91 111.114 143.651L110.022 135.356C109.94 134.732 109.732 134.13 109.412 133.584C109.091 133.039 108.664 132.561 108.154 132.178C107.644 131.794 107.061 131.513 106.439 131.35C105.818 131.187 105.169 131.146 104.53 131.228L104.531 131.234Z" fill="#BCBEC0"/>
<path d="M105.713 141.891L67.105 205.366L71.7483 205.036L106.935 148.848L105.776 141.932L105.713 141.891Z" fill="#231F20"/>
<path d="M100.64 135.587C99.3528 135.751 98.053 135.408 97.0262 134.635C95.9993 133.862 95.3292 132.721 95.1629 131.464L94.0713 123.169C93.9065 121.928 94.2474 120.673 95.0204 119.674L93.6935 117.414C92.8854 118.2 92.2729 119.156 91.9034 120.209C91.5339 121.262 91.4174 122.384 91.563 123.487L92.6545 131.782C92.8235 133.079 93.3485 134.306 94.1738 135.333C94.9991 136.361 96.0939 137.15 97.3423 137.618C98.5906 138.085 99.946 138.214 101.265 137.989C102.583 137.765 103.816 137.196 104.833 136.343L103.541 134.157C102.769 134.944 101.745 135.449 100.64 135.587Z" fill="#939598"/>
<path d="M98.2399 119.024L93.5162 4.7639" stroke="#58595B" stroke-width="1.28807" stroke-miterlimit="10"/>
<g filter="url(#filter0_d_7801_7192)">
<path d="M89.4467 126.256C89.2232 125.405 89.7228 124.515 90.5655 124.262L98.8583 121.778C99.7055 121.524 100.579 122.01 100.81 122.864L105.641 140.72C105.957 141.888 104.923 143.004 103.752 142.759L98.1614 141.589C97.8342 141.52 97.5391 141.348 97.3185 141.096L91.8905 134.91C91.7302 134.727 91.6143 134.508 91.5519 134.271L89.4467 126.256Z" fill="#4A5263"/>
<path d="M90.0466 126.081C89.9103 125.562 90.2149 125.02 90.7287 124.866L99.0216 122.381C99.5381 122.226 100.071 122.523 100.212 123.043L105.043 140.899C105.235 141.612 104.605 142.292 103.891 142.143L98.3001 140.972C98.1006 140.93 97.9207 140.825 97.7862 140.672L92.3582 134.485C92.2605 134.374 92.1898 134.24 92.1518 134.096L90.0466 126.081Z" stroke="#AFBBE7" stroke-width="1.25"/>
</g>
<ellipse rx="1.31408" ry="1.33197" transform="matrix(0.99971 0.0240825 -0.047481 0.998872 95.8081 127.337)" fill="#AFBBE7"/>
<path d="M102.166 129.825L97.166 132.062C96.5112 132.354 96.2313 133.121 96.5407 133.775L96.6818 134.072C96.9912 134.726 97.7728 135.018 98.4275 134.725L103.427 132.488C104.082 132.195 104.362 131.429 104.053 130.775L103.912 130.478C103.602 129.824 102.821 129.532 102.166 129.825Z" fill="#CA855E"/>
<path d="M103.907 133.12L97.5425 135.967C96.8206 136.29 96.5119 137.136 96.8531 137.856L96.8791 137.911C97.2203 138.631 98.0821 138.953 98.804 138.63L105.169 135.783C105.891 135.46 106.199 134.615 105.858 133.894L105.832 133.839C105.491 133.119 104.629 132.797 103.907 133.12Z" fill="#CA855E"/>
<path d="M105.052 136.413L98.3675 139.402C97.6295 139.732 97.3137 140.596 97.662 141.332C98.0104 142.067 98.891 142.396 99.629 142.066L106.313 139.076C107.051 138.746 107.367 137.882 107.019 137.147C106.67 136.411 105.79 136.082 105.052 136.413Z" fill="#CA855E"/>
<path d="M105.669 139.868L100.67 142.104C100.015 142.397 99.7351 143.164 100.044 143.817L100.186 144.115C100.495 144.769 101.276 145.061 101.931 144.768L106.93 142.531C107.585 142.238 107.864 141.472 107.555 140.818L107.414 140.52C107.105 139.867 106.323 139.575 105.669 139.868Z" fill="#CA855E"/>
<path d="M92.8115 146.956L99.0202 146.812L105.193 143.313L100.011 130.912L91.6486 134.425L91.2057 132.959C90.3304 133.983 89.4145 135.085 89.2636 136.192C89.1126 137.299 89.6632 139.699 89.6632 139.699L92.8115 146.956Z" fill="#CA855E"/>
<path d="M41.4941 212.424L48.4631 255.54C48.8848 258.744 56.9807 260.349 66.5437 259.125C76.1068 257.901 83.5189 254.311 83.0972 251.107L78.688 207.915L41.4941 212.424Z" fill="#8F5CE2"/>
<path d="M60.7582 215.174C49.8349 216.573 42.7544 214.589 42.4859 212.549C42.2174 210.509 48.5501 206.81 59.4734 205.412C70.3968 204.014 77.4772 205.998 77.7453 208.035C78.0134 210.072 71.6815 213.776 60.7582 215.174Z" fill="#414042"/>
<path d="M59.5943 206.332C64.3662 205.721 68.8999 205.723 72.3662 206.335C75.9177 206.964 76.7816 207.981 76.8046 208.156C76.8276 208.331 76.2559 209.534 72.985 211.037C69.792 212.502 65.4091 213.645 60.6372 214.256C55.8653 214.867 51.3315 214.865 47.884 214.25C44.3294 213.622 43.4651 212.601 43.4421 212.427C43.4192 212.252 43.9912 211.052 47.2652 209.548C50.4551 208.084 54.8381 206.941 59.61 206.33L59.5943 206.332ZM59.3681 204.492C49.1126 205.805 41.1397 209.467 41.561 212.668C41.9822 215.869 50.6392 217.405 60.8947 216.092C71.1502 214.779 79.1231 211.117 78.7014 207.913C78.2798 204.709 69.6236 203.179 59.3681 204.492Z" fill="#AE7FF0"/>
<path d="M60.0097 102.221C60.0097 102.221 55.0072 88.0725 67.005 84.6367C79.0028 81.2009 85.8343 81.049 92.1696 94.9085L60.0097 102.221Z" fill="#1D6D60"/>
<path d="M68.1011 107.385C61.6259 103.573 62.4572 108.97 68.393 109.409L68.1011 107.385Z" fill="#B87754"/>
<path d="M104.207 151.367L88.908 267.793" stroke="#414042" stroke-width="1.28807" stroke-miterlimit="10"/>
<g filter="url(#filter1_d_7801_7192)">
<ellipse rx="12.788" ry="12.7258" transform="matrix(0.838658 -0.54474 0.518094 0.855275 62.7505 235.726)" fill="white"/>
</g>
<path d="M67.0629 243.352C66.6931 243.613 66.2931 243.694 65.8628 243.596C65.4325 243.497 65.1045 243.254 64.8786 242.867L67.5728 240.963C67.7987 241.351 67.8627 241.78 67.7646 242.252C67.6666 242.724 67.4327 243.09 67.0629 243.352ZM68.9015 235.871L71.1216 236.378L71.5402 237.097L60.0341 245.228L59.6156 244.509L60.1214 242.075L57.7892 238.072C57.1381 236.955 56.8803 235.745 57.0159 234.441C57.1515 233.138 57.6323 232.018 58.4581 231.08L58.1791 230.601C57.993 230.282 57.9406 229.949 58.0217 229.601C58.1029 229.254 58.2861 228.98 58.5714 228.778C58.8566 228.577 59.1542 228.511 59.4639 228.582C59.7737 228.653 60.0216 228.848 60.2077 229.167L60.4867 229.646C61.6261 229.195 62.7619 229.174 63.8942 229.581C65.0264 229.988 65.9181 230.75 66.5693 231.868L68.9015 235.871Z" fill="#652DD0"/>
<defs>
<filter id="filter0_d_7801_7192" x="87.3936" y="120.711" width="20.3052" height="25.082" filterUnits="userSpaceOnUse" color-interpolation-filters="sRGB">
<feFlood flood-opacity="0" result="BackgroundImageFix"/>
<feColorMatrix in="SourceAlpha" type="matrix" values="0 0 0 0 0 0 0 0 0 0 0 0 0 0 0 0 0 0 127 0" result="hardAlpha"/>
<feOffset dy="1"/>
<feGaussianBlur stdDeviation="1"/>
<feComposite in2="hardAlpha" operator="out"/>
<feColorMatrix type="matrix" values="0 0 0 0 0 0 0 0 0 0 0 0 0 0 0 0 0 0 0.33 0"/>
<feBlend mode="normal" in2="BackgroundImageFix" result="effect1_dropShadow_7801_7192"/>
<feBlend mode="normal" in="SourceGraphic" in2="effect1_dropShadow_7801_7192" result="shape"/>
</filter>
<filter id="filter1_d_7801_7192" x="46.2684" y="220.467" width="32.9648" height="33.6303" filterUnits="userSpaceOnUse" color-interpolation-filters="sRGB">
<feFlood flood-opacity="0" result="BackgroundImageFix"/>
<feColorMatrix in="SourceAlpha" type="matrix" values="0 0 0 0 0 0 0 0 0 0 0 0 0 0 0 0 0 0 127 0" result="hardAlpha"/>
<feOffset dy="1.55653"/>
<feGaussianBlur stdDeviation="1.94566"/>
<feColorMatrix type="matrix" values="0 0 0 0 0 0 0 0 0 0 0 0 0 0 0 0 0 0 0.08 0"/>
<feBlend mode="normal" in2="BackgroundImageFix" result="effect1_dropShadow_7801_7192"/>
<feBlend mode="normal" in="SourceGraphic" in2="effect1_dropShadow_7801_7192" result="shape"/>
</filter>
<radialGradient id="paint0_angular_7801_7192" cx="0" cy="0" r="1" gradientUnits="userSpaceOnUse" gradientTransform="translate(87.6019 130.734) rotate(-121.529) scale(213.32 208.357)">
<stop stop-color="#1A53E6"/>
<stop offset="1" stop-color="white"/>
</radialGradient>
</defs>
</svg>
