<svg width="46" height="46" viewBox="0 0 46 46" fill="none" xmlns="http://www.w3.org/2000/svg">
    <g clip-path="url(#clip0_10187_2097)">
        <rect x="1" y="1" width="44" height="44" rx="22" fill="#FDFDFD"/>
        <g clip-path="url(#clip1_10187_2097)">
            <path fill-rule="evenodd" clip-rule="evenodd"
                  d="M31.748 18.2818C32.3036 12.7724 29.3465 6.72607 23.064 6.72607C16.7816 6.72607 13.8245 12.7724 14.3801 18.2818C14.2454 18.2513 14.1123 18.2495 13.9833 18.2795C13.1311 18.4778 12.7866 19.9914 13.214 21.6601C13.6344 23.3019 14.6452 24.4823 15.4894 24.3311C17.0255 29.3477 20.9823 31.4387 23.064 31.4387C25.1458 31.4387 29.1026 29.3477 30.6387 24.3311C31.4828 24.4823 32.4937 23.3019 32.9141 21.6601C33.3414 19.9914 32.997 18.4778 32.1447 18.2795C32.0158 18.2495 31.8826 18.2513 31.748 18.2818ZM18.553 30.2171C18.4017 30.0964 18.2513 29.9695 18.1023 29.8363C17.8305 31.7251 17.4034 33.7047 16.7644 34.3615C16.2188 34.9222 14.7842 35.2029 13.1071 35.5311C10.6719 36.0077 7.72549 36.5843 6.24759 38.2635C3.75191 41.0991 3.46045 45.1959 3.46045 45.1959H42.5395C42.5395 45.1959 42.2481 41.0991 39.7524 38.2635C38.2745 36.5843 35.3281 36.0077 32.8928 35.5311C31.2158 35.2029 29.7812 34.9222 29.2356 34.3615C28.6078 33.7163 28.1847 31.7947 27.9123 29.9366C27.8006 30.0336 27.6883 30.1271 27.5754 30.2171C26.0285 31.4511 24.3412 32.0714 23.0642 32.0714C21.7872 32.0714 20.1 31.4511 18.553 30.2171Z"
                  fill="#BBBBBB"/>
        </g>
    </g>
    <rect x="0.5" y="0.5" width="45" height="45" rx="22.5" stroke="#E4E4E4"/>
    <defs>
        <clipPath id="clip0_10187_2097">
            <rect x="1" y="1" width="44" height="44" rx="22" fill="white"/>
        </clipPath>
        <clipPath id="clip1_10187_2097">
            <rect width="39.0791" height="47.3918" fill="white" transform="translate(3.46045 -2.1958)"/>
        </clipPath>
    </defs>
</svg>
