<svg width="8" height="12" viewBox="0 0 8 12" fill="none" xmlns="http://www.w3.org/2000/svg">
<path d="M2.83333 10.0832H4.58333V11.8332H2.83333V10.0832ZM4 0.166504C7.12083 0.294837 8.48 3.44484 6.625 5.80734C6.14083 6.39067 5.35917 6.77567 4.97417 7.26567C4.58333 7.74984 4.58333 8.33317 4.58333 8.9165H2.83333C2.83333 7.94234 2.83333 7.11984 3.22417 6.5365C3.60917 5.95317 4.39083 5.609 4.875 5.224C6.28667 3.91734 5.93667 2.06817 4 1.9165C3.53587 1.9165 3.09075 2.10088 2.76256 2.42907C2.43437 2.75726 2.25 3.20238 2.25 3.6665H0.5C0.5 2.73825 0.868749 1.84801 1.52513 1.19163C2.1815 0.535253 3.07174 0.166504 4 0.166504Z" fill="white"/>
</svg>
