<svg fill="none" height="44" viewBox="0 0 44 44" width="44" xmlns="http://www.w3.org/2000/svg" xmlns:xlink="http://www.w3.org/1999/xlink"><clipPath id="a"><rect height="44" rx="22" width="44"/></clipPath><g clip-path="url(#a)"><rect fill="#fff" height="44" rx="22" width="44"/><path d="m40.5162 43.9445c.2371 1.87.219 3.7641-.0539 5.6291l-.883 6.0483c-.9452 6.4549-.6716 12.675.2156 19.1382.2706 1.9976.4091 4.0112.4145 6.0274l-29.4097.2682v-2.934c0-3.7011.3773-5.5537 1.0115-9.2003.4738-2.7298.4217-5.5264-.1533-8.2362l-2.5165-11.8283.9038-13.878c.0248-.3018 5.862-.3102 6.4093-.3311 3.6154-.1469 7.2367-.0166 10.8327.3898 2.4875.2808 5.2236.482 7.5535 1.3916 1.5227.6275 2.8518 1.6551 3.8497 2.9765.9978 1.3213 1.6282 2.8883 1.8258 4.5388z" fill="#6da6b3"/><path d="m22.3787 40.826c-1.4925 0-2.9241-.5983-3.981-1.6637-1.0568-1.0654-1.6528-2.511-1.6572-4.0199v-12.1553h11.2722v12.1553c-.0044 1.5082-.5998 2.9532-1.6557 4.0184-1.056 1.0653-2.4866 1.6641-3.9783 1.6652z" fill="#d4a39e"/><path d="m16.554 10.7019s-2.8482-.0838-4.4443 6.7064l5.6589-3.0514z" fill="#eb8c47"/><path d="m28.1205 24.2446s1.9651-.1426 2.9684-1.4587c.4712-.6742.8636-1.4014 1.169-2.167 2.0066-4.7657-.6094-8.5883-5.1448-10.99419-.7596-.35995-1.5667-.60701-2.3962-.73351-4.1457-.76285-12.2382-1.30774-10.7084 9.6404z" fill="#eb8c47"/><path d="m28.5144 13.6359c-.8523-1.2269-2.0335-2.1821-3.4047-2.7531s-2.8752-.734-4.3349-.4697c-1.4598.2642-2.8144.9447-3.9044 1.9612-1.0901 1.0165-1.8701 2.3268-2.2483 3.7765l-1.5879 6.2034c1.2438 2.8712 4.1043 5.1094 7.7069 5.625 2.5941.3977 5.2396-.238 7.3794-1.773l1.563-6.1531c.2741-1.0916.3115-2.2303.1097-3.3379s-.638-2.158-1.2788-3.0793z" fill="#ebb5b0"/><path d="m28.1288 26.6756-.6716-.2096 1.8324-6.0399.684.2096c.7919.2456 1.455.7989 1.8436 1.5385.3887.7395.4712 1.6047.2293 2.4057-.1197.3986-.3163.7693-.5784 1.0907-.2621.3215-.5845.5873-.9487.7821s-.763.3148-1.1733.3531c-.4103.0382-.824-.006-1.2173-.1302z" fill="#ebb5b0"/><path d="m28.8211 21.4405c.0332 0 2.3092.5742 1.8076 2.3681 0 0-.4353 2.167-3.1135 1.5593z" fill="#d4a39e"/><g fill="#eb8c47"><path d="m22.7477 6.79546s-9.0626.64549-10.696 5.64594h7.8023z"/><path d="m29.2025 13.4599-4.4856 4.9585s3.814 2.4143 6.1647 1.1862z"/><path d="m32.5523 19.7681s2.6035-5.5118 1.1359-10.99845l-1.5919 4.43455s1.8573-6.28718-3.6814-8.43322l.4519 5.50762s-.9619-6.86565-8.0054-6.10281l2.902 3.02625s-5.7792-3.80167-9.1206 0l4.4898 2.6532z"/><path d="m28.8212 21.78-1.2935.788c-1.7661 5.3147-6.6788 7.1255-11.4754 3.4831-3.5694-1.9071-2.0728-8.7057-.9245-10.3404l-1.4178.5072c-1.1276 2.1879-1.5588 9.8457-1.592 10.3655-.4684 8.9991 12.3709 11.3379 15.1485 2.6909.0332 0 1.5547-7.4943 1.5547-7.4943z"/></g><path d="m25.4465 21.6626c-.086.1946-.2091.3701-.3622.5166s-.3333.2611-.5302.3371c-.1969.0761-.4067.1123-.6174.1064s-.4183-.0537-.6107-.1407c-.1925-.0869-.3661-.2114-.511-.3662s-.2582-.3369-.3334-.536c-.0753-.1991-.111-.4112-.1052-.6243.0058-.213.0531-.4228.1391-.6174" stroke="#a95623" stroke-miterlimit="10" stroke-width=".930969"/><path d="m18.3698 18.7956c-.1721.3936-.4917.7019-.8886.8571s-.8386.1447-1.2278-.0292c-.3892-.174-.6942-.4972-.8477-.8985-.1536-.4013-.1432-.8478.0289-1.2413" stroke="#a95623" stroke-miterlimit="10" stroke-width=".930969"/><path d="m52.8829 57.1685-6.3305 4.4472-2.5538-15.4162c-1.679-9.5482-10.6296-10.2482-10.6296-10.2482l1.3142 11.3463 3.0637 17.9353v.1258c.369 5.1764 6.032 8.2194 10.6047 5.868 5.0702-2.6113 8.5485-8.5967 10.0534-11.6355.1038-.2116.1567-.4451.1545-.6813-.0023-.2362-.0597-.4686-.1676-.6781-.1079-.2096-.2632-.3904-.4532-.5278-.1901-.1375-.4096-.2276-.6406-.263l-3.3373-.503c-.3752-.0637-.7603.0187-1.0779.2305z" fill="#6da6b3"/><path d="m22.644 19.0094 4.4691 2.0538s-.7628-2.4855-3.9757-3.2609z" fill="#ca7433"/><path d="m13.1337 25.8708s6.2891-4.4094 8.7061 2.7664c0 0-3.0306-.1173-4.2079-2.0957.0165.0042-2.4833.5323-4.4982-.6707z" fill="#ca7433"/><path d="m19.7337 17.8023-4.4939-1.9952s2.3423-1.0814 5.0578.8383z" fill="#ca7433"/><path d="m29.5674 20.5141-1.0613 2.473-.9784-.4191.5928-2.7119s.0788-3.2652-.8043-4.2837c0 0-2.1806 2.1628-8.594.9347l2.4874-2.6825-6.6041 2.037.6923-4.9878 6.5295-1.39999 6.0445 2.19629 3.0181 6.019v2.5442z" fill="#eb8c47"/><path d="m19.315 19.1016-4.0172 4.3633c.473.7026 1.1667 1.223 1.9688 1.4771.8022.2541 1.6656.2269 2.4505-.0771l1.3059-5.0549z" fill="#d4a39e"/><path d="m26.6115 72.262-3.4907-5.0004 55.1256-40.6782 1.8283 2.2382z" fill="#594a42"/><path d="m2.11441 57.9607c3.49069-3.5124 6.24345-7.9638 9.48959-11.7822 1.7951-1.8484 2.4874-4.2837 2.3796-6.8279.0912-1.2574-1.1359-2.5777-1.907-3.4538-.3225-.4469-.795-.7599-1.3291-.8802s-1.09325-.0399-1.57293.2264c-2.82738 1.161-4.71368 3.6382-6.21858 6.2075-2.545471 3.9023-5.11582 7.792-7.653 11.7026-1.14007 1.8191-2.69057 3.5879-2.60351 5.8681-.0025 1.1992.33723 2.3737.97845 3.3825.64122 1.0089 1.55669 1.8093 2.63662 2.3053l16.24295 9.3302 3.2088-7.0794s-14.18669-8.9991-13.65189-8.9991z" fill="#6da6b3"/></g></svg>