<svg fill="none" height="44" viewBox="0 0 44 44" width="44" xmlns="http://www.w3.org/2000/svg" xmlns:xlink="http://www.w3.org/1999/xlink"><clipPath id="a"><rect height="44" rx="22" width="44"/></clipPath><g clip-path="url(#a)"><rect fill="#fff" height="44" rx="22" width="44"/><path d="m36.5653 24.2557h-28.44901l.92355 24.6281c.50705 1.9376 6.24756 3.4768 13.27376 3.4768s12.6762-1.5392 13.2738-3.4768z" fill="#a83c3c"/><path d="m7.26517 23.8755v3.7123c0 2.0463 6.75463 4.835 15.08463 4.835 8.3301 0 15.1028-2.7887 15.1028-4.835v-3.7123z" fill="#cf5353"/><path d="m22.3498 27.135c-8.4568 0-13.14698-2.3179-13.27374-3.3139s4.81694-3.3139 13.27374-3.3139c8.4569 0 13.1651 2.3179 13.2919 3.3139s-4.835 3.3139-13.2919 3.3139z" fill="#66260c"/><path d="m22.3498 22.3181c3.4235-.0796 6.8352.4288 10.0866 1.503-3.2514 1.0743-6.6631 1.5827-10.0866 1.5031-3.4174.0782-6.8229-.4302-10.0685-1.5031 3.2456-1.0729 6.6511-1.5813 10.0685-1.503zm0-3.6218c-8.33 0-15.08463 2.2999-15.08463 5.1248 0 2.825 6.75463 5.1248 15.08463 5.1248 8.3301 0 15.1028-2.2817 15.1028-5.1248s-6.7546-5.1248-15.1028-5.1248z" fill="#f98282"/><path d="m24.0158 6.61775v.43461c0 1.81088-.2716 3.62174-.4527 5.43264-.3622 3.7485-.7062 7.479-1.0503 11.2275.0187.2411.0187.4832 0 .7243h-1.7022c-1.0525-2.7181-1.6283-5.5973-1.7023-8.5111-.0455-1.7128.0454-3.4265.2717-5.1248.1569-1.20727.3742-2.38434.6519-3.53124.2897-1.21329.9598-2.93363 2.4809-2.98795h.2354c1.1409.14487 1.2495 1.4487 1.2676 2.33604z" fill="#d9ffe7"/><path d="m21.6798 24.4731h-.5795c0-.5071-.1267-1.159-.1811-1.9196-.2351-2.3584-.3138-4.7298-.2354-7.0986 0-.4709 0-.9779.1087-1.5031.2582-3.2017.6874-6.38739 1.2857-9.54333h.4165.1811c-.6786 3.68126-1.1322 7.40043-1.3582 11.13693-.0977 2.9807.0234 5.9646.3622 8.9277z" fill="#a7d4b8"/><path d="m23.038 24.4368h-3.2053c0-.1992-.1449-.4889-.163-.5251-.2245-.6238-.497-1.2292-.8149-1.8109-.3594-.5721-.7525-1.1223-1.1771-1.6479-1.9014-2.4809-4.6539-5.4508-4.3461-8.9095.0806-.6418.2966-1.259.6338-1.81093.1363-.20991.2876-.40963.4528-.59759l.2173-.1992.1992-.18109.181-.10865c.5003-.21306 1.0533-.27 1.5865-.16336.5331.10664 1.0217.37187 1.4015.76095.8066.75727 1.4531 1.66857 1.9014 2.68007 1.4065 3.1765 2.3283 6.546 2.7345 9.9961.1448.8511.2716 1.6841.3984 2.5171z" fill="#81b7a9"/><path d="m21.553 24.4731h-.6157c-.2897-.833-.7968-2.4085-1.5392-4.7627-.326-1.0141-.67-2.1549-1.0684-3.4588-.7454-2.6551-2.0827-5.1069-3.9115-7.17105l.2173-.1992.1992-.12676c1.8972 2.09801 3.2798 4.60901 4.0382 7.33411l.163.5613c.7787 2.5896 1.4125 4.5635 1.8109 5.9397.3441.833.5614 1.4669.7062 1.8834z" fill="#649c8d"/><path d="m31.6578 13.1913c-.2141.4337-.4952.8309-.8331 1.177l-.67.6701c-.5976.5794-1.1771 1.1951-1.8109 1.8108-.9524 1.1409-1.8181 2.3515-2.5895 3.6218-.7405 1.2627-1.3648 2.5901-1.8652 3.9658h-2.0282c.5713-3.5271 1.6765-6.9466 3.2777-10.1409 1.0141-1.8109 3.1147-5.07048 5.7767-3.6218.1695.0879.3226.2043.4527.3441.2573.233.4294.5453.489.8873.063.4389-.0064.8866-.1992 1.2858z" fill="#81b7a9"/><path d="m31.4223 11.0544c-.8511.9055-2.499 2.6801-4.7264 5.2516-1.8033 2.1343-3.103 4.6471-3.8028 7.3522l-.1992.8149h-.6157c.1358-.6125.305-1.217.507-1.8109v-.1992c.7654-2.3689 1.9968-4.5608 3.6218-6.4468 2.1912-2.5352 3.821-4.2918 4.6902-5.2334.1517.0765.2919.1741.4165.2897z" fill="#649c8d"/></g></svg>