<svg fill="none" height="44" viewBox="0 0 44 44" width="44" xmlns="http://www.w3.org/2000/svg" xmlns:xlink="http://www.w3.org/1999/xlink"><clipPath id="a"><rect height="44" rx="22" width="44"/></clipPath><g clip-path="url(#a)"><rect fill="#fff" height="44" rx="22" width="44"/><path d="m12.1878 33.7767c-1.3611-3.4659-1.8377-17.9173-1.8377-17.9173h.804s1.8243 14.2565 2.8713 16.3093c1.0471 2.0528 9.3033 3.5605 9.3033 3.5605v5.0599s-9.7799-3.5465-11.1409-7.0124z" fill="#a66b46"/><path d="m30.0596 29.5508c.9499-2.0582 1.2825-10.6398 1.2825-10.6398h-.5611s-1.2732 8.4659-2.004 9.6849c-.7307 1.219-6.4928 2.1143-6.4928 2.1143v3.0047s6.8255-2.106 7.7754-4.1641z" fill="#815032"/><path d="m18.0313 19.5504c2.2417 11.0423-.934 36.7729-2.8021 48.258 2.5945 6.5382 15.3595 2.5945 14.0104 0-1.0793-2.0756-3.9091-43.1381-5.1891-63.40993-2.9404.44972-8.2609 4.10971-6.0192 15.15193z" fill="#a66b46"/><path d="m19.5488 50.7769c-.0718-1.5259 1.298-7.5096 3.8651-5.2487 1.7621 1.5519 2.6077 10.4435-.3073 11.8103-3.506 1.6439-2.7186-9.6543-1.2645-10.1956 3.0464-1.134 2.1735 9.8017.7356 7.4829-.525-.8468-.6455-2.0577-.5965-3.0295.0211.704.175 1.4119.4232 2.0702 1.1021 2.9232.8091-3.3916.7454-4.1146-.0011-.0127-.6407-2.6032-1.107-1.8541-.7754 1.2455-1.5972 9.2881.0885 9.4744 3.6163.3994 2.4782-10.3876.7394-11.4787-2.0961-1.3155-3.3111 3.8908-3.3219 5.0834z" fill="#815032"/><path d="m35.7567 2.95192c0 12.62078-9.5538 22.85188-21.3389 22.85188-11.78506 0-23.48922-6.1224-24.8992-22.85188-1.41-16.72942 6.94785-26.95192 18.73295-26.95192 11.78515 0 27.50515 14.33119 27.50515 26.95192z" fill="#7fac45"/><path d="m55.1842 10.2979c-2.3141 12.5278-9.959 14.891-21.7441 14.891s-21.3388-8.0264-21.3388-17.92743c0-9.90106 12.9678-20.69167 24.7529-20.69167s20.644 11.20042 18.33 23.7281z" fill="#7fac45"/><g fill="#5f872c" opacity=".34"><path d="m34.439 9.33394c.6826.00566 1.3637-.27389 1.8502-.82636.4865-.55248.6777-1.26346.5858-1.93982-.6826-.00566-1.3637.27387-1.8502.82635s-.6777 1.26347-.5858 1.93983z"/><path d="m34.4514 9.32791c.5265-.43441.8685-1.08635.8861-1.8223s-.293-1.40347-.7982-1.8625c-.5265.43441-.8686 1.08635-.8861 1.8223-.0176.73595.293 1.40346.7982 1.8625z"/><path d="m34.4513 9.32789c.3644-.57721.9678-.99897 1.6956-1.10947.7279-.11049 1.4293.11316 1.9485.55623-.3643.57721-.9677.999-1.6956 1.10949-.7278.1105-1.4292-.11318-1.9485-.55625z"/></g><path d="m11.032 26.7861c-.0344-.3242-.1032-.9766-.1031-.9925h1.6712l.131.794s-.2262-.2144-.8773-.1231-.8218.3216-.8218.3216z" fill="#a66b46" opacity=".5"/><path d="m18.7834 27.0258-.1515-2.3736c1.6607-.4492 5.1513-1.4519 5.3785-1.6876.5657.5051 1.2154-.0934 1.3172.6947l.2071 3.2432c-3.1716-1.6565-5.8423-.6426-6.7513.1233z" fill="#894c2c" opacity=".5"/><path d="m30.8969 25.1747-1.1958-.0684-.2143 1.053c.0715-.0259.2988-.0727.6368-.0528.3379.0198.5632.1511.6336.2143z" fill="#894c2c" opacity=".5"/><path d="m19.6945 38.0479c-.7124.9568-4.3925-1.2206-5.8189-2.1904.5614.7679 5.3359 3.2765 5.6267 3.2765 1.4046-.2849 1.2267-2.6403.9128-3.6581.0255.3816-.0081 1.6153-.7206 2.572z" fill="#7f4529"/><g fill="#6f9938"><path d="m24.0336 23.3575c-2.8896 1.5646-6.1566 2.4461-9.6158 2.4461-11.4267 0-22.77727-5.7556-24.7424-21.3547 1.4963 5.42392 5.10503 12.3887 8.52119 12.6818.821328.0137.867748-2.5543.75204-4.1763.346505 1.9553 1.970586 6.2601 5.69807 7.8889.46323.164.93852.3138 1.42623.4485 2.70833.4815 3.73563-1.7136 3.90927-3.0524.6013 3.8638 5.356 3.5238 8.407 2.6834 6.395-3.0432 7.3711-11.1091 7.3057-15.46632.3483 5.99902 1.3249 17.18332 14.8553 15.34672.2245-.0117.4451-.025.6621-.0399 1.8074-.2038 4.3972-1.1837 5.4107-2.8596.9503-1.5714 1.5887-3.6916 1.754-4.8039-.1939 2.535.3133 5.7866 1.555 5.073 2.4882-1.8394 3.9711-4.7234 5.4253-8.96033-.0485.36051-.1062.72236-.1732 1.08533-2.314 12.5277-9.959 14.891-21.7441 14.891-3.3759 0-6.5688-.6587-9.4064-1.8313z"/><path d="m48.4193 12.6537c-.0166.1455-.0307.2945-.0423.4461.0261-.176.0405-.3268.0423-.4461z"/><path d="m25.6949 5.45648c-.009-.15494-.0176-.30642-.026-.45413-.0408-.72096-.0765-1.35204-.131-1.85677.0719.5036.1419 1.30925.157 2.3109z"/></g></g></svg>