<svg fill="none" height="44" viewBox="0 0 44 44" width="44" xmlns="http://www.w3.org/2000/svg" xmlns:xlink="http://www.w3.org/1999/xlink"><clipPath id="a"><rect height="44" rx="22" width="44"/></clipPath><g clip-path="url(#a)"><rect fill="#fff" height="44" rx="22" width="44"/><path d="m46.0393 31.8548h-.3463c-2.0778-.011-4.1367.3902-6.0546 1.1798-.0453-.0422-.0931-.0816-.1433-.118-.5613-.4483-1.2659-.5073-1.5525-.1416-.0931.1523-.1362.3293-.1234.5068s.081.3466.1951.4843c-1.1606.6059-2.2568 1.3253-3.2721 2.1472-1.0868-.7786-2.1018-1.1798-2.3885-.8612-.2866.3185.2508 1.0146 1.0987 1.7933-1.4176.9433-2.9832 1.6489-4.6335 2.0882-.1213-.2439-.2969-.4577-.5135-.6253-.5732-.4483-1.2659-.5073-1.5644-.1415-.0973.177-.1347.3801-.1068.5797.0279.1995.1198.385.262.5293-1.901.1857-3.8196-.073-5.6008-.7551l-.2508-.1062v-.1887c-.2279-1.7942.0653-3.6154.8456-5.2511s2.0153-3.0185 3.561-3.9868c-.0155.4618.1108.9174.3623 1.307s.6165.6948 1.0469.8756c0 0 .6807 0 .2627-1.3214-.1037-.5854-.1037-1.1842 0-1.7697 1.6137-.7284 3.3217-1.2326 5.0754-1.4983-.1722.4273-.2381.8892-.1924 1.347s.2018.898.4551 1.2839c.0288.0337.0662.0592.1083.0739.0421.0146.0874.0179.1312.0095s.0846-.0282.1181-.0574c.0334-.0292.0584-.0667.0723-.1086.0464-.2654.0464-.5368 0-.8022-.021-.6661.1487-1.3245.4897-1.8995 2.2041-.2036 4.4273.0208 6.5442.6607-.3871.2401-.6814.6015-.8359 1.0264-.0176.0411-.0231.0863-.0158.1303.0074.044.0272.0851.0572.1184.03.0334.069.0576.1124.07.0433.0124.0894.0123.1328-.0001.2622-.0797.5087-.2034.7284-.3658.3378-.239.7254-.4003 1.1345-.4719 1.8191.8037 3.3565 2.1215 4.4186 3.7872z" fill="#258c7b"/><path d="m21.0088 38.1786c3.5229-2.7844 16.4084-12.3644 24.7439-6.8075l.2866.4719h-.3463c-8.0848-5.6277-20.8747 3.8108-24.3976 6.6541z" fill="#81b7a9"/><path d="m.0386009 14.3701.3343771.0825c1.982532.6127 3.818772 1.6161 5.397802 2.9496.04961-.028.10155-.0516.15524-.0708.6807-.2478 1.37334-.1062 1.52858.3303.04316.1753.02949.3596-.03908.5269-.06857.1672-.18857.3089-.34306.4052.89882.9275 1.69913 1.9435 2.38841 3.0321 1.26583-.413 2.38843-.472 2.48393-.1062.0955.3657-.5493.8848-1.6002 1.3686 1.0638 1.3341 2.3428 2.4861 3.7856 3.4096.1917-.1932.4241-.3422.6807-.4365.6807-.2478 1.3733-.0944 1.5286.3421.1552.4365-.0836.7197-.4896 1.0029 1.7479.7657 3.6564 1.1055 5.5649.991h.2747l.0836-.177c.7878-1.6331 1.084-3.4555.8532-5.2501-.2308-1.7947-.9788-3.486-2.1549-4.8726-.3224.7315-.9434 1.6753-2.0182 1.6399 0 0-.6329-.2478.1672-1.3332.3174-.5188.5359-1.0906.6449-1.6871-1.3136-1.1607-2.7798-2.1409-4.3589-2.9141h-.0955c.0298.4615-.0534.9234-.2426 1.3464-.1891.4231-.4787.7949-.8441 1.084-.0371.0243-.0804.0378-.1249.0391s-.0885-.0097-.1269-.0318c-.0385-.0221-.07-.0543-.0909-.0932-.021-.0388-.0305-.0826-.0275-.1265.0183-.2684.0829-.5318.191-.7787.2405-.6249.2903-1.3058.1433-1.9584-2.0367-.8604-4.22207-1.3251-6.43671-1.3686.2837.3322.45124.746.47768 1.1798.00295.0439-.00657.0877-.02749.1265-.02091.0388-.0524.0711-.09089.0932-.0385.0221-.08248.0331-.12697.0318-.0445-.0013-.08774-.0149-.12485-.0391-.22117-.1565-.41483-.3478-.57322-.5664-.25328-.3105-.57088-.5639-.93148-.7432-1.98091.21-3.85474.994-5.385856 2.2534-.143305.1062-.298551.1888-.4299131.3186z" fill="#258c7b"/><path d="m21.4507 28.221c-2.3884-3.7754-11.61963-16.6589-21.077722-13.7684l-.3343771-.0825c.1313621-.1298.2866081-.2478.4299131-.3658 9.661086-2.7371 18.928086 10.2525 21.388186 14.0279z" fill="#81b7a9"/><path d="m21.2118 49.7525c7.3473 0 13.3034-1.6534 13.3034-3.6928 0-2.0395-5.9561-3.6928-13.3034-3.6928s-13.3034 1.6533-13.3034 3.6928c0 2.0394 5.9561 3.6928 13.3034 3.6928z" fill="#66260c"/><path d="m21.2118 43.5467c6.8786 0 10.9389 1.6163 11.9421 2.513-1.0032.8966-5.0635 2.513-11.9421 2.513s-10.9389-1.6164-11.94201-2.513c1.01511-.8967 5.07541-2.513 11.94201-2.513zm0-2.3596c-8.0011 0-14.4976 2.1826-14.4976 4.8726 0 2.6899 6.4965 4.8726 14.4976 4.8726 8.0012 0 14.4977-2.1827 14.4977-4.9198 0-2.7372-6.4965-4.8254-14.4977-4.8254z" fill="#f98282"/><path d="m19.2414 47.3693c-.1075-.4248-1.8152-10.8661 3.0333-25.8142 1.814-5.0878 1.902-10.6207.2508-15.76225l1.433-.47192c1.8843 5.47647 2.1903 11.36267.8837 17.00107-4.5857 14.252-1.5644 24.7523-1.5405 24.8703z" fill="#cf865f"/><path d="m30.8132 15.2313c-.2985.118.1553.7315.6449 1.286-1.3945.0033-2.7849-.1511-4.1439-.4601l-.3224-.0826v-.0826c-.2354-.9679-.2733-1.9724-.1113-2.9548.162-.9825.5205-1.9232 1.0547-2.7673.5493.8259 1.5047 2.1827 1.8032 1.8877.2986-.2949-.5254-1.9938-.9553-2.8905.7485-.69542 1.6184-1.25104 2.5675-1.63993.5613.83766 1.4331 2.04106 1.7197 1.76971.2866-.27136-.2269-1.2624-.621-2.15905 1.1188-.32973 2.2844-.47717 3.4512-.43653h.9554c.0716.6017.215 1.2506.5135 1.2388.2986-.0118.609-.6371.7643-1.2506 1.7495.03394 3.4891-.26653 5.1231-.88485.1081-.05072.212-.1099.3105-.17697 0 .09438.0597.17697.0836.25956.2801 1.28097.1204 2.6176-.4538 3.79897-.8479.20057-1.9227.51909-1.9465.77869-.0239.2595.6687.3421 1.3852.3303-.2035.3719-.4309.7305-.6807 1.0737-.8 1.1457-1.8485 2.1009-3.0691 2.7961-.7881-.1652-2.2451-.4247-2.472-.1298-.2269.295.3344.5899.9076.8849-1.3886.5537-2.8543.8958-4.3469 1.0146-.7165-.5309-1.8629-1.3214-2.1615-1.2034z" fill="#258c7b"/><path d="m25.3557 17.6971-.3224-.177c.6448-.6017 1.2897-1.1798 1.9226-1.6281 1.6859-1.2735 3.5276-2.3318 5.4814-3.1501 1.3734-.5545 2.472-1.0618 3.4632-1.5573 4.4066-2.25346 6.3532-4.03497 7.1653-5.12039l.191-.25956c.1081-.05072.212-.1099.3105-.17697 0 .09438.0597.17697.0836.25956-.8837 1.28599-2.9258 3.17368-7.6071 5.56866-1.0031.5073-2.1137 1.0147-3.499 1.581-1.8765.7851-3.6458 1.7998-5.2664 3.0203-.6698.5127-1.3116 1.0601-1.9227 1.6399z" fill="#81b7a9"/></g></svg>