<svg fill="none" height="44" viewBox="0 0 44 44" width="44" xmlns="http://www.w3.org/2000/svg" xmlns:xlink="http://www.w3.org/1999/xlink"><clipPath id="a"><rect height="44" rx="22" width="44"/></clipPath><clipPath id="b"><path d="m0 0h138.459v103.956h-138.459z" transform="matrix(.97740003 .21139815 -.21139815 .97740003 -56.6768 -26)"/></clipPath><g clip-path="url(#a)"><rect fill="#fff" height="44" rx="22" width="44"/><g clip-path="url(#b)"><path d="m25.2323 32.1658 8.6784-14.9487c.1547-.267.4025-.4677.6959-.5635.2934-.0959.6119-.0802.8944.044l6.7288 2.9489c.2623.1149.4778.3157.611.5692.1331.2536.1761.5449.1218.8261l-2.584 13.0619z" fill="#231f20"/><path d="m30.6504 22.4006c-.0185.5261-.2098 1.0315-.5444 1.438-.8287 1.0265-1.7529 1.9545-2.5865 3.0033-.8336 1.0487-2.2109 2.6333-3.1358 3.709l-.1081.14-9.8856-1.0491-.0703-2.66 8.5501-.6166c.896-1.5176 2.2229-3.4087 3.0861-4.9178.269-.5626.6955-1.0351 1.2277-1.3602.5905-.2283 1.2454-.2255 1.8341.0077.4975.135.9325.4389 1.2304.8596s.4402.932.4023 1.4461z" fill="#81b7a9"/><path d="m32.4676 20.1488c.3449.1679.7013.3539 1.01.5452.6162.3328 1.1466.8044 1.5491 1.3775.4026.5731.6664 1.232.7705 1.9245.1153 1.3461-.1421 2.6979-.744 3.9074-.3873.8525-.6937 1.7394-.9152 2.6491-.0258.1189-1.3836 5.426-1.3836 5.426l-5.3694-1.2858-4.0595-3.1338c.2935-.9994.6606-1.9756 1.0984-2.9207.4925-1.4984.8021-3.0507.9222-4.6234.0753-.6357.2109-1.2627.4051-1.8727.2392-.7024.665-1.3265 1.2317-1.8055.5668-.4789 1.2531-.7947 1.9856-.9135 1.2108-.0825 2.421.1685 3.4991.7257z" fill="#6d9c8f"/><path d="m33.4682 18.1482c.2308-1.0671-.4472-2.1192-1.5143-2.35s-2.1192.4472-2.35 1.5142l-.4629 2.1402c-.2308 1.0671.4472 2.1192 1.5143 2.35 1.067.2308 2.1192-.4471 2.35-1.5142z" fill="#e5a17f"/><path d="m35.5394 25.2238c.0245-.5146-.1259-1.0222-.4267-1.4404s-.7343-.7222-1.2299-.8626l-.3939-.0852c-.3349-.0972-.6878-.1162-1.0312-.0556-.3435.0605-.6686.1991-.9501.4049l-4.4887 5.2523-6.3362-1.9228-.3193 2.5913 7.7076 3.674 6.4619-5.7434c.299-.2011.5461-.4702.7211-.7853.175-.315.2728-.6671.2854-1.0272z" fill="#81b7a9"/><path d="m19.1654 26.0851-.3077 2.3216 1.5025.7139.3193-2.5913z" fill="#ffbe9e"/><path d="m33.9005 16.1492.706.1527c.2976.0644.5574.2443.7224.5003.1649.2559.2214.5669.157.8645-.0677.2942-.2486.5499-.5034.7117s-.5632.2167-.8582.1529l-.706-.1527z" fill="#ffbe9e"/><path d="m28.2374 14.3876-.224.4961c-.2318.5139-.3523 1.0711-.3536 1.6349-.0022 2.2398.6501 3.2521 2.7686 3.6714 1.8504.4002 3.3314-1.5198 3.8922-2.3864.1449-.221.2595-.4604.3406-.712.1555-.5031.3078-.9913.4404-1.4605l-6.8813-1.4883c.0005.0819.0061.1637.0171.2448z" fill="#ffbe9e"/><path d="m32.694 13.9591c-.0575.0498-.4171 1.2089-.4171 1.2089l.5162.5628c.2449.2574.3875.5952.4012.9502l.0206.5879.415-.1203.4785-.5577.9815-.1144.2797-1.293z" fill="#414042"/><path d="m32.4697 10.1768c-2.8922-.72669-3.5739.915-3.999 2.161l7.342 1.588c.1482-1.656-.4822-3.0214-3.343-3.749z" fill="#270e78"/><path d="m35.917 13.8394-7.7285-1.6715c-.0992-.0215-.2029-.0032-.2888.0509-.0859.0542-.1471.1399-.1706.2387l-.2394 1.1072c-.0096.049-.0095.0994.0004.1484.0099.0489.0294.0954.0573.1369.0279.0414.0636.0769.1052.1045s.0883.0467.1373.0563l7.7285 1.6716c.0482.0114.0982.0132.1471.005.0489-.0081.0957-.0259.1377-.0523.0419-.0264.0781-.061.1065-.1016.0285-.0406.0485-.0865.059-.1349l.2346-1.085c.014-.0499.0176-.1023.0107-.1537-.007-.0514-.0245-.1009-.0513-.1453s-.0625-.0829-.1047-.113c-.0423-.0301-.0903-.0513-.141-.0622z" fill="#4d20b2"/><path d="m-25.4316 28.7145 24.902713-8.0324 1.713847 8.764-22.25966 6.8538z" fill="#ffbb27"/><path d="m-16.9492 34.0573-7.5652 20.7357 20.42491 11.2319 3.725756-22.0095z" fill="#c98b1e"/><path d="m11.3579 24.8866 2.088-2.7844c.1426-.1925.3506-.3261.5849-.3757.2342-.0497.4786-.0119.6869.1062l4.3825 2.5037c.1808.1035.3239.2619.4086.4523.0847.1903.1066.4027.0625.6063l-.7184 3.3218z" fill="#231f20"/><path d="m3.67436 27.7909 3.19184-5.7661 14.3753 6.9053-1.3099 6.0564z" fill="#58595b"/><path d="m21.0362 29.3757c.2453.0531 19.8273 1.3713 19.8273 1.3713l-.2008 7.5098-9.9746 12.2024-13.2912-.6966z" fill="#c9941f"/><path d="m49.7098 48.5058-48.19716-2.4121 1.635 4.4531c7.01596.5062 36.06306 2.3002 44.63106 2.8232z" fill="#ba811c"/><path d="m34.2763 55.1247c.5083-2.3496 1.5752-4.5421 3.1105-6.392 1.5352-1.8499 3.4935-3.3026 5.7092-4.2352s4.6234-1.3177 7.0194-1.1225c2.396.1951 4.7098.9647 6.7453 2.2435-1.7749-2.1388-4.063-3.7929-6.6505-4.8077s-5.39-1.3573-8.1458-.9955c-2.7557.3619-5.3748 1.4163-7.6126 3.0648-2.2377 1.6484-4.0212 3.8371-5.1838 6.3617s-1.6664 5.3026-1.4643 8.0747c.2021 2.772 1.1034 5.4476 2.6199 7.7769 1.5164 2.3292 3.5985 4.2361 6.0517 5.5426s5.1975 1.9699 7.9766 1.9283c-3.5694-1.1085-6.5939-3.5139-8.4774-6.7421-1.8836-3.2281-2.4894-7.0447-1.6982-10.6975z" fill="#494c50"/><path d="m60.2931 59.6005c.5257-2.4361.4895-4.96-.1057-7.3801-.5953-2.4201-1.7341-4.6727-3.3299-6.587-1.801-1.128-3.8218-1.8593-5.9276-2.145s-4.2484-.1194-6.2849.488c-2.0365.6073-3.9202 1.6417-5.5255 3.0343-1.6053 1.3925-2.8954 3.1112-3.7843 5.0415-.889 1.9303-1.3563 4.0278-1.3709 6.1529s.4239 4.2289 1.2863 6.1712c.8623 1.9423 2.1287 3.6785 3.7147 5.093 1.5861 1.4144 3.4554 2.4746 5.4833 3.1098 3.7196-.0524 7.3116-1.3643 10.1894-3.7216 2.8777-2.3573 4.8713-5.6205 5.6551-9.257z" fill="#393b3e"/><path d="m49.1386 36.7607c-.3912-1.7882-3.515-25.5047-3.515-25.5047l-8.4652-.423 1.3939 26.6796z" stroke="#414042" stroke-miterlimit="10" stroke-width="2.28091"/><path d="m21.8998 29.8425 4.8143-20.28051 10.4798 1.28651 1.052 20.0247z" stroke="#414042" stroke-miterlimit="10" stroke-width="2.28091"/><path d="m26.7141 9.56199s-11.4972-4.71142-11.5936-4.26555c-.0964.44588-11.31796 21.82986-11.31796 21.82986l17.08276 7.3352z" stroke="#414042" stroke-miterlimit="10" stroke-width="2.28091"/><path d="m-.757632 29.5082c2.409132.5211 4.784532-1.0095 5.305592-3.4186.52106-2.4092-1.00953-4.7845-3.41866-5.3056-2.40914-.5211-4.78453 1.0095-5.30559 3.4186-.52106 2.4092 1.00952 4.7846 3.418658 5.3056z" fill="#ffbb27"/><path d="m50.1421 7.34037-23.8003-1.63165-1.2376 5.72208 22.7025 1.7442z" fill="#d99621"/><path d="m2.22335 26.2636-19.16935 7.7789 16.583881 9.9655 21.484519-8.5928z" fill="#e4a723"/><path d="m21.1224 35.4152-21.484521 8.5928-3.725759 22.0095 20.68038-2.9326z" fill="#d99621"/><path d="m25.1042 11.4308-11.4293-4.95347-2.1382-5.938771 14.8051 5.170171z" fill="#e4a723"/><g fill="#ffbb27"><path d="m11.5367.538557 24.042 1.053833 14.5634 5.74798-23.8003-1.63164z"/><path d="m23.5659 50.2645 9.1054 3.3618s3.0063-16.2376 24.9139-11.4293l3.0348-6.119s-27.6136-9.1773-37.0541 14.1865z"/><path d="m14.8451 36.6012c2.4091.521 4.7845-1.0096 5.3055-3.4187.5211-2.4091-1.0095-4.7845-3.4186-5.3056-2.4091-.521-4.7845 1.0095-5.3056 3.4187-.5211 2.4091 1.0095 4.7845 3.4187 5.3056z"/><path d="m-9.96285 35.8873c.62063-.208 24.87295-8.0388 24.87295-8.0388l1.7139 8.764-22.21573 6.9022z"/></g><path d="m-7.01193 58.6408c.8406-3.877 3.18641-7.2615 6.521694-9.4094 3.335286-2.1479 7.387016-2.8833 11.264436-2.0447 1.7019.3631 3.3259 1.0251 4.7967 1.9554-1.7742-2.1405-4.0621-3.7962-6.64979-4.8124-2.58772-1.0163-5.39085-1.3599-8.147429-.9988-2.756581.3611-5.376621 1.4151-7.615291 3.0635-2.23868 1.6485-4.02289 3.8376-5.18599 6.3628-1.163 2.5251-1.6669 5.3039-1.4645 8.0767.2023 2.7727 1.1043 5.4489 2.6216 7.7785 1.51731 2.3296 3.60045 4.2364 6.05472 5.5424 2.45428 1.306 5.199588 1.9685 7.97938 1.9256-3.568306-1.11-6.59176-3.5157-8.47505-6.7434-1.88328-3.2277-2.48993-7.0436-1.70048-10.6962z" fill="#494c50"/><path d="m19.0113 63.0869c.5274-2.4361.4921-4.9604-.1032-7.3807-.5954-2.4204-1.7351-4.673-3.3324-6.5864-1.4707-.9302-3.0948-1.5923-4.7967-1.9554-3.76209-.8093-7.69136-.1372-10.970633 1.8764-3.279277 2.0136-5.656167 5.2138-6.636337 8.9351-.98017 3.7212-.48819 7.6771 1.37363 11.0449 1.86181 3.3677 4.950162 5.8882 8.62277 7.0373 3.71905-.0497 7.31117-1.3598 10.18907-3.716 2.8778-2.3562 4.8711-5.6191 5.6538-9.2552z" fill="#393b3e"/><path d="m30.4357 16.0922c.2011.0435.3994-.0843.4429-.2854s-.0843-.3994-.2854-.4429-.3994.0843-.4429.2854.0843.3994.2854.4429z" fill="#231f20"/><path d="m28.4293 15.6582c.2011.0435.3994-.0843.4429-.2854s-.0843-.3994-.2854-.4429-.3994.0843-.4429.2854.0843.3994.2854.4429z" fill="#231f20"/><path d="m29.1797 15.0659-2.2821 1.8479 2.1699.4693z" fill="#e5a17f"/></g></g></svg>