<svg fill="none" height="44" viewBox="0 0 44 44" width="44" xmlns="http://www.w3.org/2000/svg"><rect fill="#fff" height="44" rx="22" width="44"/><path d="m31.6895 22.7932c-.849-.553-1.3365-1.514-1.3365-2.5273 0-6.6885-2.8993-12.11059-8.1325-12.11055s-8.1326 5.42205-8.1326 12.11055c0 1.0133-.4874 1.9743-1.3364 2.5273-2.3008 1.4986-3.71697 2.9704-3.71697 5.7118 0 5.5972 5.90357 7.7725 13.18597 7.7725s13.1859-2.1753 13.1859-7.7725c0-2.7414-1.4162-4.2132-3.7169-5.7118z" fill="#dcb78b"/><path d="m12.8708 19.8277c-3.06654-.1331-6.98992-6.7432-4.38243-9.5782 2.60753-2.83506 10.34053-1.13924 8.57683.9636-1.7637 2.1028-1.1279 8.7477-4.1944 8.6146z" fill="#9a7951"/><path d="m31.6933 19.8277c3.0665-.1331 6.9899-6.7432 4.3824-9.5782-2.6075-2.83506-10.3405-1.13924-8.5768.9636 1.7636 2.1028 1.1278 8.7477 4.1944 8.6146z" fill="#9a7951"/><path d="m22.4315 24.8753c.1299 0 .2352.1052.2352.2351v1.7542c0 .2479.0205.4963.0877.735.1854.6593.5545 1.4989 1.1524 2.2166.717.8606 1.7555 1.5392 3.2075 1.5392.7259 0 1.2534-.1867 1.6375-.4739.3855-.2884.6449-.6918.809-1.155.3158-.8909.2667-1.9693.1106-2.7346-.1441.002-.2975.022-.4594.0647-.1255.0331-.2542-.0418-.2873-.1674-.0332-.1255.0418-.2541.1673-.2873 1.2592-.3323 2.1172.4314 2.3939.865.0698.1095.0377.2549-.0718.3247-.1094.0698-.2548.0377-.3246-.0718-.1318-.2065-.453-.5263-.9271-.6627.1419.8042.1732 1.891-.1584 2.8265-.1873.5287-.494 1.018-.9706 1.3744-.4781.3576-1.1088.5676-1.9191.5676-1.6202 0-2.7826-.7648-3.5688-1.7084-.5139-.6168-.8701-1.3129-1.0955-1.9314-.0061.0005-.0122.0007-.0185.0007-.0062 0-.0123-.0002-.0184-.0007-.2254.6185-.5816 1.3146-1.0955 1.9314-.7862.9436-1.9486 1.7084-3.5688 1.7084-.8103 0-1.441-.21-1.9191-.5676-.4766-.3564-.7833-.8457-.9706-1.3744-.3316-.9355-.3003-2.0222-.1584-2.8265-.4741.1365-.7953.4563-.9271.6628-.0698.1095-.2152.1416-.3246.0718-.1095-.0699-.1416-.2152-.0718-.3247.2767-.4337 1.1347-1.1973 2.3939-.865.1255.0331.2004.1618.1673.2873-.0331.1256-.1618.2005-.2873.1674-.1619-.0428-.3153-.0627-.4595-.0647-.156.7652-.2051 1.8436.1107 2.7345.1641.4632.4235.8666.809 1.155.3841.2872.9116.4739 1.6375.4739 1.452 0 2.4905-.6786 3.2075-1.5392.5979-.7177.967-1.5573 1.1524-2.2166.0672-.2387.0877-.4871.0877-.735v-1.7542c0-.1299.1053-.2351.2351-.2351z" fill="#bd915e"/><path d="m28.9568 18.813c-.0464 2.5317-1.1613 1.8581-2.8801 2.973-1.7187 1.1149-3.3214-1.669-3.3214-3.7279 0-2.0588.3604-3.7279 1.9511-3.7279 1.5906 0 4.2969 1.9511 4.2504 4.4828z" fill="#b38c5e"/><ellipse cx="25.0734" cy="18.5196" fill="#000" rx="1.13681" ry="1.82701"/><ellipse cx="25.7187" cy="17.0167" fill="#fff" rx=".339117" ry=".324175"/><ellipse cx="19.5455" cy="18.5195" fill="#000" rx="1.13681" ry="1.82701"/><ellipse cx="20.1907" cy="17.0167" fill="#fff" rx=".339117" ry=".324175"/><path d="m18.0773 14.6274c-.0858-.4155 1.5041-1.3238 2.3719-1.8074s1.2247.3125.689.9134c-.7164.8035-2.9752 1.3095-3.0609.894z" fill="#000"/><path d="m26.5492 13.7741c.0857-.4155-1.5042-1.3238-2.372-1.8074s-1.2247.3125-.6889.9134c.7163.8035 2.9752 1.3095 3.0609.894z" fill="#000"/><path d="m27.5279 23.9047c0 1.5626-2.272 2.8295-5.0746 2.8295s-5.0746-1.2669-5.0746-2.8295c0-1.5627 2.272-1.4176 5.0746-1.4176s5.0746-.1451 5.0746 1.4176z" fill="#000"/><path d="m18.3543 23.0982c.5273-.2764 1.8857-.2736 3.5352-.2702.1846.0003.3728.0007.564.0007.1911 0 .3794-.0004.564-.0007 1.6495-.0034 3.0078-.0062 3.5352.2702-.5864.4595-2.2002.7896-4.0992.7896s-3.5128-.3301-4.0992-.7896z" fill="#eedbc5" opacity=".4"/><path d="m21.2889 9.41347c-.8243-.49166-.3956-3.48841.3843-3.46501.7798.0234.4399 1.49836.4399 1.49836.6252-1.07173.9337-1.59277 1.5473-1.16408.6137.42869-.4011 1.45204-.6869 1.80035.8038-.50014 1.1867-1.20132 1.6201-.41986s-1.0777 1.98893-3.3047 1.75024z" fill="#8d6e61"/><path d="m25.6595 32.7129c0 .902-1.4453 1.6331-3.2282 1.6331s-3.2282-.7311-3.2282-1.6331" stroke="#bd915e" stroke-linecap="round" stroke-width=".515625"/><g fill="#ad8352"><ellipse cx="29.039" cy="24.442" rx=".435032" ry=".290627"/><ellipse cx="29.9092" cy="25.1666" rx=".435032" ry=".290627"/><ellipse cx="31.0058" cy="24.609" rx=".435032" ry=".290627"/><ellipse cx=".435032" cy=".290627" rx=".435032" ry=".290627" transform="matrix(-1 0 0 1 16.2588 24.1514)"/><ellipse cx=".435032" cy=".290627" rx=".435032" ry=".290627" transform="matrix(-1 0 0 1 15.3887 24.876)"/><ellipse cx=".435032" cy=".290627" rx=".435032" ry=".290627" transform="matrix(-1 0 0 1 14.2915 24.3184)"/></g></svg>