<svg fill="none" height="44" viewBox="0 0 44 44" width="44" xmlns="http://www.w3.org/2000/svg"><rect fill="#fff" height="44" rx="22" width="44"/><path d="m35.0323 8.27628c-1.8937-1.68324-8.1009 4.89202-8.3113 5.10252-.8942 3.4192 4.4187 6.8384 6.7858 6.1546 2.3672-.6839 3.4192-9.57388 1.5255-11.25712z" fill="#dcb78b"/><path clip-rule="evenodd" d="m28.1752 17.3573c1.5688 1.5783 3.9511 2.5749 5.3316 2.1761 2.3671-.6838 3.4192-9.5738 1.5255-11.25704-.3938-.34998-.974-.34294-1.648-.11031-2.7412 1.85895-4.4139 6.36175-5.2091 9.19125z" fill="#a87668" fill-rule="evenodd"/><path d="m8.96769 8.8123c1.89371-1.68325 8.10091 4.892 8.31131 5.1025.8942 3.4193-4.4187 6.8384-6.7858 6.1546-2.36716-.6839-3.41922-9.5739-1.52551-11.2571z" fill="#dcb78b"/><path clip-rule="evenodd" d="m15.8248 17.8933c-1.5688 1.5783-3.9511 2.5749-5.3316 2.1761-2.3671-.6839-3.41917-9.5739-1.52545-11.25711.39369-.34994.97381-.34294 1.64775-.1104 2.7413 1.85881 4.414 6.36181 5.2093 9.19141z" fill="#a87668" fill-rule="evenodd"/><path d="m20.9495 12.9215v.0068c-4.3873-.0776-11.66775 2.0826-12.40028 8.1682-.03769.3132-.07584.6183-.11351.9159l-.05233.4117c-.57593 4.5243-.92595 7.2735 2.53502 9.9833 2.0739 1.6238 5.6222 3.4188 11.0641 3.4188-.0003-.005-.0006-.0101-.0009-.0155.003 0 .0059.0003.0088.0003.0094 0 .0187.0009.0279.0009-.0003.0048-.0005.0096-.0008.0143 5.4419 0 8.9902-1.795 11.0641-3.4188 3.461-2.7098 3.111-5.459 2.535-9.9833-.0543-.4263-.1105-.8684-.1658-1.3276-.7326-6.0856-8.0131-8.2458-12.4003-8.1682v-.0068z" fill="#dcb78b"/><path clip-rule="evenodd" d="m31.7612 33.4087c.3776-.7897.5831-1.6397.5831-2.5253 0-4.1752-4.568-7.5599-10.203-7.5599-5.6349 0-10.2029 3.3847-10.2029 7.5599 0 .8856.2055 1.7356.5831 2.5253 2.1434 1.2818 5.2739 2.4175 9.6023 2.4175l-.0008-.0155.0088.0003c.0047 0 .0093.0002.014.0004.0046.0002.0092.0005.0138.0005l-.0008.0143c4.3284 0 7.4589-1.1357 9.6024-2.4175z" fill="#fff" fill-rule="evenodd" opacity=".5"/><path d="m22 27.0698v2.4217c.4709.4844 4.3454 2.4863 5.8108-1.4973" stroke="#9a7951" stroke-linecap="round" stroke-width=".3057"/><path d="m26.7951 27.5828c.3956.0036 1.2968.2211 1.7362 1.0626" stroke="#9a7951" stroke-linecap="round" stroke-width=".3057"/><path d="m22 27.0698v2.4217c-.4709.4844-4.3454 2.4863-5.8108-1.4973" stroke="#9a7951" stroke-linecap="round" stroke-width=".3057"/><path d="m17.2049 27.5828c-.3957.0036-1.2968.2211-1.7362 1.0626" stroke="#9a7951" stroke-linecap="round" stroke-width=".3057"/><path d="m14.945 17.2468c-.0978-.4744 1.7175-1.5115 2.7084-2.0637s1.3984.3568.7867 1.0429c-.818.9175-3.3972 1.4953-3.4951 1.0208z" fill="#000"/><path d="m29.055 17.2469c.0978-.4745-1.7175-1.5116-2.7084-2.0638-.9909-.5521-1.3984.3568-.7867 1.043.818.9175 3.3972 1.4952 3.4951 1.0208z" fill="#000"/><path clip-rule="evenodd" d="m30.8052 22.6052c.0215-.1418.0326-.2868.0326-.4342 0-1.7054-1.4847-3.0878-3.3161-3.0878s-3.316 1.3824-3.316 3.0878c0 .1474.011.2923.0325.4342.2266-1.4998 1.6104-2.6537 3.2835-2.6537 1.6732 0 3.0569 1.1539 3.2835 2.6537z" fill="#000" fill-rule="evenodd"/><path clip-rule="evenodd" d="m19.7619 22.6052c.0214-.1418.0325-.2868.0325-.4341 0-1.7054-1.4847-3.0879-3.3161-3.0879s-3.316 1.3825-3.316 3.0879c0 .1473.011.2923.0325.4341.2266-1.4999 1.6103-2.6538 3.2835-2.6538s3.0569 1.1539 3.2836 2.6538z" fill="#000" fill-rule="evenodd"/><g fill="#797979"><path d="m6.76593 30.3498c3.10304-2.7762 7.14227-4.7267 11.40827-4.3166.5448.0524.4268.3538 0 .3153-2.9964-.2704-5.9714.601-8.56713 2.063-1.00003.5632-1.95123 1.2136-2.84114 1.9383z"/><path d="m6.166 27.7673c3.55752-2.1635 7.8848-3.3442 12.0044-2.1626.5261.1509.3551.4258-.0575.31-2.8968-.8126-5.9808-.4986-8.79977.4651-1.08601.3713-2.13993.8373-3.14713 1.3875z"/><path d="m7.53859 32.7588c2.56341-3.281 6.19421-5.9148 10.46561-6.2652.5455-.0448.4826.2728.0557.3103-2.997.2635-5.7711 1.6471-8.06755 3.5449-.88472.7311-1.70596 1.5395-2.45376 2.41z"/><path d="m37.2341 30.3499c-3.1031-2.7762-7.1423-4.7268-11.4083-4.3166-.5448.0523-.4268.3537 0 .3152 2.9964-.2704 5.9714.6011 8.5671 2.063 1.0001.5633 1.9513 1.2137 2.8412 1.9384z"/><path d="m37.834 27.7672c-3.5575-2.1634-7.8848-3.3442-12.0044-2.1625-.5261.1509-.3551.4257.0575.3099 2.8968-.8126 5.9808-.4986 8.7998.4652 1.086.3713 2.1399.8372 3.1471 1.3874z"/><path d="m36.4614 32.7585c-2.5634-3.281-6.1942-5.9148-10.4656-6.2652-.5455-.0448-.4826.2727-.0557.3103 2.997.2635 5.7711 1.6471 8.0675 3.5448.8848.7312 1.706 1.5395 2.4538 2.4101z"/></g><path clip-rule="evenodd" d="m19.6554 25.716c.1439-.1167.4633-.1161.7881.0151.389.1573.6384.4424.5571.637-.0108.0258-.0268.0486-.0474.0686.5535.4546.9992 1.0784 1.0468 1.146.0476-.0676.4933-.6914 1.0468-1.146-.0206-.02-.0366-.0428-.0474-.0686-.0813-.1946.1681-.4797.5571-.637.3248-.1312.6442-.1318.7881-.0151.0368-.0167.0736-.0333.1103-.0498l.0007-.0003c.6929-.3124 1.3648-.9324 1.2732-1.127 0-.872-7.4576-.8991-7.4576 0-.0917.1946.5803.8146 1.2732 1.127l.0007.0003c.0367.0165.0735.0331.1103.0498z" fill="#bc6d5c" fill-rule="evenodd"/><path clip-rule="evenodd" d="m18.3122 24.4484c.4646-.7762 6.9286-.7543 7.4038.0006-.6255.2654-2.0473.3264-3.7013.3264-1.6551 0-3.0777-.0611-3.7025-.327z" fill="#f69e8b" fill-rule="evenodd"/><path clip-rule="evenodd" d="m26.2384 31.5496c-.2019 1.1157-1.9591 1.9879-4.0971 1.9879-2.1379 0-3.8952-.8722-4.097-1.9879-.0128.0707-.0194.1423-.0194.2148 0 1.2166 1.843 2.2028 4.1164 2.2028s4.1164-.9862 4.1164-2.2028c0-.0725-.0066-.1441-.0193-.2148z" fill="#d0b89d" fill-rule="evenodd"/><path d="m24.2785 12.9716-2.2731 3.9371-2.284-3.9559c.3791-.0227.7447-.0307 1.0922-.0245v-.0068h2.101v.0068c.4298-.0074.8874.0063 1.3639.0433z" fill="#9a7951"/><path d="m32.0785 23.1967 3.3687-2.1693.2102 1.8846z" fill="#9a7951"/><path d="m32.3259 24.6704 3.4717-.7805.1571 1.878z" fill="#9a7951"/><path d="m11.9214 23.1967-3.36864-2.1693-.21022 1.8846z" fill="#9a7951"/><path d="m11.674 24.6704-3.47161-.7805-.15709 1.878z" fill="#9a7951"/></svg>