<svg fill="none" height="44" viewBox="0 0 44 44" width="44" xmlns="http://www.w3.org/2000/svg"><rect fill="#fdfdfd" height="44" rx="22" width="44"/><path d="m32.5346 17.7536c0 5.1947 8.6952 18.6861-10.5346 18.6861-19.22986 0-10.5346-13.4914-10.5346-18.6861 0-5.1948 4.7165-9.40593 10.5346-9.40593s10.5346 4.21113 10.5346 9.40593z" fill="#4e69cb"/><path d="m17.3468 24.1787c-2.4428 0-4.4232-2.5973-4.4232-5.8016 0-3.2044 1.9804-5.8017 4.4232-5.8017 1.6851 0 3.1501 1.236 3.8968 3.0543.1324.3224.4466.5397.7951.5397s.6626-.2173.795-.5397c.7468-1.8183 2.2118-3.0543 3.8968-3.0543 2.4429 0 4.4232 2.5973 4.4232 5.8017 0 3.2043-1.9803 5.8016-4.4232 5.8016-4.6065 0-4.7772 0-9.3837 0z" fill="#fffbd7"/><ellipse cx="26.4258" cy="17.6283" fill="#000" rx="2.07147" ry="2.93781"/><ellipse cx="27.6182" cy="15.4676" fill="#fff" rx=".547822" ry=".776933"/><ellipse cx="17.5742" cy="17.6282" fill="#000" rx="2.07147" ry="2.93781"/><ellipse cx="18.7666" cy="15.4674" fill="#fff" rx=".547822" ry=".776933"/><path d="m23.1198 6.51875c0 1.62249-.5906 3.91715-1.3192 3.91715s-1.3192-2.29466-1.3192-3.91715.5906-1.95842 1.3192-1.95842 1.3192.33593 1.3192 1.95842z" fill="#da7806"/><path d="m24.7651 8.45927c-.6397 1.10802-2.056 2.37973-2.6869 2.01543-.631-.3643-.2378-2.22663.4019-3.33465.6397-1.10801 1.2837-1.04211 1.9147-.67782.6309.36429 1.01.88902.3703 1.99704z" fill="#ff8a00"/><path d="m26.889 25.2556c0 1.3737-2.1889 3.3164-4.889 3.3164-2.7002 0-4.8891-1.9427-4.8891-3.3164s2.1889-1.6581 4.8891-1.6581c2.7001 0 4.889.2844 4.889 1.6581z" fill="#c95400"/><path d="m26.889 23.8989c0-1.3736-2.1889-3.3164-4.889-3.3164-2.7002 0-4.8891 1.9428-4.8891 3.3164 0 1.3737 2.1889 1.6581 4.8891 1.6581 2.7001 0 4.889-.2844 4.889-1.6581z" fill="#ff8a00"/></svg>