<svg fill="none" height="45" viewBox="0 0 44 45" width="44" xmlns="http://www.w3.org/2000/svg" xmlns:xlink="http://www.w3.org/1999/xlink"><clipPath id="a"><rect height="44" rx="22" width="44" y=".967773"/></clipPath><clipPath id="b"><path d="m2.46045-2.2281h39.0791v47.3918h-39.0791z"/></clipPath><g clip-path="url(#a)"><rect fill="#fdfdfd" height="44" rx="22" width="44" y=".967773"/><g clip-path="url(#b)"><path clip-rule="evenodd" d="m30.7481 18.2493c.5556-5.5093-2.4015-11.55567-8.6839-11.55567s-9.2396 6.04627-8.6839 11.55567c-.1347-.0304-.2679-.0323-.3968-.0023-.8523.1983-1.1967 1.7119-.7694 3.3807.4205 1.6418 1.4313 2.8221 2.2754 2.671 1.5361 5.0165 5.493 7.1075 7.5747 7.1075s6.0386-2.091 7.5747-7.1075c.8441.1511 1.8549-1.0292 2.2754-2.671.4273-1.6688.0829-3.1824-.7694-3.3807-.1289-.03-.2621-.0281-.3968.0023zm-13.195 11.9354c-.1513-.1207-.3018-.2476-.4508-.3808-.2718 1.8888-.6988 3.8685-1.3379 4.5253-.5456.5607-1.9802.8414-3.6573 1.1696-2.43519.4766-5.38161 1.0532-6.85951 2.7324-2.49568 2.8356-2.78714 6.9324-2.78714 6.9324h39.07905s-.2914-4.0968-2.7871-6.9324c-1.4779-1.6792-4.4243-2.2558-6.8596-2.7324-1.677-.3282-3.1116-.6089-3.6572-1.1696-.6278-.6452-1.0509-2.5668-1.3233-4.4249-.1116.097-.224.1904-.3368.2804-1.5469 1.234-3.2342 1.8543-4.5112 1.8543s-2.9642-.6203-4.5112-1.8543z" fill="#bbb" fill-rule="evenodd"/></g></g></svg>