<svg fill="none" height="45" viewBox="0 0 45 45" width="45" xmlns="http://www.w3.org/2000/svg" xmlns:xlink="http://www.w3.org/1999/xlink"><clipPath id="a"><rect height="44" rx="22" width="44" x=".301758" y=".967773"/></clipPath><g clip-path="url(#a)"><rect fill="#fff" height="44" rx="22" width="44" x=".301758" y=".967773"/><path d="m35.4821 35.6171v2.2124h.059c2.0059 0 3.4219 1.8953 4.0856 2.9941 1.4139 2.5673 2.1023 5.471 1.9912 8.3998-.1328 6.6372-3.4366 11.1432-6.4455 11.1432h-.059c-3.3555-.059-6.1874-5.3836-6.0768-11.3866.1328-6.6372 3.4367-11.1505 6.4455-11.1505zm0 0c-4.6534 0-8.5177 5.8997-8.6579 13.3187-.1401 7.4189 3.5473 13.5547 8.245 13.6432h.1032c4.6461 0 8.5104-5.8998 8.6505-13.3187.1401-7.419-3.5398-13.5547-8.2375-13.6432z" fill="#231f20"/><path d="m23.5794 53.9137c-.3466.3097 12.0429-4.0561 12.0429-4.0561l-8.7686-12.6476z" stroke="#00443b" stroke-linecap="round" stroke-miterlimit="10" stroke-width=".73747"/><path d="m30.4526 16.0667s-1.0325 2.3378.8849 3.5694c.9468.6627 2.0307 1.1038 3.1712 1.2906l2.7139.3687 2.4336.6637.8555.4499.2876-.4499s-.2876-2.6844-1.1726-3.267c-.7455-.4113-1.5522-.7002-2.3894-.8554l-1.4086-1.9986z" fill="#883b16"/><path d="m31.0721 44.9018c.0211.0642.0557.123.1015.1726.0458.0497.1017.0889.1639.115.471.1817.9703.2791 1.475.2876.5405-.4402 1.0347-.9344 1.4749-1.4749l.9219-.826-.2582-.5531-1.9616.4573z" fill="#270e78"/><path d="m19.6118 31.5389-9.66088 1.084c-.36774.0406-.7221.1614-1.0381.3538-.31601.1924-.58596.4518-.79082.7598-.29162.4407-.43967.9608-.42383 1.489.01585.5282.19481 1.0385.51232 1.4609l8.40721 10.9883 5.4277-2.3599-7.0354-8.267 7.6844 1.2684 1.5266-4.7419z" fill="#398596"/><path d="m24.4053 33.1539 8.3261 2.6475s4.6977-1.3053 5.6195-2.6475 1.1505-8.5178 1.0325-10.0369c-.118-1.5192-.2287-2.7287-2.0133-3.2375-1.7847-.5089-7.419-.2729-7.419-.2729s-1.3791.2065-1.4307 2.323c-.0516 2.1166-.2433 8.3556-.2433 8.3556l-4.6756 1.6003v1.1578z" fill="#652dd0"/><path d="m29.9585 22.409c-.0959.177-1.5708 3.2743-1.5708 3.2743l-5.0886 3.1048.9366 1.5487 5.9809-3.0826 1.7109-3.6136z" fill="#fec4bf"/><path d="m32.9157 21.6641-1.0324 2.4927-2.8909-1.1357.8702-2.3378c.0872-.1921.2147-.3633.3737-.502.159-.1386.3459-.2416.5482-.3018.3656-.1249.7622-.1261 1.1286-.0035.3665.1226.6825.3622.8994.6819.1044.1628.1682.3481.1862.5406.0179.1925-.0105.3864-.083.5656z" fill="#cfabfa"/><path d="m32.6945 42.0699-.3319.7006c-.3026.6411-.663 1.2533-1.0767 1.8289l-.2138.3024 1.3126.3171c.0542.0152.1115.0157.1659.0014.0544-.0142.1041-.0427.1439-.0825l1.8215-1.7478.1697-.1475c.0799-.0693.1448-.1543.1906-.2497s.0715-.1992.0757-.3049c.0041-.1057-.0134-.2112-.0516-.3099-.0382-.0986-.0962-.1884-.1705-.2638l-.649-.6564z" fill="#fec4bf"/><path d="m36.9718 29.9607v.0811c-.3762 1.2085-1.1575 2.2504-2.2124 2.9499l-3.6873 2.4041 3.2153 6.298-2.0354 1.0472-3.6873-6.7478c-.2559-.4564-.3486-.9864-.2628-1.5026.0858-.5161.345-.9876.7348-1.3367l2.2124-2.3304-4.7051 2.1166s-1.4749-1.7847-1.3053-1.7552 4.8968-2.3526 4.9042-2.3231c.0073.0295 6.8289 1.0989 6.8289 1.0989z" fill="#cf5353"/><path d="m32.96 18.965c.7187.0063 1.4342.0979 2.1313.2729 1.3348.3466 2.5442 1.3495 2.5959 2.7212v1.475c-.0011.4733-.0307.9461-.0885 1.4159-.2814 1.7974-.4023 3.6163-.3614 5.4352l-7.7139-1.2316.177-2.0354c.1193-1.4537.102-2.9154-.0517-4.3658-.0442-.3762.2877-.8703.2508-1.239-.0461-.5345.0918-1.0686.3909-1.5139s.7414-.775 1.2536-.9345c.1992-.0516 0 .0442.2434 0 .3909.0074.7817-.0074 1.1726 0z" fill="#cfabfa"/><path d="m3.82255 34.0389c-.54973.6542-1.13571 1.2771-1.75518 1.8658l-.96608.2581.88496.4572 1.9248.1106 1.91004-2.795z" fill="#fec4bf"/><path d="m20.4673 34.0905 4.233-3.0605c.3417-.247.7575-.3699 1.1786-.3485.4211.0215.8223.186 1.1371.4665l2.6623 2.3746c.0938.0848.1624.1938.1982.315.0357.1213.0373.25.0045.3721s-.0987.2327-.1905.3197c-.0917.087-.2057.1469-.3294.1732l-7.6106 1.5782c-.1214.0393-.2487.0568-.3762.0516h-.3392c-.2177-.0038-.4303-.0667-.6151-.1819-.1848-.1153-.3348-.2785-.434-.4724s-.1439-.411-.1293-.6283c.0147-.2173.088-.4265.2123-.6053.104-.1468.2403-.2679.3983-.354z" fill="#231f20"/><g stroke="#00443b" stroke-linecap="round" stroke-miterlimit="10"><path d="m5.52611 42.9918s-3.87172 2.9498-1.19471 15.8261" stroke-width="1.47494"/><path d="m5.79895 43.3458.81859-6.2538" stroke-width="2.21241"/><path d="m6.02759 43.6776s3.62835.6416.32449 15.6344" stroke-width="1.47494"/></g><path d="m24.9953 38.6481-2.6918 12.6402-12.2198-9.4396zm2.8761-2.8835-21.68897 4.6608.14012 1.32 17.41165 13.4441z" fill="#00443b"/><path d="m26.5177 33.6475-1.3936-.0267-.0801 4.1733 1.3936.0267z" fill="#414042"/><path d="m25.7991 36.4209 11.4087-1.5192" stroke="#414042" stroke-linecap="round" stroke-miterlimit="10" stroke-width=".73747"/><path d="m17.3101 38.2264-21.43838-5.1588c-.34451-.0829-.691.1292-.7739.4737l-.02588.1076c-.0829.3445.12918.691.47369.7739l21.43837 5.1587c.3445.0829.691-.1291.7739-.4737l.0259-.1075c.0829-.3445-.1292-.691-.4737-.7739z" fill="#231f20"/><path d="m12.1633 37.5787s-.059-1.8879 4.1446-1.0398l1.8732.5015" stroke="#231f20" stroke-miterlimit="10" stroke-width=".73747"/><path d="m.695678 34.5182s.803842-1.7109-3.392358-2.6032l-1.91743-.2803" stroke="#231f20" stroke-miterlimit="10" stroke-width=".73747"/><path d="m8.43061 35.7091-3.38425-.8144-.51243 2.1295 3.38425.8144z" fill="#231f20"/><path d="m30.4673 29.8427.1992 1.1726c.1868 1.0732.0293 2.178-.4499 3.1563-.2829.5749-.6975 1.0749-1.2101 1.4594-.5126.3844-1.1087.6424-1.7398.753l-1.4749.2655-6.7405-3.4956.2655-3.4735z" fill="#6da6b3"/><path d="m29.634 35.0197-7.4853 10.8408 6.8953 10.3246-4.9337 1.7257-6.5782-9.8674c-1.3791-1.1725-.59-4.2625.177-5.8997l5.8408-9.6683 6.7699.885z" fill="#6da6b3"/><path d="m15.2091 12.3278c.5531-.3863 1.1625-.6848 1.8068-.885 5.1033-1.0841 10.4794 1.357 10.8924 6.711.1106 1.4749.1254 2.9499.3687 4.4248.2877 1.6814 2.5812 7.9721 2.5812 7.9721-.8237.1061-1.6224.3557-2.3599.7374-2.5295 2.2124-4.2995 1.298-7.8393 1.1505-.7472-.0547-1.4879-.1781-2.2124-.3688-1.2434-3.5306-2.28-7.1306-3.1048-10.7818-.531-2.3967-.7374-4.5797-1.0988-6.9986-.0613-.3867-.0014-.7829.1716-1.1342.173-.3512.4505-.6403.7945-.8274z" fill="#eb8c47"/><path d="m21.4776 20.4621 5.7596.3171s1.8437-4.5871-.2729-6.6373c-1.0979-1.1795-2.5973-1.9056-4.2035-2.0354z" fill="#eb8c47"/><path d="m16.2047 18.8249-2.6844 4.8157-7.84672 10.4425c-.18862.2446-.43681.4368-.72085.5581-.28404.1214-.59444.1679-.90158.1352l-.61947-.0664-1.62981.1254-.07375.9365.66372.5015-.05162.7375-2.050167-.4499-2.308283-.9144c-.11423-.0451-.21813-.1128-.3054-.1992s-.15608-.1896-.20228-.3034-.06882-.2358-.06649-.3585c.00234-.1228.02958-.2438.08007-.3558l.58997-1.3127 4.80831-2.0649 8.84965-13.9234z" fill="#fec4bf"/><path d="m14.5011 13.0357-4.1298 5.4057 6.0694 2.1977 1.7256-3.503.5974-2.559z" fill="#eb8c47"/><path d="m20.3419 19.4517-.9735 3.6874-4.3363 10.944-4.1593 1.6003c-.2604.1318-.4821.3288-.6437.5718-.1615.2429-.25737.5236-.27816.8147l-.059.8112c-.0081.0934.01221.187.05827.2686.04607.0816.11569.1473.19989.1886l4.3215 1.7036 2.0059-.59-1.2094-.2876.1475-.5531 1.9912-.8112c.5686-.2324 1.022-.6805 1.261-1.2463l.4794-1.1431 4.9484-10.096 1.7552-5.2581z" fill="#fec4bf"/><path d="m23.4909 6.81887c.1153.85287.1425 1.71534.0811 2.57377-.1991 1.47496-1.0546 3.73156-2.7139 4.03396 0 0-.5752-5.99563-.6047-5.89976s3.2375-.70797 3.2375-.70797z" fill="#594a42"/><path d="m17.1755 10.0712 4.1738-.0518.0431 3.4806c.0069.5535-.2064 1.087-.5929 1.4832-.3865.3963-.9146.6227-1.4681.6296-.5535.0068-1.087-.2065-1.4832-.593s-.6227-.9146-.6295-1.4681z" fill="#ebb5b0"/><path d="m22.6944 6.53126-2.8098-2.05754-3.4661.73747-1.3864.81121v1.29795 2.21241c.007.21839.0624.4325.1622.62684.0885.1696.2434.3097.3245.4867.0589.1873.0589.388 0 .5753-.0331.2817-.0331.5663 0 .8481.0386.2415.1211.4739.2434.6858.2065.3835.4646.7375.6784 1.0988.1717.3395.4252.631.7375.8481.5142.2691 1.0983.3746 1.6741.3024.3173-.0051.6282-.0911.903-.2498.2749-.1588.5047-.385.6678-.6573l1.5855-2.6623.6711-2.09438z" fill="#fec4bf"/><path d="m21.3448 10.0269s.7375-1.47497 1.5413-1.24636c.8039.22862 0 2.36726 0 2.36726s-.6121 2.0281-1.5413.9661z" fill="#fec4bf"/><path d="m20.4599 8.81742c-.0752.57121.0143 1.15202.2581 1.67408.2138.6268.6416.4203.6416.4203.3233-.8263.8511-1.55712 1.5339-2.12388l.0885-1.44544z" fill="#594a42"/><path d="m16.7209 10.8381s-.3171.9292-.5015 1.6667c-.0636.3136-.103.6316-.118.9513 0 0 .059.4572.4572.4499.4335-.0357.8527-.1721 1.2242-.3983l.3024-.1917.0811-2.4558z" fill="#ebb5b0"/><path d="m18.2769 10.2924c.3455-.1056.7084-.1417 1.0679-.1062.3595.0354.7084.1417 1.0266.3126-.6887-.0761-1.3837-.0761-2.0723 0z" fill="#594a42"/><path d="m15.0616 10.0859c.5233.0197 1.0416.1089 1.5413.2655l.0442-.1918c-.5043-.25101-1.0788-.3238-1.6298-.20648z" fill="#594a42"/><path d="m18.9923 11.4428c.1507 0 .2729-.1222.2729-.2729s-.1222-.2728-.2729-.2728-.2729.1221-.2729.2728.1222.2729.2729.2729z" fill="#414042"/><path d="m16.1752 11.2289c.1507 0 .2728-.1221.2728-.2728s-.1221-.2729-.2728-.2729-.2729.1222-.2729.2729.1222.2728.2729.2728z" fill="#414042"/><path d="m17.3259 13.9794c1.1062.7375 1.1062.3688 1.8436 0z" fill="#fff"/><path d="m21.7504 12.608c.0325.1624.0303.3298-.0066.4912-.0368.1614-.1075.3132-.2072.4454l-.7375.9735c-.193.1943-.4084.3651-.6416.5088-.326.185-.6895.2944-1.0636.3199-.374.0255-.749-.0334-1.0972-.1724-.1234-.0445-.242-.1013-.354-.1696-.0607-.0299-.1177-.0671-.1696-.1106-.024-.0344-.0438-.0716-.059-.1107h1.062c.3337.0019.6646-.0623.9734-.1889.3088-.1265.5896-.313.826-.5485l.472-.6416c.1111-.1442.1918-.3093.2375-.4854.0456-.1762.0551-.3598.028-.5397l-.5236-2.91301.6858-.12537z" fill="#231f20"/><path d="m14.3757 8.39706c.1511.09275.3089.1741.472.24336 1.3209.58663 2.7038 1.02205 4.1225 1.29795.3186.07603.6461.10823.9734.09583.2962-.031.5866-.10293.8629-.21383 2.1608-.73747 2.8982-2.77288 4.0044-4.62393-1.5277-1.26562-3.459-1.94079-5.4425-1.90267h-.059c-1.1096.02283-2.1764.43233-3.0162 1.15782l-.7375.62685c-.6416.53836-2.2124 2.21241-1.4233 3.09.0729.08448.1545.16111.2433.22862z" fill="#652dd0"/><path d="m28.5573 29.3412-1.0251-.2729-1.5634.3688.0589.1622.9145.2876-.2581.1991-1.2463.3024.0737.2876 1.2242-.1327v.0885l-1.1799.2212.0663.2581 1.2095-.1327.0369.0663-1.2464.236.1254.2582 1.3201-.059v.0368l-.8924.1623.0959.2212.9219.0443c.4318-.0079.8501-.1525 1.1947-.413l1.0545-.7817z" fill="#fec4bf"/><path d="m33.9334 17.7556c0-.7372-.5976-1.3349-1.3348-1.3349s-1.3348.5977-1.3348 1.3349v1.3053c0 .7372.5976 1.3348 1.3348 1.3348s1.3348-.5976 1.3348-1.3348z" fill="#ebb5b0"/><path d="m29.4717 13.1464c0 .0442-1.2463.4277-.5899 3.2596.0566.2561.0548.5216-.0052.777-.06.2553-.1767.4938-.3414.6979-.0957.1813-.1526.3806-.167.5851s.0141.4098.0835.6027c.0693.1929.1782.3692.3196.5177.1413.1485.3121.2659.5013.3447 0 0-.5457-1.1062.0517-1.6814.2544-.1968.4496-.4599.5641-.7605s.1439-.6269.0848-.9431c-.1424-.765.0104-1.5556.4278-2.2124z" fill="#883b16"/><path d="m29.6487 13.2422c-.4337.7837-.6043 1.6859-.4867 2.5738.0288.1026.0633.2036.1032.3024.0529.2669.0678.54.0443.8112.0947.5421.3284 1.0503.6785 1.4749.0744.1178.1557.231.2433.3393.2794.3937.6623.7025 1.1062.8923.7375.2876 1.947.177 2.7803-1.4233 0 0 .7375.0959 1.2389-1.0841.6186-1.1985.7634-2.586.4056-3.8865z" fill="#fec4bf"/><path d="m34.2211 14.7762c-.101.3183-.1335.6543-.0954.986.0382.3318.1461.6517.3166.9388.5826.7374.7891.6342.9145 1.2463.1253.6121.6637.8481 1.5413 1.0251s1.202-.2434 2.2124-.2065c.6673.039 1.3232.1911 1.9395.4498-.1683-.429-.4414-.809-.7944-1.1053-.3529-.2963-.7745-.4994-1.2262-.5908-.5139-.0629-1.0005-.2662-1.4064-.5875-.4059-.3214-.7154-.7484-.8945-1.2341-.1032-.4574-.1552-.9249-.1549-1.3938z" fill="#883b16"/><path d="m35.6812 14.7024-.5309 2.8614-1.0325 1.1283" stroke="#231f20" stroke-miterlimit="10" stroke-width=".73747"/><path d="m32.3331 16.9812c.1507 0 .2729-.1222.2729-.2729s-.1222-.2728-.2729-.2728-.2728.1221-.2728.2728.1221.2729.2728.2729z" fill="#231f20"/><path d="m34.4128 15.1523h.1475c.1858 0 .364.0738.4954.2052s.2052.3096.2052.4954v.4351c0 .1858-.0738.364-.2052.4954s-.3096.2052-.4954.2052h-.1475z" fill="#fedbd5"/><path d="m29.9216 16.7968c.1507 0 .2729-.1221.2729-.2728s-.1222-.2729-.2729-.2729-.2729.1222-.2729.2729.1222.2728.2729.2728z" fill="#231f20"/><path d="m30.7181 18.4045c.2476.1376.524.2152.807.2267s.5648-.0434.8228-.1603" stroke="#414042" stroke-linecap="round" stroke-miterlimit="10" stroke-width=".294988"/><path d="m29.3538 15.5505c.405.0067.8091.0412 1.2094.1033-.1607-.1505-.3674-.2425-.5868-.2612-.2194-.0188-.4387.0369-.6226.1579z" fill="#883b16"/><path d="m31.8759 15.7423c.4048.0062.8088.0382 1.2095.0958-.1617-.1493-.3688-.24-.5882-.2573-.2193-.0174-.4382.0395-.6213.1615z" fill="#883b16"/><path d="m34.6414 23.1096c-.0885.1696-1.5561 3.2743-1.5561 3.2743l-5.1032 3.0827.9365 1.556 5.9809-3.1121 1.711-3.6062z" fill="#fec4bf"/><path d="m31.4334 17.3499v-.5383l-.4867-.1033c-.0502.1708-.122.3343-.2139.4868-.1032.0958-.2507.2728-.1548.4351.0958.1622.1253.2212.295.2065.1696-.0148.5457-.0885.5457-.0885s.1991.0737.1696-.0885c-.0319-.112-.0844-.217-.1549-.3098z" fill="#fedbd5"/><path d="m37.5987 22.3574-1.0325 2.5-2.8909-1.1357.8776-2.3673c.0856-.1927.2115-.3649.3692-.5048.1578-.1399.3437-.2444.5453-.3064.3646-.1243.7599-.1252 1.1251-.0026s.6799.3619.8955.6811c.1099.1658.1774.356.1967.554s-.0102.3977-.086.5817z" fill="#cfabfa"/><path d="m33.8376 15.2777c-.1051.1034-.1874.2277-.2415.3649s-.0788.2842-.0725.4315c.0062.1473.0433.2917.1088.4238s.158.249.2715.3432c.2883.1852.5296.4348.7049.7291.1753.2944.2799.6254.3055.9671.1465-.2493.2238-.5332.2238-.8223s-.0773-.573-.2238-.8223c-.1614-.2127-.2719-.4596-.323-.7216-.0512-.2621-.0416-.5324.028-.7902.0218-.079.0514-.1556.0885-.2286z" fill="#883b16"/><path d="m34.8479 15.1818-.2286 2.2124c-.0437.4298-.1813.8449-.403 1.2157s-.5222.6884-.8802.9303c-.3878.2875-.8469.4635-1.3275.5089-.3494.0128-.6936-.0881-.9808-.2876-.1083-.0686-.2096-.1476-.3024-.236 0 0-.1917-.1623-.177-.2139v-.1696l.9588.2139c.2624.0465.5326.021.7817-.0738l.1696-.059c.399-.1478.7486-.4044 1.0092-.7407.2607-.3362.422-.7387.4657-1.162l.2213-2.1755z" fill="#231f20"/><path d="m29.3685 11.9664.1401-2.27877c.0071-.03731.0237-.07217.0481-.10123.0245-.02905.056-.05132.0916-.06465.0355-.01334.0739-.0173.1115-.01149.0375.0058.0729.02117.1028.04463l1.5856 1.82891c.0344.0261.0601.062.0737.103s.0145.0852.0025.1267c-.0119.0415-.0362.0784-.0696.1059-.0333.0274-.0742.0441-.1173.0479l-1.7256.4572c-.0343.004-.0689-.0001-.1013-.0119s-.0616-.031-.0852-.0561c-.0236-.025-.0411-.0553-.051-.0883-.0098-.033-.0119-.0679-.0059-.1018z" fill="#398596"/><path d="m33.8081 11.2806 1.9026-1.47498c.0437-.03676.0976-.0593.1545-.06459s.114.00692.1637.03499c.0498.02808.0897.07068.1146.1221.0248.05142.0334.10918.0245.16558l-.3171 2.5959z" fill="#6da6b3"/><path d="m36.7801 14.2526c-1.0399 1.0103-2.5812 1.3274-4.2257 1.3274-1.6446 0-3.09-.3171-4.1299-1.3274.0453-1.0777.5053-2.0961 1.2838-2.8426s1.8154-1.1633 2.894-1.1633 2.1155.4168 2.894 1.1633 1.2385 1.7649 1.2838 2.8426z" fill="#6da6b3"/><g stroke="#652dd0" stroke-miterlimit="10" stroke-width=".73747"><path d="m31.4113 43.98c.7225.054 1.4234.2708 2.0502.6342"/><path d="m34.634 41.8266c-.3171.2202-.5415.5499-.63.9257s-.0348.7711.1507 1.1097"/><path d="m32.0455 42.9623 1.8806.3834"/></g></g></svg>