<svg width="400" height="128" viewBox="0 0 400 128" fill="none" xmlns="http://www.w3.org/2000/svg">
<g clip-path="url(#clip0_7725_124171)">
<path d="M273.029 44.1363C273.029 44.1363 261.214 50.9886 259.203 51.0149C257.192 51.0412 244.483 43.094 244.483 43.094C244.483 43.094 238.967 45.3868 239.412 46.3863C239.857 47.3858 255.736 62.7238 261.52 62.8729C267.304 63.0219 276.376 55.9092 276.376 55.9092C276.376 55.9092 283.395 47.641 273.029 44.1363Z" fill="#CED7D8"/>
<path d="M150.887 45.329C150.887 45.329 153.252 38.7845 153.67 38.2897C154.088 37.7948 154.963 40.401 154.45 41.3284C154.45 41.3284 157.779 39.1073 159.261 38.7185C160.744 38.3297 162.417 42.1991 162.12 42.9317C161.316 44.3014 160.351 45.5711 159.247 46.7141C158.864 46.9215 153.161 49.5216 153.161 49.5216L149.134 52.857L145.873 49.9353L150.887 45.329Z" fill="#37474F"/>
<path d="M119.622 44.1593C123.882 45.1292 131.363 53.6298 133.355 53.9044C135.347 54.1791 149.018 43.7792 149.018 43.7792C149.018 43.7792 154.118 50.8009 153.568 51.7651C153.018 52.7294 135.348 65.9521 129.597 65.3831C123.847 64.8141 117.831 59.2828 115.189 55.0794C112.547 50.8759 115.362 43.1893 119.622 44.1593Z" fill="#2E5C54"/>
<path d="M194.547 5.78606C197.011 -1.92869 207.736 -1.92868 210.199 5.78606L218.604 32.1106C219.705 35.5607 222.865 37.8966 226.43 37.8966H253.629C261.6 37.8966 264.914 48.2768 258.465 53.0447L236.461 69.3142C233.577 71.4465 232.37 75.2261 233.472 78.6762L241.877 105.001C244.34 112.716 235.663 119.131 229.214 114.363L207.21 98.0934C204.326 95.961 200.42 95.961 197.536 98.0934L175.532 114.363C169.083 119.131 160.406 112.716 162.87 105.001L171.275 78.6762C172.376 75.2261 171.169 71.4465 168.285 69.3142L146.281 53.0447C139.832 48.2768 143.146 37.8966 151.117 37.8966H178.317C181.881 37.8966 185.041 35.5607 186.142 32.1106L194.547 5.78606Z" fill="url(#paint0_radial_7725_124171)"/>
<path d="M194.547 5.78606C197.011 -1.92869 207.736 -1.92868 210.199 5.78606L218.604 32.1106C219.705 35.5607 222.865 37.8966 226.43 37.8966H253.629C261.6 37.8966 264.914 48.2768 258.465 53.0447L236.461 69.3142C233.577 71.4465 232.37 75.2261 233.472 78.6762L241.877 105.001C244.34 112.716 235.663 119.131 229.214 114.363L207.21 98.0934C204.326 95.961 200.42 95.961 197.536 98.0934L175.532 114.363C169.083 119.131 160.406 112.716 162.87 105.001L171.275 78.6762C172.376 75.2261 171.169 71.4465 168.285 69.3142L146.281 53.0447C139.832 48.2768 143.146 37.8966 151.117 37.8966H178.317C181.881 37.8966 185.041 35.5607 186.142 32.1106L194.547 5.78606Z" fill="url(#paint1_linear_7725_124171)"/>
<path d="M278.763 145.645C280.229 134.052 282.183 70.7915 282.183 70.7915L264.814 70.4111L266.937 71.6663C266.937 71.6663 265.41 128.78 267.204 145.752C270.388 147.212 275.404 146.634 278.763 145.645Z" fill="#856AB3"/>
<path opacity="0.32" d="M278.763 145.645C280.229 134.052 282.183 70.7915 282.183 70.7915L264.814 70.4111L266.937 71.6663C266.937 71.6663 265.41 128.78 267.204 145.752C270.388 147.212 275.404 146.634 278.763 145.645Z" fill="#06577A"/>
<path d="M293.268 149.677C293.757 136.555 289.787 74.5645 289.787 74.5645L272.441 75.4621L274.671 76.5499C274.671 76.5499 277.892 131.138 280.931 149.639C284.076 151.221 289.84 150.803 293.268 149.677Z" fill="#856AB3"/>
<path d="M276.321 25.879C276.028 25.478 275.648 25.1486 275.209 24.9155C274.77 24.6824 274.284 24.5518 273.786 24.5335C273.289 24.5152 272.795 24.6096 272.34 24.8098C271.884 25.0099 271.481 25.3105 271.16 25.6888C270.702 25.9392 270.313 26.2976 270.027 26.7326C269.741 27.1676 269.566 27.666 269.518 28.1839C269.06 34.0642 266.251 39.9217 268.35 45.8172C269.816 49.9402 273.694 51.5453 277.809 50.6325C290.605 47.8178 280.604 31.9494 276.321 25.879Z" fill="#842626"/>
<path d="M286.788 62.9645C286.788 62.9036 286.788 62.8504 286.788 62.8123C286.391 57.571 288.01 49.4543 285.047 44.8443C283.52 42.4938 280.787 41.1093 278.214 40.2192C276.738 39.7155 275.221 39.3414 273.68 39.101C272.39 38.8809 271.066 38.9733 269.819 39.3705C268.573 39.7677 267.441 40.458 266.518 41.3831C265.045 42.8133 264.839 45.2856 264.854 47.2178C264.854 51.0822 264.671 54.1326 264.984 57.9818C265.274 61.5115 265.259 65.064 265.648 68.5785C265.867 70.0398 265.992 71.5135 266.022 72.9906C266.022 73.5764 268.992 74.512 269.618 74.8468C277.1 79.2817 284.94 77.2354 288.704 75.752C288.949 75.6227 286.964 64.7597 286.788 62.9645Z" fill="#E96968"/>
<path d="M273.633 39.1006L270.289 51.6371L271.961 95.8039C271.961 95.8039 280.58 99.0141 285.482 98.5577C290.383 98.1013 290.65 95.2714 290.65 95.2714C290.65 95.2714 288.543 51.3708 287.78 48.6019C287.016 45.8329 281.497 41.7174 281.497 41.7174" fill="#E4E9EA"/>
<path d="M267.579 50.8834C267.877 50.2064 268.235 39.6934 268.235 39.6934C268.235 39.6934 265.51 40.8572 264.8 41.7092C264.09 42.5612 264.8 78.946 264.8 78.946C264.8 78.946 264.609 93.4984 264.8 93.8559C264.991 94.2135 267.518 95.7425 268.235 95.2937C268.953 94.8449 267.579 50.8834 267.579 50.8834Z" fill="#E4E9EA"/>
<path d="M264.311 31.3797C264.372 32.1404 265.548 42.1285 271.121 41.7025C277.305 41.2309 276.152 27.3099 270.74 26.4883C265.327 25.6668 264.189 29.8659 264.311 31.3797Z" fill="#FFB087"/>
<path d="M277.916 24.9361C275.389 22.6007 272.114 21.2238 268.533 22.3725C264.617 23.6277 262.425 28.0018 262.945 31.927C262.945 31.927 269.816 32.1324 271.48 31.5847C271.48 31.5847 272.159 40.9719 271.48 43.7561C271.037 45.5513 274.335 45.9393 275.435 46.0382C277.725 46.2436 283.97 46.0762 284.176 42.7215C284.558 36.4685 282.71 29.3558 277.916 24.9361Z" fill="#842626"/>
<g opacity="0.2">
<path d="M159.725 63.336L151.752 57.4409C156.244 54.4609 161.588 50.3961 161.588 50.3961C161.588 50.3961 162.201 51.241 162.98 52.3848L163.458 51.9459C163.458 51.9459 165.822 45.4015 166.24 44.9066C166.658 44.4118 167.533 47.018 167.02 47.9454C167.02 47.9454 170.349 45.7243 171.832 45.3355C173.314 44.9466 174.988 48.8161 174.69 49.5486C173.886 50.9183 172.921 52.1881 171.817 53.331C171.435 53.5385 165.732 56.1385 165.732 56.1385L165.466 56.3586C165.986 57.3267 166.295 58.1048 166.137 58.3821C165.929 58.7472 163.266 60.8699 159.725 63.336Z" fill="black"/>
<path d="M254.483 55.7938L246.635 61.5963C245.532 60.734 244.835 60.1288 244.732 59.9491C244.616 59.7451 244.753 59.27 245.04 58.6477L244.743 58.5027C244.743 58.5027 238.588 57.3197 238.167 57.2082C236.824 56.3576 235.588 55.3509 234.484 54.2093C234.022 53.5674 234.736 49.4127 236.269 49.4412C237.801 49.4697 241.56 50.8437 241.56 50.8437C240.843 50.0634 241.079 47.3244 241.602 47.7069C242.124 48.0894 245.965 53.8922 245.965 53.8922L247.397 54.6842C248.393 53.1876 249.282 51.9631 249.282 51.9631C249.282 51.9631 251.609 53.7333 254.483 55.7938Z" fill="black"/>
</g>
<path d="M113.469 69.2256C111.955 71.4515 110.569 73.7613 109.316 76.144C109.316 76.144 108.882 81.2865 108.882 84.7087C108.882 90.9981 109.853 95.8539 110.732 108.248C109.301 110.686 108.482 113.434 108.345 116.258C107.975 121.872 107.966 121.807 107.929 147.705C108.772 148.159 109.697 148.441 110.65 148.533C111.603 148.625 112.564 148.526 113.479 148.241L121.803 111.975L122.728 97.7408L125.336 80.0471L113.469 69.2256Z" fill="#37474F"/>
<path d="M124.264 70.3262C121.868 75.034 119.556 79.1869 119.482 84.1999C119.306 94.8087 123.709 106.49 125.327 114.158C124.845 116.933 124.708 119.757 124.92 122.565C125.244 125.775 132.56 154.938 132.56 154.938C132.56 154.938 136.63 155.788 138.359 153.948L136.306 97.7962L135.751 81.4899L124.264 70.3262Z" fill="#37474F"/>
<path d="M127.555 41.5701L126.047 49.9221L118.5 49.3672L120.081 39.9053L127.555 41.5701Z" fill="#FFA8A7"/>
<path d="M110.537 48.7568C111.286 46.4907 114.162 44.0212 117.011 44.5577C121.29 45.2849 125.507 46.3362 129.627 47.7024C132.263 48.6273 134.668 50.9303 134.89 59.606L135.713 81.4341C134.573 82.4474 133.206 83.1708 131.726 83.5429C127.722 84.6435 125.076 85.3002 118.99 83.9683C111.064 82.2387 109.177 77.4384 109.177 77.4384C109.177 77.4384 109.482 65.8862 109.723 59.606C109.917 54.2693 110.028 50.3199 110.537 48.7568Z" fill="#3E7269"/>
<path d="M133.142 31.6826C133.142 31.6826 134.992 34.3834 134.733 34.6793C134.315 34.9579 133.852 35.1614 133.364 35.2805L133.142 31.6826Z" fill="#FFA8A7"/>
<path d="M127.564 23.1546C129.321 24.0796 132.355 25.6797 133.196 32.1171C134.056 38.721 132.919 40.8483 132.031 41.727C131.42 42.3189 128.146 42.3559 126.481 41.8565C124.428 41.246 119.794 39.4794 117.676 36.085C115.188 32.0893 114.633 26.7433 117.436 24.616C118.862 23.5342 120.539 22.8326 122.311 22.577C124.082 22.3214 125.89 22.5202 127.564 23.1546V23.1546Z" fill="#FFA8A7"/>
<path d="M122.395 102.855L118.39 91.5343C115.285 90.4339 112.504 88.5775 110.297 86.1328C110.297 86.1328 111.222 89.3608 117.548 92.672L121.941 103.382V109.339L122.395 102.855Z" fill="#263238"/>
<path d="M133.557 25.329C132.983 26.9106 132.012 30.7952 127.961 32.4138C127.961 32.4138 127.378 29.9443 125.306 30.2033C123.235 30.4623 122.874 33.1168 124.15 34.7631C125.427 36.4095 126.666 35.8175 126.666 35.8175C126.666 35.8175 126.943 39.36 124.576 40.9693C123.694 41.4891 122.704 41.7972 121.683 41.8694C120.663 41.9417 119.639 41.776 118.693 41.3855C117.334 40.7658 115.4 37.5009 114.272 34.8186C111.886 29.1581 111.544 24.6445 115.197 23.1832C115.65 20.6119 116.806 19.6407 119.137 19.1598C124.15 18.1331 127.942 21.4258 132.151 20.8431C134.306 20.5379 134.223 23.5161 133.557 25.329Z" fill="#263238"/>
<path d="M115.077 24.08L112.71 22.6094C112.916 22.321 113.224 22.1218 113.572 22.0524C113.92 21.983 114.281 22.0485 114.582 22.2356C114.884 22.4227 115.103 22.7175 115.194 23.06C115.286 23.4025 115.245 23.7672 115.077 24.08V24.08Z" fill="#263238"/>
<path d="M135.152 66.9191L129 61.46C129.4 63.46 133.393 67.5803 135.227 69.2469L135.152 66.9191Z" fill="#37474F"/>
<path d="M245.63 51.1514C245.63 51.1514 241.789 45.3485 241.267 44.966C240.744 44.5835 240.508 47.3225 241.225 48.1029C241.225 48.1029 237.466 46.7288 235.934 46.7003C234.401 46.6718 233.687 50.8266 234.149 51.4684C235.253 52.61 236.489 53.6167 237.832 54.4673C238.253 54.5788 244.408 55.7618 244.408 55.7618L249.108 58.0543L251.588 54.4464L245.63 51.1514Z" fill="#FFB087"/>
<path d="M277.479 50.8126C277.479 50.8126 266.601 59.0728 264.609 59.3475C262.617 59.6222 248.946 49.2222 248.946 49.2222C248.946 49.2222 243.846 56.244 244.396 57.2082C244.946 58.1725 262.616 71.3952 268.367 70.8262C274.118 70.2572 282.234 62.0755 282.234 62.0755C282.234 62.0755 288.199 53.0089 277.479 50.8126Z" fill="#E4E9EA"/>
<path d="M163.135 49.7694C163.135 49.7694 165.5 43.225 165.918 42.7301C166.336 42.2352 167.211 44.8414 166.698 45.7688C166.698 45.7688 170.027 43.5478 171.509 43.1589C172.992 42.7701 174.665 46.6396 174.368 47.3721C173.564 48.7418 172.599 50.0115 171.495 51.1545C171.112 51.362 165.409 53.962 165.409 53.962L161.382 57.2975L158.121 54.3757L163.135 49.7694Z" fill="#FFB087"/>
<path d="M131.87 48.5997C136.13 49.5696 143.611 58.0702 145.603 58.3449C147.595 58.6195 161.266 48.2196 161.266 48.2196C161.266 48.2196 166.366 55.2413 165.816 56.2056C165.266 57.1698 147.596 70.3925 141.845 69.8235C136.095 69.2545 130.079 63.7232 127.437 59.5198C124.795 55.3163 127.611 47.6297 131.87 48.5997Z" fill="#3E7269"/>
</g>
<defs>
<radialGradient id="paint0_radial_7725_124171" cx="0" cy="0" r="1" gradientUnits="userSpaceOnUse" gradientTransform="translate(172.5 71.3038) rotate(-8.46745) scale(90.358 88.0801)">
<stop offset="0.447917" stop-color="#FAAA31"/>
<stop offset="1" stop-color="#F57E16"/>
</radialGradient>
<linearGradient id="paint1_linear_7725_124171" x1="202.373" y1="-0.169993" x2="202.373" y2="115.831" gradientUnits="userSpaceOnUse">
<stop stop-color="#FFDB69"/>
<stop offset="0.1799" stop-color="#FEE7B0"/>
<stop offset="0.24" stop-color="#FEE9BA"/>
<stop offset="0.2592" stop-color="#FDECD0"/>
<stop offset="0.2953" stop-color="#FEDA92"/>
<stop offset="0.3254" stop-color="#FFCD64"/>
<stop offset="0.484375" stop-color="#FFC853"/>
<stop offset="0.7613" stop-color="#FF9114"/>
<stop offset="1" stop-color="#F9B858"/>
</linearGradient>
<clipPath id="clip0_7725_124171">
<rect width="400" height="128" fill="white"/>
</clipPath>
</defs>
</svg>
