<svg width="400" height="128" viewBox="0 0 400 128" fill="none" xmlns="http://www.w3.org/2000/svg">
<g clip-path="url(#clip0_7303_142274)">
<path d="M223.875 27.6462L213.186 20.7998C213.186 20.7998 212.507 21.9865 214.927 23.4547C216.385 24.3447 216.126 24.6718 216.126 24.6718C215.78 25.9635 215.628 27.2991 215.675 28.6351C215.828 30.4304 218.828 30.8792 219.729 31.1759C220.63 31.4726 224.379 32.0735 224.379 32.0735" fill="#FFB087"/>
<path d="M252.634 19.7802C252.634 19.7802 244.236 30.5518 242.381 31.3278C240.526 32.1037 224.646 25.554 224.646 25.554C224.646 25.554 221.508 33.6707 222.294 34.4315C223.081 35.1922 243.541 43.4839 248.962 41.4604C254.382 39.4369 260.139 29.4488 260.139 29.4488C260.139 29.4488 263.559 19.1564 252.634 19.7802Z" fill="#CED7D8"/>
<path d="M256.398 121.434C256.398 121.434 257.596 127.519 256.787 128.934C255.978 130.349 253.237 134.548 251.779 135.37C250.321 136.191 248.61 136.176 249.03 138.07C249.45 139.965 253.802 139.318 255.817 139.105C257.833 138.892 260.177 134.541 261.666 134.434C263.154 134.328 262.131 139.219 262.963 138.846C263.796 138.474 265.681 138.086 265.781 137.736C265.88 137.386 263.139 123.815 263.139 123.815" fill="#FFB087"/>
<path d="M263.742 126.797C259.291 127.558 256.642 138.025 251.848 135.324L251.779 135.37C250.321 136.192 248.61 136.176 249.03 138.071C249.45 139.965 253.802 139.318 255.817 139.105C257.833 138.892 260.177 134.541 261.666 134.434C263.154 134.328 262.131 139.219 262.963 138.847C263.796 138.474 265.681 138.086 265.781 137.736C265.88 137.386 264.544 130.821 263.742 126.797Z" fill="#3F2A29"/>
<path d="M271.636 125.047C271.636 125.047 272.835 131.133 272.025 132.547C271.216 133.962 268.475 138.162 267.017 138.983C265.559 139.805 263.849 139.789 264.269 141.684C264.689 143.578 269.04 142.931 271.056 142.718C273.071 142.505 275.415 138.154 276.904 138.047C278.393 137.941 277.37 142.832 278.202 142.46C279.034 142.087 280.92 141.699 281.019 141.349C281.118 140.999 278.377 127.428 278.377 127.428" fill="#FFB087"/>
<path d="M265.856 123.685C267.322 112.092 269.277 48.8315 269.277 48.8315L251.908 48.4512L254.031 49.7063C254.031 49.7063 252.504 106.82 254.298 123.792C257.481 125.252 262.497 124.674 265.856 123.685Z" fill="#856AB3"/>
<path opacity="0.32" d="M265.856 123.685C267.322 112.092 269.277 48.8315 269.277 48.8315L251.908 48.4512L254.031 49.7063C254.031 49.7063 252.504 106.82 254.298 123.792C257.481 125.252 262.497 124.674 265.856 123.685Z" fill="#06577A"/>
<path d="M280.362 127.717C280.851 114.595 276.881 52.6045 276.881 52.6045L259.535 53.5021L261.764 54.5899C261.764 54.5899 264.986 109.179 268.025 127.679C271.17 129.261 276.934 128.843 280.362 127.717Z" fill="#856AB3"/>
<path d="M263.413 3.91899C263.121 3.51808 262.741 3.18864 262.302 2.95556C261.863 2.72248 261.376 2.59184 260.879 2.57352C260.382 2.55521 259.887 2.64969 259.432 2.84982C258.977 3.04996 258.574 3.35052 258.252 3.72881C257.795 3.97922 257.406 4.33764 257.12 4.77266C256.834 5.20767 256.659 5.706 256.611 6.22394C256.153 12.1042 253.343 17.9617 255.443 23.8572C256.909 27.9803 260.787 29.5854 264.902 28.6725C277.697 25.8579 267.696 9.98946 263.413 3.91899Z" fill="#842626"/>
<path d="M273.881 41.0045C273.881 40.9436 273.881 40.8904 273.881 40.8524C273.484 35.6111 275.102 27.4943 272.14 22.8844C270.613 20.5338 267.88 19.1493 265.307 18.2593C263.831 17.7556 262.314 17.3814 260.772 17.141C259.482 16.9209 258.158 17.0133 256.912 17.4106C255.666 17.8078 254.533 18.4981 253.611 19.4232C252.138 20.8533 251.932 23.3256 251.947 25.2578C251.947 29.1222 251.764 32.1727 252.077 36.0219C252.367 39.5515 252.351 43.1041 252.741 46.6185C252.959 48.0799 253.084 49.5535 253.115 51.0307C253.115 51.6164 256.085 52.5521 256.711 52.8868C264.193 57.3217 272.033 55.2754 275.797 53.792C276.041 53.6627 274.056 42.7998 273.881 41.0045Z" fill="#E96968"/>
<path d="M260.726 17.1406L257.382 29.6771L259.054 73.844C259.054 73.844 267.673 77.0542 272.575 76.5977C277.476 76.1413 277.743 73.3115 277.743 73.3115C277.743 73.3115 275.636 29.4109 274.872 26.6419C274.109 23.8729 268.589 19.7575 268.589 19.7575" fill="#E4E9EA"/>
<path d="M254.673 28.9234C254.97 28.2464 255.329 17.7334 255.329 17.7334C255.329 17.7334 252.604 18.8973 251.894 19.7493C251.184 20.6013 251.894 56.9861 251.894 56.9861C251.894 56.9861 251.703 71.5384 251.894 71.896C252.085 72.2535 254.612 73.7825 255.329 73.3337C256.047 72.8849 254.673 28.9234 254.673 28.9234Z" fill="#E4E9EA"/>
<path d="M251.405 9.41972C251.466 10.1804 252.642 20.1686 258.215 19.7426C264.399 19.2709 263.246 5.34992 257.833 4.52836C252.42 3.70679 251.283 7.90591 251.405 9.41972Z" fill="#FFB087"/>
<path d="M265.01 2.97614C262.483 0.640754 259.207 -0.736134 255.627 0.412539C251.71 1.66771 249.519 6.0418 250.038 9.96706C250.038 9.96706 256.909 10.1725 258.574 9.62474C258.574 9.62474 259.253 19.0119 258.574 21.7961C258.131 23.5914 261.429 23.9793 262.528 24.0782C264.819 24.2836 271.064 24.1163 271.27 20.7615C271.652 14.5085 269.804 7.39586 265.01 2.97614Z" fill="#842626"/>
<path d="M225.447 124.135C225.447 122.499 225.447 120.643 225.394 118.81C213.759 125.139 198.452 125.557 186.198 119.996V124.667C192.607 126.869 199.338 127.995 206.117 127.999C212.762 128.089 219.351 126.772 225.447 124.135V124.135Z" fill="#3F2A29"/>
<path d="M225.287 114.481C225.218 112.031 225.142 110.259 225.142 110.259C225.142 110.259 224.462 108.517 221.18 108.114C217.897 107.711 188.657 108.114 188.657 108.114C188.107 108.35 186.198 108.243 186.198 111.849V115.911C198.162 122.468 214.133 121.845 225.287 114.481Z" fill="#3F2A29"/>
<path d="M225.394 118.825C225.394 117.304 225.325 115.782 225.287 114.481C214.133 121.845 198.154 122.469 186.198 115.912V120.012C198.452 125.573 213.759 125.154 225.394 118.825Z" fill="#6B5151"/>
<path d="M206.117 128C199.337 127.993 192.606 126.865 186.198 124.66V128.517C198.413 132.67 213.362 132.45 225.325 127.977C225.401 127.079 225.44 125.695 225.447 124.112C219.353 126.758 212.764 128.083 206.117 128V128Z" fill="#6B5151"/>
<path d="M205.513 118.049C205.513 118.049 191.008 117.418 188.534 108.738C186.061 100.058 187.656 94.117 181.358 84.319C175.059 74.5211 171.196 66.275 171.112 56.7509C171.028 47.2268 177.159 25.6987 203.238 25.0597C229.318 24.4207 240.876 43.37 240.525 56.0586C240.174 68.7473 232.127 76.4533 228.623 85.772C225.119 95.0907 224.042 105.847 223.37 107.612C222.699 109.377 220.569 116.444 205.513 118.049Z" fill="#D8CEEA"/>
<path d="M225.402 52.6888C225.053 50.5353 223.936 48.5795 222.256 47.1812C220.899 46.0908 219.213 45.4866 217.47 45.466C215.727 45.4453 214.027 46.0092 212.644 47.0671C210.988 45.5761 208.878 44.6815 206.651 44.5264C205.362 44.4361 204.069 44.6185 202.856 45.0617C201.643 45.5048 200.537 46.1986 199.612 47.0976C199.131 46.8101 198.619 46.5778 198.085 46.4053C196.916 46.0586 195.679 46.0007 194.482 46.2366C193.285 46.4725 192.163 46.9951 191.214 47.7594C186.198 51.4945 185.359 57.9681 186.321 63.4757C187.588 70.7328 190.237 77.815 192.619 84.7755C193.008 85.9318 197.749 98.0728 197.589 98.1488C197.428 98.2262 197.272 98.3152 197.123 98.4151C197.123 98.4151 194.833 99.6931 194.428 101.694C194.216 103.294 194.216 104.916 194.428 106.517C194.428 106.517 195.711 110.518 204.819 110.64C213.927 110.761 215.859 106.205 215.859 106.205V101.732C215.859 101.732 215.561 99.8604 213.011 98.4607C212.736 98.3086 216.912 88.214 217.271 87.225C218.66 83.4215 219.981 79.5343 221.18 75.647C222.6 71.0371 224.234 66.45 224.997 61.7108C225.509 58.9418 225.974 55.6556 225.402 52.6888ZM214.026 53.0159C214.225 54.5906 213.751 56.8194 211.843 57.3976C209.759 58.0138 210.194 54.5145 210.484 53.5027C210.92 52.0303 211.638 50.656 212.599 49.4558C213.362 50.5104 213.855 51.7353 214.034 53.0235L214.026 53.0159ZM199.826 49.2732C200.726 50.2051 201.347 51.3696 201.616 52.6349C201.886 53.9001 201.795 55.2153 201.353 56.4315C201.095 57.1288 200.671 57.7529 200.116 58.2496C199.231 59.0103 198.49 58.8886 197.917 57.9377C197.062 56.5228 197.353 54.7275 197.803 53.2441C198.233 51.8103 198.918 50.4652 199.826 49.2732V49.2732ZM211.408 97.7609C210.157 97.3481 208.859 97.0925 207.545 97.0002C204.778 96.7027 201.98 96.888 199.276 97.5479C198.803 97.6772 192.955 80.0515 192.451 78.4236C191.433 75.1576 190.484 71.8764 189.603 68.58C188.145 63.1257 186.771 56.9868 189.863 51.7759C191.527 48.9689 194.993 46.3901 198.505 48.2615C197.885 49.0361 197.36 49.8813 196.94 50.7794C195.981 52.6077 195.575 54.6744 195.772 56.7282C195.994 58.2115 197.017 60.3263 198.933 60.3948C200.849 60.4632 202.315 58.531 202.91 57.1085C203.673 55.1903 203.686 53.0571 202.949 51.1293C202.518 49.952 201.821 48.8897 200.91 48.0256C201.659 47.3336 202.539 46.7981 203.498 46.451C204.861 46.0022 206.318 45.9228 207.722 46.2209C209.125 46.519 210.424 47.1839 211.484 48.1473C210.302 49.5189 209.418 51.1196 208.888 52.8485C208.377 54.5145 208.125 57.1846 209.652 58.5006C211.072 59.7025 213.27 58.6984 214.332 57.5802C215.859 55.9979 216.004 53.7766 215.523 51.8216C215.203 50.5153 214.604 49.2932 213.767 48.2386C214.839 47.3936 216.175 46.9512 217.541 46.9888C218.908 47.0263 220.217 47.5414 221.241 48.444C224.852 51.6847 223.798 57.8464 222.913 61.9314C220.287 74.2245 215.965 86.0307 211.385 97.7609H211.408Z" fill="#3F2A29"/>
<path d="M186.083 34.1505C183.582 36.0689 181.579 38.5577 180.243 41.4076C180.106 41.6439 180.018 41.9051 179.984 42.1759C179.951 42.4466 179.972 42.7214 180.046 42.9839C180.121 43.2463 180.248 43.4912 180.42 43.7039C180.591 43.9166 180.804 44.0929 181.045 44.2223C181.976 44.7395 183.64 44.5037 184.098 43.4616C185.258 40.9325 187.022 38.7254 189.237 37.0335C191.428 35.3448 188.236 32.4465 186.083 34.1505Z" fill="white"/>
<path d="M180.449 46.329C180.168 46.3119 179.885 46.3525 179.62 46.4482C179.355 46.5438 179.112 46.6926 178.906 46.8854C178.7 47.0782 178.537 47.3108 178.425 47.569C178.313 47.8272 178.255 48.1055 178.255 48.3867C178.255 48.668 178.313 48.9463 178.425 49.2045C178.537 49.4627 178.7 49.6953 178.906 49.888C179.112 50.0808 179.355 50.2296 179.62 50.3253C179.885 50.421 180.168 50.4615 180.449 50.4444C180.731 50.4615 181.014 50.421 181.279 50.3253C181.544 50.2296 181.787 50.0808 181.993 49.888C182.199 49.6953 182.362 49.4627 182.474 49.2045C182.586 48.9463 182.644 48.668 182.644 48.3867C182.644 48.1055 182.586 47.8272 182.474 47.569C182.362 47.3108 182.199 47.0782 181.993 46.8854C181.787 46.6926 181.544 46.5438 181.279 46.4482C181.014 46.3525 180.731 46.3119 180.449 46.329V46.329Z" fill="white"/>
<path d="M233.12 33.7924C233.12 33.7924 227.921 29.1673 227.318 28.9315C226.715 28.6957 227.188 31.4038 228.081 31.9743C228.081 31.9743 224.096 31.6092 222.607 31.9743C221.119 32.3395 221.493 36.5386 222.104 37.0407C223.463 37.8613 224.917 38.5176 226.432 38.9957C226.867 38.9957 233.12 38.5621 233.12 38.5621L238.251 39.5738L239.724 35.4508L233.12 33.7924Z" fill="#FFB087"/>
<path d="M263.819 25.3036C263.819 25.3036 255.421 36.0753 253.565 36.8512C251.71 37.6271 235.83 31.0774 235.83 31.0774C235.83 31.0774 232.7 39.1714 233.479 39.9625C234.258 40.7536 254.726 49.0074 260.139 46.9839C265.552 44.9604 271.3 34.9722 271.3 34.9722C271.3 34.9722 274.744 24.6798 263.819 25.3036Z" fill="#E4E9EA"/>
<path d="M116.205 52.8369C114.691 55.0628 113.304 57.3726 112.052 59.7553C112.052 59.7553 111.617 64.8978 111.617 68.32C111.617 74.6094 112.588 79.4653 113.467 91.8591C112.036 94.2971 111.217 97.0454 111.081 99.8689C110.711 105.483 110.701 105.418 110.664 131.316C111.507 131.771 112.432 132.052 113.385 132.144C114.338 132.237 115.3 132.137 116.214 131.853L124.538 95.5865L125.463 81.3521L128.071 63.6584L116.205 52.8369Z" fill="#37474F"/>
<path d="M126.999 53.9375C124.603 58.6453 122.291 62.7982 122.217 67.8112C122.041 78.42 126.444 90.1017 128.063 97.7693C127.58 100.544 127.444 103.368 127.656 106.177C127.979 109.386 135.296 138.549 135.296 138.549C135.296 138.549 139.365 139.4 141.095 137.559L139.041 81.4075L138.486 65.1012L126.999 53.9375Z" fill="#37474F"/>
<path d="M130.29 25.1815L128.782 33.5335L121.235 32.9785L122.817 23.5166L130.29 25.1815Z" fill="#FFA8A7"/>
<path d="M113.271 32.3681C114.02 30.102 116.897 27.6325 119.745 28.169C124.024 28.8963 128.242 29.9475 132.361 31.3137C134.997 32.2386 137.402 34.5417 137.624 43.2174L138.447 65.0454C137.307 66.0588 135.94 66.7822 134.461 67.1542C130.456 68.2549 127.811 68.9115 121.725 67.5797C113.798 65.8501 111.911 61.0497 111.911 61.0497C111.911 61.0497 112.217 49.4975 112.457 43.2174C112.651 37.8806 112.762 33.9312 113.271 32.3681Z" fill="#3E7269"/>
<path d="M145.192 41.5557C146.07 41.7812 146.974 41.8917 147.881 41.8846C150.241 41.9518 152.602 41.8864 154.955 41.6889C159.446 41.3122 163.884 40.4574 168.368 40.0164C173.03 39.5565 177.916 39.4916 182.039 37.2759C182.793 36.9167 183.452 36.3878 183.966 35.731C184.218 35.3996 184.381 35.0098 184.439 34.5983C184.498 34.1868 184.451 33.7673 184.301 33.3794C184.115 33.0349 183.852 32.7378 183.532 32.5113C183.212 32.2848 182.844 32.1351 182.457 32.0737C181.682 31.9598 180.894 31.9662 180.12 32.0927L175.866 32.5702C175.778 32.5813 175.676 32.5942 175.627 32.5119C175.609 32.4771 175.601 32.4383 175.604 32.3994C175.607 32.3606 175.619 32.3231 175.641 32.2908C175.882 31.9291 176.143 31.5812 176.424 31.2487C176.655 30.877 176.719 30.3223 176.366 30.063C176.245 29.9941 176.111 29.9515 175.972 29.9379C175.833 29.9244 175.693 29.9401 175.561 29.9841C173.745 30.3989 172.622 32.1652 171.159 33.3166C169.053 34.9766 166.181 35.3404 163.486 35.3317C160.112 35.3244 156.758 34.841 153.416 34.36L150.589 33.9485C148.442 33.6394 146.107 33.3619 144.226 34.4469C143.505 34.8781 142.896 35.473 142.45 36.183C142.003 36.893 141.731 37.698 141.655 38.5325C141.564 40.1528 143.828 41.1475 145.192 41.5557Z" fill="#FFA8A7"/>
<path d="M135.877 15.2939C135.877 15.2939 137.727 17.9947 137.468 18.2907C137.051 18.5693 136.587 18.7727 136.099 18.8919L135.877 15.2939Z" fill="#FFA8A7"/>
<path d="M130.299 6.76597C132.056 7.69089 135.09 9.291 135.932 15.7284C136.792 22.3323 135.654 24.4596 134.766 25.3383C134.156 25.9302 130.882 25.9672 129.217 25.4678C127.163 24.8573 122.53 23.0908 120.412 19.6963C117.924 15.7007 117.369 10.3546 120.171 8.22733C121.597 7.14558 123.275 6.44397 125.046 6.18835C126.818 5.93273 128.625 6.13148 130.299 6.76597V6.76597Z" fill="#FFA8A7"/>
<path d="M125.13 86.4666L121.125 75.1456C118.021 74.0452 115.239 72.1888 113.032 69.7441C113.032 69.7441 113.957 72.9721 120.283 76.2833L124.677 86.9938V92.9503L125.13 86.4666Z" fill="#263238"/>
<path d="M136.292 8.94031C135.718 10.5219 134.747 14.4066 130.696 16.0252C130.696 16.0252 130.114 13.5556 128.042 13.8146C125.97 14.0736 125.609 16.7281 126.886 18.3744C128.162 20.0208 129.401 19.4289 129.401 19.4289C129.401 19.4289 129.679 22.9713 127.311 24.5807C126.43 25.1004 125.439 25.4085 124.419 25.4808C123.398 25.553 122.374 25.3873 121.429 24.9968C120.069 24.3772 118.136 21.1122 117.007 18.4299C114.621 12.7694 114.279 8.25587 117.932 6.7945C118.386 4.22323 119.542 3.25206 121.873 2.77111C126.886 1.74445 130.678 5.03716 134.886 4.45446C137.041 4.14924 136.958 7.12748 136.292 8.94031Z" fill="#263238"/>
<path d="M117.813 7.69137L115.445 6.22076C115.651 5.93231 115.96 5.73317 116.308 5.66374C116.655 5.59432 117.017 5.65981 117.318 5.84693C117.619 6.03405 117.838 6.3288 117.93 6.67133C118.022 7.01387 117.98 7.37854 117.813 7.69137V7.69137Z" fill="#263238"/>
<path d="M146.32 31.9712C146.32 31.9712 135.267 31.333 132.446 31.3145C129.625 31.296 126.629 36.1148 128.386 39.3983C129.551 41.5533 133.186 42.2933 137.765 42.5152C142.343 42.7372 146.958 42.7372 146.958 42.7372C146.958 42.7372 151.074 38.0479 146.32 31.9712Z" fill="#3E7269"/>
<path d="M137.626 42.5144C137.626 42.5144 130.624 42.4219 128.33 39.3975C128.33 39.3975 128.867 41.2473 131.586 42.385C133.535 43.1339 135.588 43.5769 137.672 43.6983L137.626 42.5144Z" fill="#37474F"/>
</g>
<defs>
<clipPath id="clip0_7303_142274">
<rect width="400" height="128" fill="white"/>
</clipPath>
</defs>
</svg>
