<svg width="400" height="128" viewBox="0 0 400 128" fill="none" xmlns="http://www.w3.org/2000/svg">
<g clip-path="url(#clip0_7303_114179)">
<path d="M172.268 55.9182C172.13 56.2106 171.941 56.4765 171.712 56.7036C169.869 58.6555 167.484 60.0069 164.866 60.5823C163.942 60.7959 162.997 60.9032 162.048 60.9023C161.492 57.3048 160.927 53.7025 160.491 50.0905C160.148 47.2687 159.892 44.4518 159.771 41.6204C159.689 39.8459 155.856 33.6594 156.639 32.0012C157.504 30.1782 163.735 36.4181 164.436 37.6059C168.328 44.1512 169.725 49.2129 172.393 54.8419C172.494 55.2033 172.449 55.59 172.268 55.9182V55.9182Z" fill="#498DB4"/>
<path d="M165.496 59.9227C165.309 60.1662 165.098 60.3904 164.867 60.5918C163.943 60.8053 162.997 60.9127 162.049 60.9117C161.493 57.3143 160.927 53.7119 160.492 50.0999C160.657 47.262 160.955 44.4354 161.387 41.6201C161.203 42.7983 162.648 45.3679 163.04 46.5218L164.737 51.5496C165.621 54.1725 167.511 57.3628 165.496 59.9227Z" fill="url(#paint0_linear_7303_114179)"/>
<path d="M163.412 66.0748C163.799 68.4408 164.292 70.8358 165.457 72.9303C166.057 74.0067 166.951 75.0636 168.164 75.2527C168.839 75.3167 169.519 75.2152 170.146 74.9569C171.446 74.5087 172.671 73.8681 173.782 73.0564C174.843 72.2403 175.843 71.3475 176.774 70.3849C178.159 69.0738 179.441 67.6571 180.608 66.1475C181.144 65.4202 181.632 64.6542 182.217 63.9609C184.634 61.0761 188.502 59.7816 191.243 57.2071C191.982 56.5186 193.481 53.3672 193.37 52.3587C192.364 51.7769 190.3 54.1187 189.188 54.4581C188.076 54.7975 187.037 55.3502 185.92 55.6653C184.583 56.0393 183.172 56.0576 181.826 55.7186C181.371 55.6023 180.83 48.4122 180.375 48.577C180.147 48.6732 179.942 48.8189 179.776 49.0037C178.838 49.9733 178.326 58.2495 177.547 59.3258C176.479 60.7803 175 61.8858 173.535 62.9427C173.405 63.0348 173.24 63.1318 173.095 63.0591C173.047 63.0234 173.007 62.9784 172.977 62.9267C172.948 62.875 172.928 62.8178 172.921 62.7585C172.539 61.3379 172.109 59.927 171.64 58.5355C171.311 57.5659 170.847 56.4992 169.876 56.2083C169.01 55.9514 168.111 56.4411 167.338 56.9113C166.342 57.5222 165.336 58.1234 164.345 58.7392C163.794 59.0786 163.127 59.4083 162.866 60.0337C162.547 60.7852 162.818 61.8227 162.91 62.5936C163.055 63.7621 163.224 64.9208 163.412 66.0748Z" fill="#E1B79F"/>
<path d="M172.234 132.017C172.234 133.501 172.161 134.96 172.031 136.41C170.903 148.816 165.067 160.313 155.728 168.527C146.39 176.74 134.262 181.043 121.851 180.545C109.44 180.047 97.6943 174.787 89.0397 165.851C80.3852 156.916 75.4834 144.988 75.3471 132.531C75.3471 132.366 75.3471 132.206 75.3471 132.046C75.2832 125.625 76.489 119.254 78.895 113.303C81.3009 107.352 84.8592 101.938 89.3642 97.3745C93.8691 92.811 99.2314 89.1883 105.141 86.716C111.05 84.2437 117.39 82.9707 123.793 82.9707C130.196 82.9707 136.535 84.2437 142.445 86.716C148.354 89.1883 153.717 92.811 158.222 97.3745C162.727 101.938 166.285 107.352 168.691 113.303C171.097 119.254 172.303 125.625 172.239 132.046L172.234 132.017Z" fill="#88D0E0"/>
<path opacity="0.55" d="M146.004 113.022C147.938 113.72 150.041 114.219 151.626 115.543C153.033 116.711 153.889 118.403 154.58 120.096C156.885 125.774 157.716 131.946 156.997 138.035C156.804 139.654 156.513 141.322 156.934 142.883C157.355 144.444 158.79 145.908 160.405 145.714C162.643 141.254 162.692 136.047 162.696 131.053C162.696 127.407 162.696 123.683 161.478 120.246C160.482 117.414 158.723 114.913 156.905 112.532C150.277 103.805 142.257 95.6647 132.048 91.7423C131.624 91.5251 131.138 91.465 130.675 91.5726C128.572 92.3435 128.915 96.0962 129.732 97.604C130.892 99.687 132.184 101.693 133.599 103.611C136.705 107.92 141.025 111.197 146.004 113.022V113.022Z" fill="url(#paint1_linear_7303_114179)"/>
<path opacity="0.55" d="M126.885 102.065C126.913 101.412 126.997 100.764 127.136 100.125C127.21 99.8088 127.37 99.5188 127.598 99.2871C127.825 99.0553 128.112 98.8908 128.427 98.8115C128.692 98.8043 128.957 98.78 129.219 98.7388C129.756 98.5739 129.983 97.9485 130.138 97.4103L131.854 91.3984C132.183 90.2348 132.516 89.013 132.265 87.8348C131.869 85.9924 130.181 84.7464 128.538 83.8446C127.344 83.1852 126 82.5986 124.67 82.8458C122.611 83.2289 121.417 85.3621 120.648 87.316C119.754 89.4096 119.204 91.6348 119.019 93.905C118.884 96.5279 118.662 102.952 120.281 105.245C122.524 108.465 126.527 104.974 126.885 102.065Z" fill="url(#paint2_linear_7303_114179)"/>
<path d="M152.96 94.477C157.345 95.9654 162.019 96.5909 166.244 98.4866C166.381 98.5279 166.507 98.597 166.615 98.6897C166.723 98.7823 166.811 98.8964 166.873 99.0247C166.91 99.2347 166.883 99.451 166.796 99.6453C163.227 110.288 161.215 121.393 160.82 132.614C163.349 133.07 165.932 133.128 168.478 132.784C168.764 132.766 169.041 132.678 169.285 132.527C169.52 132.321 169.696 132.057 169.798 131.761C173.887 122.552 177.558 113.171 180.81 103.616C181.385 101.924 181.956 100.154 181.723 98.3799C181.39 95.7957 179.451 93.7594 177.61 91.9219L163.257 77.5611C162.892 77.1482 162.444 76.8178 161.942 76.5914C161.365 76.4191 160.754 76.3892 160.163 76.5041C154.502 77.2071 146.772 77.4253 136.369 76.9889C135.02 76.9308 141.687 84.6348 142.243 86.1136C142.687 87.2869 144.094 88.7996 144.955 89.711C147.111 91.9801 150.021 93.4782 152.96 94.477Z" fill="#525263"/>
<path d="M152.96 94.477C157.345 95.9654 162.019 96.5909 166.244 98.4866C166.381 98.5279 166.507 98.597 166.615 98.6897C166.723 98.7823 166.811 98.8964 166.873 99.0247C166.91 99.2347 166.883 99.451 166.796 99.6453C163.227 110.288 161.215 121.393 160.82 132.614C163.349 133.07 165.932 133.128 168.478 132.784C168.764 132.766 169.041 132.678 169.285 132.527C169.52 132.321 169.696 132.057 169.798 131.761C173.887 122.552 177.558 113.171 180.81 103.616C181.385 101.924 181.956 100.154 181.723 98.3799C181.39 95.7957 179.451 93.7594 177.61 91.9219L163.257 77.5611C162.892 77.1482 162.444 76.8178 161.942 76.5914C161.365 76.4191 160.754 76.3892 160.163 76.5041C154.502 77.2071 146.772 77.4253 136.369 76.9889C135.02 76.9308 141.687 84.6348 142.243 86.1136C142.687 87.2869 144.094 88.7996 144.955 89.711C147.111 91.9801 150.021 93.4782 152.96 94.477Z" fill="url(#paint3_linear_7303_114179)"/>
<path d="M118.343 55.1369C117.92 56.2043 117.637 57.3223 117.502 58.4629C117.042 61.416 116.748 64.3928 116.622 67.379C116.38 73.0807 116.747 78.7921 116.588 84.4937C116.424 90.4233 115.727 96.571 117.854 102.103C118.186 103.107 118.745 104.02 119.488 104.77C119.865 105.139 120.328 105.405 120.836 105.544C121.343 105.683 121.878 105.69 122.389 105.565C122.851 105.386 123.266 105.103 123.602 104.737C123.937 104.371 124.184 103.933 124.323 103.456C124.589 102.5 124.706 101.509 124.671 100.518L124.748 95.0971C124.748 94.9856 124.748 94.8547 124.859 94.8062C124.906 94.79 124.956 94.7864 125.004 94.7958C125.052 94.8052 125.098 94.8271 125.135 94.8595C125.551 95.22 125.946 95.6036 126.319 96.0086C126.749 96.3577 127.436 96.5274 127.818 96.1249C127.923 95.9838 127.998 95.822 128.037 95.6499C128.077 95.4778 128.079 95.2993 128.045 95.1262C127.813 92.7796 125.773 91.0875 124.559 89.0657C122.809 86.1567 122.81 82.4914 123.249 79.1072C123.796 74.8697 124.937 70.7341 126.073 66.613L127.039 63.127C127.769 60.4798 128.49 57.5902 127.426 55.0545C126.999 54.0806 126.349 53.2216 125.528 52.5476C124.707 51.8735 123.739 51.4035 122.703 51.1758C120.682 50.8025 119.073 53.4885 118.343 55.1369Z" fill="#E1B79F"/>
<path d="M163.223 77.1828C162.599 78.8652 159.08 76.9016 157.069 77.91C153.231 79.8494 148.851 77.8567 144.573 77.91C140.019 77.9924 136.877 82.4917 132.357 83.0638C132.028 83.1318 131.689 83.1318 131.361 83.0638C130.737 82.8796 130.37 82.2542 130.104 81.6675C129.714 80.7625 129.435 79.8134 129.272 78.8409C128.712 75.6216 129.272 72.1696 129.872 68.8969C130.375 66.1237 130.876 63.3488 131.375 60.5723C131.955 57.34 132.54 54.0884 133.13 50.8174C133.474 48.6595 133.958 46.5265 134.58 44.4321C134.696 44.0685 134.817 43.7145 134.948 43.3654C136.072 40.5221 137.429 37.7767 139.004 35.1572C139.97 33.4748 140.937 31.7633 142.431 30.4882C144.099 29.0773 146.25 28.3743 148.411 28.0349C150.354 27.6676 152.358 27.7841 154.246 28.3743C155.324 28.7525 155.73 29.8967 156.585 30.5997C157.67 31.4057 158.638 32.3585 159.462 33.4312C160.298 34.7262 160.896 36.1615 161.226 37.6686C164.257 49.4889 159.873 62.2401 162.754 74.0944C163.083 75.4858 163.721 75.8543 163.223 77.1828Z" fill="#498DB4"/>
<path d="M159.104 35.661L159.481 38.1385L158.031 37.3288V43.8935L156.378 36.6016L157.978 34.2646L159.104 35.661Z" fill="url(#paint4_linear_7303_114179)"/>
<path d="M146.826 35.5016L147.739 35.9864L149.19 37.2519L145.322 47.6564C145.322 47.6564 150.94 38.9876 151.123 34.5659C151.237 31.846 150.899 29.1261 150.123 26.5176L146.826 35.5016Z" fill="url(#paint5_linear_7303_114179)"/>
<path d="M134.441 65.3233C134.134 67.7053 134.134 70.1169 134.441 72.4989C134.639 73.997 134.958 75.4903 134.857 76.9933C134.861 77.287 134.768 77.5738 134.591 77.8078C134.364 77.993 134.085 78.1031 133.793 78.123C132.282 78.3622 130.768 78.6062 129.254 78.8551C128.693 75.6358 129.254 72.1837 129.853 68.9111C130.356 66.1378 130.857 63.363 131.357 60.5865C131.937 57.3542 132.522 54.1026 133.111 50.8316C133.455 48.6737 133.94 46.5407 134.562 44.4463C134.678 44.0826 134.799 43.7287 134.929 43.3796C136.428 42.5457 138.511 41.9251 139.439 43.273C140.406 44.7275 139.135 48.1213 138.758 49.5758C137.385 54.846 135.132 59.8834 134.441 65.3233Z" fill="url(#paint6_linear_7303_114179)"/>
<path d="M169.213 23.2881C169.263 23.891 169.245 24.4977 169.16 25.0966C169.111 25.3952 168.962 25.6682 168.738 25.8708C168.514 26.0735 168.228 26.1937 167.927 26.2117C166.419 26.1002 165.331 27.5499 164.132 28.4807C163.191 29.1876 162.075 29.6209 160.905 29.7329C159.735 29.845 158.557 29.6315 157.5 29.1159C157.29 29.0401 157.059 29.0482 156.854 29.1385C156.65 29.2287 156.488 29.3942 156.402 29.6007C156.251 30.0284 156.218 30.4889 156.305 30.934L156.861 36.2381C156.968 37.2611 156.977 38.512 156.112 39.0647C155.247 39.6174 154.222 39.1374 153.506 38.512C152.382 37.4272 151.569 36.0591 151.152 34.5509C150.207 31.4952 150.071 28.2453 150.759 25.1211C151.446 21.9969 152.933 19.106 155.073 16.7332C155.876 15.8326 156.818 15.0666 157.862 14.4641C158.955 13.895 160.129 13.4977 161.343 13.286C162.429 13.0289 163.551 12.9665 164.659 13.1017C166.146 13.373 167.499 14.14 168.497 15.2786C169.232 16.0835 169.948 18.4834 170.721 18.8761C170.146 20.3403 169.237 21.6348 169.213 23.2881Z" fill="#E1B79F"/>
<path d="M167.806 23.0752C168.355 23.0752 168.801 22.6981 168.801 22.2329C168.801 21.7677 168.355 21.3906 167.806 21.3906C167.256 21.3906 166.811 21.7677 166.811 22.2329C166.811 22.6981 167.256 23.0752 167.806 23.0752Z" fill="#231F20"/>
<path d="M169.163 19.5531L168.892 20.5243L165.588 20.3977L166.001 19.4704L169.163 19.5531Z" fill="#231F20"/>
<path d="M157.707 2.46986C156.999 2.30358 156.259 2.3253 155.561 2.53289C154.198 3.01773 153.434 4.44799 152.941 5.81038C152.448 7.17277 152.042 8.66122 150.969 9.62604C150.045 10.46 148.735 10.7945 147.904 11.7157C146.937 12.7872 146.845 14.3726 146.937 15.8126C146.937 16.8929 147.24 17.9514 147.812 18.867C148.324 19.5652 149.112 20.05 149.514 20.8064C149.968 21.6742 150.123 23.0172 151.099 23.0754C151.506 23.0548 151.891 22.8818 152.177 22.5906C153.164 21.7349 153.908 20.6326 154.333 19.3955C154.57 18.707 154.725 17.941 155.247 17.4561C155.769 16.9713 156.832 16.9422 157.069 17.6307C157.136 18.0687 157.068 18.5167 156.876 18.9155C156.75 19.3422 156.803 19.9191 157.219 20.0646C158.002 18.8525 158.442 17.4271 159.37 16.3265C159.897 15.7075 160.558 15.2176 161.303 14.8943C162.047 14.571 162.856 14.4229 163.666 14.4613C164.477 14.4996 165.267 14.7235 165.978 15.1157C166.689 15.5079 167.301 16.0581 167.767 16.724C168.251 17.4174 168.58 18.2416 169.256 18.7361C169.894 19.1257 170.623 19.3398 171.369 19.3567C173.032 19.5216 174.791 19.5846 176.29 18.8428C177.789 18.101 178.896 16.3022 178.32 14.7265C177.866 13.4902 176.57 12.7872 175.314 12.3896C174.057 11.992 172.713 11.7933 171.606 11.0854C170.102 10.1157 169.3 8.38971 168.425 6.82369C167.55 5.25767 166.365 3.64801 164.616 3.27954C163.901 3.16802 163.174 3.16802 162.459 3.27954C161.762 3.42785 161.049 3.48327 160.337 3.44438C159.467 3.26499 158.626 2.67349 157.707 2.46986Z" fill="#231F20"/>
<path d="M157.707 42.3087C158.812 47.9175 159.137 53.6525 158.674 59.3507C158.292 64.0924 157.384 68.8002 157.417 73.5564C157.489 74.894 157.448 76.2352 157.297 77.566C157.084 78.8848 148.266 78.3805 146.98 78.366C144.815 78.3369 147.561 81.275 145.931 79.8593C143.374 77.6242 142.233 74.1382 141.919 70.754C141.469 65.9299 142.456 61.101 143.529 56.3738C144.273 53.1012 145.066 49.8188 146.4 46.7401C148.054 42.9341 150.669 38.0906 151.51 34.0229C151.631 33.4265 149.576 31.2593 150.461 31.2884C151.036 31.2884 150.766 32.1853 150.867 32.6314C151.048 33.3106 151.396 33.9338 151.877 34.4447C152.552 35.2343 153.465 35.7809 154.478 36.001C155.131 36.1222 155.875 36.0931 156.349 36.5585C156.924 37.121 156.832 38.2167 156.997 38.9827C157.234 40.0785 157.485 41.1887 157.707 42.3087Z" fill="#F2F2F2"/>
<path d="M138.134 27.8846C135.794 28.9609 133.783 30.6287 131.883 32.3742C130.311 33.7953 128.826 35.3108 127.436 36.9122C126.208 38.3667 125.087 39.8746 123.791 41.2467C122.002 43.1327 119.769 44.9557 119.416 47.5495C119.308 48.9021 119.544 50.2601 120.103 51.4961C120.563 52.7581 121.242 53.9285 122.109 54.953C123.209 56.1734 124.66 57.0206 126.261 57.3772C126.763 57.5084 127.287 57.5315 127.799 57.445C128.519 57.2394 129.181 56.8675 129.732 56.359C130.992 55.4026 132.186 54.361 133.305 53.2415C134.446 52.0537 135.412 50.701 136.524 49.484C137.491 48.4368 138.521 47.4913 139.488 46.4635C140.643 45.232 141.673 43.889 142.702 42.546C144.159 40.7244 145.495 38.8084 146.7 36.8104C147.707 35.0472 148.507 33.1729 149.083 31.2251C149.456 29.9548 150.05 28.3452 148.764 27.4288C146.033 25.4992 140.856 26.6094 138.134 27.8846Z" fill="#498DB4"/>
<path d="M138.134 27.8846C135.794 28.9609 133.783 30.6287 131.883 32.3742C130.311 33.7953 128.826 35.3108 127.436 36.9122C126.208 38.3667 125.087 39.8746 123.791 41.2467C122.002 43.1327 119.769 44.9557 119.416 47.5495C119.308 48.9021 119.544 50.2601 120.103 51.4961C120.563 52.7581 121.242 53.9285 122.109 54.953C123.209 56.1734 124.66 57.0206 126.261 57.3772C126.763 57.5084 127.287 57.5315 127.799 57.445C128.519 57.2394 129.181 56.8675 129.732 56.359C130.992 55.4026 132.186 54.361 133.305 53.2415C134.446 52.0537 135.412 50.701 136.524 49.484C137.491 48.4368 138.521 47.4913 139.488 46.4635C140.643 45.232 141.673 43.889 142.702 42.546C144.159 40.7244 145.495 38.8084 146.7 36.8104C147.707 35.0472 148.507 33.1729 149.083 31.2251C149.456 29.9548 150.05 28.3452 148.764 27.4288C146.033 25.4992 140.856 26.6094 138.134 27.8846Z" fill="#498DB4"/>
<path d="M178.659 50.0222C178.136 50.3533 177.763 50.8757 177.617 51.4784C177.472 52.0812 177.567 52.7171 177.881 53.2512C178.692 54.6671 179.781 55.904 181.081 56.8874C181.854 57.7214 183.595 57.8571 185.142 56.9456C186.689 56.0341 194.07 52.0051 197.759 49.3725C198.03 49.1859 198.259 48.9461 198.434 48.6675C198.61 48.3889 198.726 48.0774 198.777 47.7521C198.828 47.4268 198.813 47.0945 198.732 46.7754C198.651 46.4563 198.505 46.1572 198.305 45.8962L195.216 42.0175C194.85 41.5585 194.328 41.2512 193.75 41.1545C193.172 41.0579 192.578 41.1787 192.084 41.4939L178.659 50.0222Z" fill="#3D3D54"/>
<path d="M129.596 91.8104C130.142 93.8187 131.109 95.6867 132.434 97.289C133.884 98.9859 135.857 100.198 137.752 101.352L145.733 106.225C146.903 106.9 148.023 107.66 149.083 108.498C151.698 110.661 153.434 113.676 155.121 116.624L166.762 136.973C167.351 138.015 168.178 139.193 169.372 139.155C170.015 139.071 170.62 138.801 171.112 138.379C172.606 137.327 174.211 136.129 174.656 134.35C174.965 133.109 174.656 131.804 174.284 130.573C172.495 124.508 169.691 118.796 166.878 113.119C162.408 104.133 157.872 95.1654 153.269 86.2153C152.046 83.8396 150.562 80.1403 148.542 78.3949C148.542 78.3949 129.766 77.2507 129.292 79.1173C128.237 83.297 128.342 87.6865 129.596 91.8104V91.8104Z" fill="#525263"/>
<path d="M129.596 91.8104C130.142 93.8187 131.109 95.6867 132.434 97.289C133.884 98.9859 135.857 100.198 137.752 101.352L145.733 106.225C146.903 106.9 148.023 107.66 149.083 108.498C151.698 110.661 153.434 113.676 155.121 116.624L166.762 136.973C167.351 138.015 168.178 139.193 169.372 139.155C170.015 139.071 170.62 138.801 171.112 138.379C172.606 137.327 174.211 136.129 174.656 134.35C174.965 133.109 174.656 131.804 174.284 130.573C172.495 124.508 169.691 118.796 166.878 113.119C162.408 104.133 157.872 95.1654 153.269 86.2153C152.046 83.8396 150.562 80.1403 148.542 78.3949C148.542 78.3949 129.766 77.2507 129.292 79.1173C128.237 83.297 128.342 87.6865 129.596 91.8104V91.8104Z" fill="url(#paint7_linear_7303_114179)"/>
<path d="M150.712 25.2275L148.058 26.2796L146.448 35.3121L151.8 35.0697L150.712 25.2275Z" fill="#498DB4"/>
<path d="M156.33 34.8512C156.33 35.2585 156.33 35.6658 156.33 36.073C156.33 36.2496 156.34 36.426 156.359 36.6015C156.388 36.7797 156.427 36.9561 156.475 37.13L157.142 39.7675L157.418 35.4815C158.206 35.8646 159.013 36.2136 159.835 36.5191C159.773 35.8768 159.61 35.2484 159.351 34.6573C158.868 33.4161 158.423 32.1701 157.901 30.9532C157.779 30.6281 157.603 30.3264 157.379 30.0611C157.266 29.9295 157.125 29.826 156.965 29.7587C156.806 29.6914 156.633 29.6621 156.461 29.6732C155.977 29.8768 156.282 31.695 156.287 32.0974L156.33 34.8512Z" fill="#498DB4"/>
<path d="M196.481 47.4486L185.615 54.1284C185.443 54.2216 185.244 54.2531 185.051 54.2179C184.859 54.1826 184.684 54.0826 184.556 53.9344L181.433 50.4048C181.369 50.3447 181.319 50.2707 181.288 50.1885C181.256 50.1063 181.244 50.018 181.251 49.9302C181.259 49.8425 181.286 49.7575 181.331 49.6818C181.376 49.6062 181.437 49.5417 181.511 49.4933L192.396 42.8184C192.568 42.7252 192.767 42.6936 192.959 42.7289C193.152 42.7641 193.327 42.8641 193.455 43.0123L196.578 46.5371C196.641 46.5986 196.689 46.6737 196.719 46.7567C196.749 46.8398 196.76 46.9286 196.751 47.0165C196.741 47.1043 196.712 47.1889 196.666 47.2638C196.619 47.3386 196.556 47.4018 196.481 47.4486Z" fill="#AFE7F4"/>
<path d="M165.569 27.2331C165.374 27.3977 165.182 27.5709 164.99 27.7437C164.8 27.9151 164.61 28.0861 164.419 28.2479C164.005 28.2805 163.591 28.2098 163.192 28.0377C162.704 27.8269 162.25 27.4684 161.86 26.9847C161.47 26.5011 161.151 25.9028 160.924 25.2275L165.569 27.2331Z" fill="white"/>
<path d="M278.168 39.3278C277.919 39.3278 274.344 36.0994 273.58 37.9906C272.815 39.8818 271.534 46.816 277.766 44.0652L278.168 39.3278Z" fill="#CA855E"/>
<path d="M275.548 43.0339C276.456 43.0339 277.193 42.1444 277.193 41.0472C277.193 39.95 276.456 39.0605 275.548 39.0605C274.64 39.0605 273.904 39.95 273.904 41.0472C273.904 42.1444 274.64 43.0339 275.548 43.0339Z" fill="#E5A17F"/>
<path d="M237.752 87.6006V132.377L215.709 142.616" stroke="#231F20" stroke-width="3" stroke-miterlimit="10" stroke-linecap="round"/>
<path d="M257.406 114.019L287.689 118.794" stroke="#594A42" stroke-miterlimit="10"/>
<path d="M266.793 100.819L297.478 104.449" stroke="#58595B" stroke-miterlimit="10"/>
<path d="M284.592 149.722L288.798 107.754L297.019 92.8535L297.477 132.052" stroke="#594A42" stroke-width="3" stroke-miterlimit="10"/>
<path d="M254.213 145.768L258.438 103.819L266.659 88.8994L267.118 128.098" stroke="#594A42" stroke-width="3" stroke-miterlimit="10"/>
<path d="M260.254 104.792L284.057 110.523C284.057 110.523 291.646 113.522 294.399 107.791L300.575 95.1071C300.575 95.1071 303.423 91.2866 294.954 89.0516C286.485 86.8166 268.59 84.8681 268.59 84.8681C268.59 84.8681 264.958 83.4737 261.956 89.6247C260.56 92.5283 258.821 95.7375 257.387 98.3354C257.06 98.9351 256.875 99.602 256.847 100.284C256.82 100.967 256.949 101.646 257.227 102.271C257.504 102.895 257.921 103.447 258.446 103.884C258.971 104.321 259.59 104.632 260.254 104.792Z" fill="#594A42"/>
<path d="M309.884 53.0244C309.884 53.0244 300.325 79.768 299.656 95.9288" stroke="#594A42" stroke-width="3" stroke-miterlimit="10"/>
<path d="M275.549 48.5732C270.752 61.5109 268.292 75.1971 268.284 88.9943Z" fill="#BCBEC0"/>
<path d="M275.549 48.5732C270.752 61.5109 268.292 75.1971 268.284 88.9943" stroke="#58595B" stroke-width="3" stroke-miterlimit="10"/>
<path d="M300.574 60.4937L302.218 81.8504L299.14 95.0885L265.913 90.5612L266.965 72.0699L265.913 57.3418L300.574 60.4937Z" fill="#FEDBD5"/>
<path d="M304.341 53.7891C308.491 57.7158 311.654 62.5656 313.575 67.9441L317.513 79.1382L314.301 82.7103L306.329 77.2279L302.926 69.4341L299.103 59.7873L304.341 53.7891Z" fill="#CA855E"/>
<path d="M304.742 50.1973L312.867 64.7343L303.136 68.956L299.141 59.3092L301.511 50.1973H304.742Z" fill="#FEDBD5"/>
<path d="M301.817 67.3136L313.346 62.5762L315.391 68.6317L303.251 73.4646L301.817 67.3136Z" fill="#EBB5B0"/>
<path d="M276.926 37.6469C276.926 37.3795 275.454 26.1854 283.674 26.5292C286.619 26.6439 290.347 26.5292 292.851 28.4395C295.929 30.6936 296.197 35.5075 296.12 38.9841C296.083 41.6541 295.795 44.3146 295.26 46.9308C295.025 47.8537 294.519 48.6852 293.807 49.3186C292.49 50.3224 290.98 51.0441 289.372 51.4385C287.763 51.8329 286.091 51.8916 284.458 51.6109C278.857 51.1907 275.74 49.5669 276.926 37.6469Z" fill="#CA855E"/>
<path d="M294.399 39.8629C294.648 39.8629 298.223 36.6346 298.988 38.5258C299.752 40.4169 301.033 47.3511 294.801 44.6004L294.399 39.8629Z" fill="#CA855E"/>
<path d="M283.426 39.5L282.164 42.3463C282.164 42.3463 281.017 43.0722 280.902 43.6644C280.788 44.2565 281.495 45.0206 281.495 45.0206L284.057 45.2308L285.586 44.5431L286.007 40.0349L283.426 39.5Z" fill="#E5A17F"/>
<path d="M278.321 111.383C278.321 111.383 283.483 112.014 284.057 113.809C284.511 116.485 284.741 119.195 284.745 121.909L286.37 124.64L291.36 114.764L290.92 110.027H292.602L293.348 105.824L284.458 104.354L280.252 103.398L278.321 111.383Z" fill="#231F20"/>
<path d="M299.141 88.0392C299.069 89.2473 298.87 90.4446 298.548 91.6114C298.106 93.7004 297.248 95.6795 296.027 97.4316C294.805 99.1837 293.244 100.673 291.437 101.812L275.263 111.994L267.252 146.875L255.781 145.309L260.599 112.319C260.849 110.581 261.453 108.913 262.374 107.418C263.295 105.923 264.512 104.633 265.952 103.627L279.449 94.1902L267.979 93.5598L268.59 84.8682L299.141 88.0392Z" fill="#398596"/>
<path d="M260.216 98.0879L282.03 95.9293L285.203 90.8098L268.399 87.6006L244.635 93.8662C243.364 94.2001 242.261 94.9911 241.538 96.0875C240.814 97.1838 240.522 98.5084 240.716 99.8071V99.8071C240.881 100.889 241.375 101.894 242.131 102.687C242.887 103.479 243.867 104.021 244.941 104.239L280.634 113.294C280.634 113.294 286.523 104.315 286.37 103.971C286.217 103.628 268.532 99.3296 260.216 98.0879Z" fill="#398596"/>
<path d="M248.764 39.8242L271.82 46.9495L274.918 70.2164L269.851 89.6246L247.923 81.4296L253.047 65.6318L248.764 39.8242Z" fill="#FDE3B6"/>
<path d="M271.821 47.3511L305.373 45.6318L299.657 72.6811L301.033 92.4522L269.852 90.0262L274.918 70.618L271.821 47.3511Z" fill="#FEF2DA"/>
<path d="M302.046 63.9516L298.223 62.5762H293.634V64.6584H297.573L300.574 66.1292H297.018L291.397 67.1608L291.799 68.6508L294.839 68.498L300.134 69.1284L293.539 70.3891L291.397 70.9431L292.028 72.2039H298.223L299.695 72.5095L295.278 73.7703L295.584 75.2794L300.574 74.6872C301.057 74.6179 301.504 74.3943 301.848 74.0499C302.193 73.7056 302.417 73.259 302.486 72.7769L303.442 66.0146C303.671 65.0404 302.046 63.9516 302.046 63.9516Z" fill="#CA855E"/>
<path d="M268.302 85.556H267.366C264.077 79.4623 252.071 74.9541 237.752 74.9541C223.432 74.9541 211.407 79.4623 208.119 85.556H207.239V89.8159C208.272 97.094 221.482 102.844 237.675 102.844C253.868 102.844 267.06 97.1131 268.111 89.8159L268.302 85.556Z" fill="#939598"/>
<path d="M251.231 59.5197L255.265 58.6982L259.604 59.4241V61.4872H255.647L252.645 62.9581H256.259L261.88 63.9897L261.497 65.4797L258.438 65.3268L253.143 65.9572L259.757 67.218L261.88 67.772L261.249 69.0327H255.054L253.601 69.3575L258.018 70.6182L257.712 72.1082L252.703 71.497C252.207 71.4379 251.743 71.2199 251.381 70.8756C251.019 70.5312 250.779 70.079 250.695 69.5867L249.74 61.64C249.676 61.164 249.794 60.6815 250.07 60.2885C250.347 59.8956 250.761 59.6211 251.231 59.5197V59.5197Z" fill="#CA855E"/>
<path d="M304.895 68.6309L315.621 75.8134C316.221 76.2519 316.708 76.8274 317.04 77.492C317.373 78.1566 317.542 78.891 317.532 79.6339V80.2834C317.517 81.5013 317.024 82.6644 316.158 83.5221C315.293 84.3797 314.125 84.8631 312.906 84.868H312.39C311.703 84.8704 311.025 84.7209 310.404 84.4303C309.782 84.1396 309.233 83.715 308.795 83.187L302.219 75.2021L304.895 68.6309Z" fill="#CA855E"/>
<path d="M300.574 74.7632L304.513 77.323L305.927 70.4651L302.945 64.7344L300.574 74.7632Z" fill="#CA855E"/>
<path d="M237.752 98.6798C254.614 98.6798 268.284 92.4365 268.284 84.7349C268.284 77.0334 254.614 70.79 237.752 70.79C220.89 70.79 207.221 77.0334 207.221 84.7349C207.221 92.4365 220.89 98.6798 237.752 98.6798Z" fill="#81B7A9"/>
<path d="M291.054 40.4742C290.983 40.9682 290.721 41.4147 290.324 41.7182C289.928 42.0216 289.428 42.1579 288.932 42.0979C288.437 42.0267 287.991 41.7649 287.687 41.3686C287.383 40.9724 287.247 40.473 287.307 39.9775" stroke="#231F20" stroke-width="0.5" stroke-miterlimit="10"/>
<path d="M282.316 39.4044C282.245 39.9022 281.981 40.3518 281.58 40.6558C281.179 40.9598 280.674 41.0936 280.175 41.0282C279.681 40.9525 279.235 40.6861 278.935 40.2861C278.635 39.886 278.504 39.3843 278.569 38.8887" stroke="#231F20" stroke-width="0.5" stroke-miterlimit="10"/>
<path d="M287.287 37.1125C289.082 36.8006 290.93 37.0894 292.545 37.9339L287.287 37.1125Z" fill="#231F20"/>
<path d="M277.805 35.7935C279.591 35.47 281.435 35.7524 283.043 36.5958L277.805 35.7935Z" fill="#231F20"/>
<path d="M297.018 43.9313C297.926 43.9313 298.662 43.0419 298.662 41.9447C298.662 40.8475 297.926 39.958 297.018 39.958C296.11 39.958 295.374 40.8475 295.374 41.9447C295.374 43.0419 296.11 43.9313 297.018 43.9313Z" fill="#E5A17F"/>
<path d="M219.324 78.0938H235.432V81.5915C235.432 83.7222 234.585 85.7656 233.077 87.2722C231.569 88.7788 229.524 89.6252 227.392 89.6252V89.6252C225.259 89.6252 223.214 88.7788 221.707 87.2722C220.199 85.7656 219.352 83.7222 219.352 81.5915V78.0938H219.324Z" fill="#FEF2DA"/>
<path d="M227.392 81.3456C231.832 81.3456 235.432 79.9876 235.432 78.3125C235.432 76.6373 231.832 75.2793 227.392 75.2793C222.951 75.2793 219.352 76.6373 219.352 78.3125C219.352 79.9876 222.951 81.3456 227.392 81.3456Z" fill="white"/>
<path d="M233.6 78.2858C233.583 78.429 233.536 78.5669 233.46 78.6897C233.384 78.8124 233.283 78.9171 233.162 78.9963C231.399 79.9582 229.396 80.3944 227.392 80.2532C225.379 80.3936 223.367 79.9575 221.594 78.9963C221.469 78.9218 221.364 78.8183 221.288 78.6946C221.212 78.5709 221.167 78.4307 221.156 78.2858C221.156 77.1654 223.891 76.2637 227.392 76.2637C230.892 76.2637 233.6 77.1654 233.6 78.2858Z" fill="#FEEDCB"/>
<path d="M233.163 78.8863C231.424 79.9202 229.411 80.397 227.393 80.2526C225.366 80.3957 223.344 79.9191 221.595 78.8863C223.335 77.829 225.362 77.3417 227.393 77.4927C229.415 77.342 231.433 77.8295 233.163 78.8863V78.8863Z" fill="#CFB383"/>
<path d="M234.502 81.1549C234.502 81.1549 235.705 78.4224 238.358 78.9962C241.011 79.57 239.534 86.4288 233.162 86.0189" stroke="#FEF2DA" stroke-width="0.5" stroke-miterlimit="10"/>
</g>
<defs>
<linearGradient id="paint0_linear_7303_114179" x1="151.733" y1="51.4187" x2="171.572" y2="51.115" gradientUnits="userSpaceOnUse">
<stop offset="0.01"/>
<stop offset="0.13" stop-opacity="0.69"/>
<stop offset="1" stop-opacity="0"/>
</linearGradient>
<linearGradient id="paint1_linear_7303_114179" x1="171.538" y1="91.2866" x2="128.077" y2="136.555" gradientUnits="userSpaceOnUse">
<stop offset="0.01"/>
<stop offset="0.13" stop-opacity="0.69"/>
<stop offset="1" stop-opacity="0"/>
</linearGradient>
<linearGradient id="paint2_linear_7303_114179" x1="108.389" y1="84.6494" x2="167.042" y2="121.279" gradientUnits="userSpaceOnUse">
<stop offset="0.01"/>
<stop offset="0.13" stop-opacity="0.69"/>
<stop offset="1" stop-opacity="0"/>
</linearGradient>
<linearGradient id="paint3_linear_7303_114179" x1="136.19" y1="104.702" x2="181.777" y2="104.702" gradientUnits="userSpaceOnUse">
<stop offset="0.01"/>
<stop offset="0.13" stop-opacity="0.69"/>
<stop offset="1" stop-opacity="0"/>
</linearGradient>
<linearGradient id="paint4_linear_7303_114179" x1="150.63" y1="32.9217" x2="164.067" y2="44.0681" gradientUnits="userSpaceOnUse">
<stop offset="0.01"/>
<stop offset="0.13" stop-opacity="0.69"/>
<stop offset="1" stop-opacity="0"/>
</linearGradient>
<linearGradient id="paint5_linear_7303_114179" x1="159.457" y1="32.4326" x2="134.663" y2="42.225" gradientUnits="userSpaceOnUse">
<stop offset="0.01"/>
<stop offset="0.13" stop-opacity="0.69"/>
<stop offset="1" stop-opacity="0"/>
</linearGradient>
<linearGradient id="paint6_linear_7303_114179" x1="117.666" y1="61.2216" x2="148.364" y2="60.1612" gradientUnits="userSpaceOnUse">
<stop offset="0.01"/>
<stop offset="0.13" stop-opacity="0.69"/>
<stop offset="1" stop-opacity="0"/>
</linearGradient>
<linearGradient id="paint7_linear_7303_114179" x1="143.316" y1="111.64" x2="177.775" y2="97.1915" gradientUnits="userSpaceOnUse">
<stop offset="0.01"/>
<stop offset="0.13" stop-opacity="0.69"/>
<stop offset="1" stop-opacity="0"/>
</linearGradient>
<clipPath id="clip0_7303_114179">
<rect width="400" height="128" fill="white"/>
</clipPath>
</defs>
</svg>
