<svg width="400" height="128" viewBox="0 0 400 128" fill="none" xmlns="http://www.w3.org/2000/svg">
<g clip-path="url(#clip0_7075_103842)">
<path d="M347.836 128.001H0.000976562V60.8174C57.6816 66.4791 115.249 73.8007 172.384 83.549C231.555 93.6448 292.021 105.166 347.836 128.001Z" fill="#A3C35E"/>
<path d="M128.28 128.001C88.1175 121.152 44.0042 114.51 -0.000976721 109.524L-0.00097668 106.406C14.9967 108.553 28.5371 110.763 39.9001 112.8C61.0893 116.919 95.3002 121.675 132.508 126.849L132.509 126.849L132.51 126.849C135.255 127.231 138.017 127.615 140.791 128.001L128.28 128.001Z" fill="#8CA35D"/>
<path d="M254.54 128.001L242.459 128.001C166.385 115.081 76.4567 102.983 -0.000976679 101.46L-0.000976473 95.8783C58.4974 97.9606 118.877 106.473 156.007 113.128C177.196 117.247 211.407 122.004 248.615 127.177L248.617 127.177L248.618 127.177C250.584 127.451 252.558 127.725 254.54 128.001Z" fill="#8CA35D"/>
<path d="M331.842 128.001L317.622 128.001C242.624 108.732 101.969 77.4603 44.8931 96.983L44.8411 96.8612L45.525 94.6984L46.4561 92.4297C88.6338 78.5804 176.141 94.5719 216.645 104.174C229.176 107.339 249.472 111.317 271.544 115.644C291.679 119.591 313.293 123.827 331.842 128.001Z" fill="#8CA35D"/>
<path d="M243.932 101.187C243.749 101.296 243.558 101.39 243.359 101.468C242.024 102.106 240.636 102.63 239.209 103.032C239.209 103.032 237.952 103.438 238.779 104.595C239.606 105.752 241.96 108.597 236.425 109.848C236.196 109.913 235.962 109.96 235.726 109.989C234.821 110.153 233.908 110.268 232.99 110.333C223.13 111.02 219.107 114.647 219.107 114.647L216.069 112.13C216.069 112.13 220.84 99.6233 226.216 96.9656C226.422 96.8561 226.613 96.7154 226.804 96.6216C227.448 96.214 228.201 96.0069 228.967 96.0275C229.289 96.0667 229.599 96.1753 229.874 96.3456C230.149 96.5158 230.382 96.7435 230.557 97.0125C230.738 97.3024 230.981 97.5502 231.269 97.7386C231.557 97.927 231.884 98.0516 232.225 98.1037C232.567 98.1557 232.917 98.134 233.249 98.0401C233.582 97.9462 233.89 97.7822 234.151 97.5597C234.883 97.1063 235.853 96.434 236.918 95.7774L237.634 95.3553C239.127 94.3948 240.847 93.8294 242.628 93.7137C243.323 93.7009 244.013 93.8336 244.652 94.1032C245.291 94.3728 245.864 94.7729 246.333 95.2771C246.424 95.355 246.504 95.4443 246.572 95.5429V95.5429L246.763 95.7774C248.48 98.0599 246.349 99.9985 243.932 101.187Z" fill="#55A491"/>
<path d="M246.761 95.8538C234.643 96.6199 217.324 112.879 217.181 113.051L216.768 112.66C220.321 109.461 224.037 106.44 227.9 103.608C232.798 100.075 239.955 95.7913 246.364 95.3379C246.455 95.4157 246.535 95.5051 246.602 95.6037L246.793 95.8382L246.761 95.8538Z" fill="#1D6D60"/>
<path d="M236.426 109.971L235.726 110.112C231.877 106.782 224.991 107.126 224.053 107.204H223.958H223.258L223.703 106.688C225.818 104.265 226.168 98.9809 226.216 96.9172C226.405 96.7862 226.601 96.6661 226.804 96.5576C226.84 99.6368 226.273 102.694 225.134 105.563V105.563C224.963 105.896 224.771 106.22 224.562 106.532H224.848C227.106 106.516 233.022 106.704 236.426 109.971Z" fill="#1D6D60"/>
<path d="M243.933 101.187C243.755 101.293 243.569 101.387 243.377 101.468C240.594 99.561 235.425 99.9049 234.566 99.9049H234.487L233.23 100.014L234.248 99.4047C235.567 98.5495 236.501 97.2284 236.856 95.7151C237.079 95.5744 237.302 95.4337 237.54 95.3086C237.344 96.4349 236.893 97.5034 236.22 98.4354V98.4354C235.973 98.7807 235.685 99.0957 235.361 99.3734C235.473 99.3656 235.584 99.3656 235.696 99.3734C237.763 99.3265 241.675 99.4985 243.933 101.187Z" fill="#1D6D60"/>
<path d="M244.027 79.2985L243.455 79.5799C242.114 80.2161 240.72 80.7391 239.288 81.1433C239.136 81.1967 238.999 81.2856 238.889 81.4025C238.779 81.5194 238.699 81.6607 238.657 81.8144C238.615 81.9681 238.611 82.1296 238.646 82.285C238.681 82.4404 238.754 82.5851 238.859 82.7067C239.574 83.7385 242.039 86.7246 236.521 87.9753C236.285 88.0342 236.046 88.0812 235.805 88.116C234.907 88.2812 233.999 88.3908 233.086 88.4443C223.21 89.1322 219.202 92.7749 219.202 92.7749L216.117 90.2422C216.117 90.2422 220.888 77.7351 226.263 75.0617C226.47 74.9679 226.645 74.8116 226.836 74.7178C227.487 74.3144 228.246 74.1128 229.015 74.1393C229.336 74.1746 229.646 74.2799 229.921 74.4476C230.196 74.6153 230.43 74.8411 230.605 75.1086C230.783 75.3994 231.023 75.6484 231.309 75.8382C231.595 76.0281 231.92 76.1542 232.261 76.2078C232.602 76.2615 232.95 76.2412 233.283 76.1486C233.615 76.0559 233.922 75.8931 234.183 75.6714C234.931 75.2024 235.885 74.5302 236.966 73.8735L237.666 73.4671C239.161 72.4953 240.887 71.924 242.676 71.8099C243.368 71.8022 244.054 71.9374 244.689 72.2067C245.325 72.476 245.896 72.8734 246.365 73.3733L246.62 73.639L246.81 73.8892C248.512 76.1717 246.397 78.0322 244.027 79.2985Z" fill="#55A491"/>
<path d="M246.811 73.8743C234.693 74.6404 217.374 90.9152 217.231 91.0716L216.817 90.6651C220.368 87.462 224.083 84.4407 227.95 81.6131C232.848 78.0955 240.004 73.7962 246.397 73.3428L246.652 73.6085L246.843 73.8587L246.811 73.8743Z" fill="#1D6D60"/>
<path d="M236.457 87.99L235.773 88.1307C231.909 84.8163 225.023 85.1603 224.1 85.2228H224.005H223.289L223.734 84.7069C225.834 82.2837 226.183 77.015 226.231 74.9357C226.426 74.8095 226.627 74.6946 226.835 74.5918C226.864 77.6668 226.292 80.7185 225.15 83.5813V83.5813C224.959 83.9252 224.768 84.2535 224.561 84.5506H224.943C227.154 84.5506 233.054 84.7225 236.457 87.99Z" fill="#1D6D60"/>
<path d="M244.027 79.2983L243.47 79.5797C240.687 77.6723 235.439 78.0163 234.675 78.0163H234.485L233.244 78.1257L234.262 77.516C235.583 76.6589 236.513 75.33 236.854 73.8108L237.554 73.4043C237.343 74.5291 236.888 75.5958 236.218 76.5311V76.5311C235.967 76.8681 235.679 77.1774 235.359 77.4535H235.677C237.808 77.344 241.721 77.516 244.027 79.2983Z" fill="#1D6D60"/>
<path d="M195.094 67.7451L195.555 67.9797C196.645 68.5047 197.778 68.9388 198.942 69.2773C198.942 69.2773 199.96 69.6212 199.276 70.6061C198.592 71.5911 196.604 73.858 201.153 74.9367L201.725 75.0461C202.46 75.1917 203.204 75.2909 203.952 75.3432C211.999 75.9998 215.243 79.0171 215.243 79.0171L217.756 76.8909C217.756 76.8909 214.002 66.6508 209.613 64.3839C209.438 64.3839 209.295 64.165 209.136 64.1025C208.611 63.7686 207.997 63.5946 207.371 63.6022C207.113 63.6326 206.866 63.7184 206.646 63.8535C206.426 63.9886 206.239 64.1697 206.099 64.3839C205.951 64.6206 205.753 64.8226 205.518 64.9755C205.282 65.1285 205.015 65.2286 204.736 65.2689C204.457 65.3092 204.172 65.2886 203.902 65.2086C203.632 65.1286 203.383 64.9912 203.172 64.806C202.568 64.4308 201.789 63.8679 200.914 63.2426L200.342 62.8986C199.131 62.0932 197.728 61.6135 196.27 61.5072C195.699 61.4992 195.133 61.6108 194.61 61.8345C194.086 62.0583 193.617 62.389 193.233 62.8048L193.026 63.0081L192.851 63.2113C191.404 65.1343 193.137 66.6977 195.094 67.7451Z" fill="#55A491"/>
<path d="M192.834 63.2893C202.726 64.0241 216.689 77.4848 216.832 77.6099L217.182 77.2972C214.325 74.646 211.331 72.1413 208.212 69.793C204.252 66.8695 198.448 63.3206 193.216 62.8672L193.009 63.0704L192.834 63.2737V63.2893Z" fill="#1D6D60"/>
<path d="M201.089 74.9368L201.645 75.0619C204.826 72.3729 210.456 72.7168 211.187 72.7794H211.267H211.839L211.474 72.3416C209.772 70.3405 209.533 66.0881 209.518 64.3214L209.04 64.0244C208.981 66.5415 209.412 69.0465 210.313 71.4036V71.4036C210.447 71.6796 210.602 71.946 210.774 72.2009H210.631C208.786 72.2009 203.967 72.2947 201.089 74.9368Z" fill="#1D6D60"/>
<path d="M195.093 67.7449L195.554 67.9794C197.844 66.416 202.122 66.7287 202.758 66.7756L203.776 66.8694L202.965 66.3692C201.877 65.639 201.128 64.5146 200.882 63.2424L200.309 62.8984C200.477 63.8075 200.84 64.6709 201.375 65.4311V65.4311C201.581 65.7088 201.816 65.9654 202.074 66.1972H201.804C200.15 66.2128 196.953 66.3222 195.093 67.7449Z" fill="#1D6D60"/>
<path d="M234.152 57.2544L233.771 57.442C232.869 57.8767 231.933 58.2375 230.972 58.5207C230.86 58.5525 230.759 58.6123 230.678 58.6942C230.598 58.7761 230.54 58.8772 230.511 58.9877C230.482 59.0981 230.483 59.2141 230.514 59.3241C230.544 59.4341 230.603 59.5344 230.685 59.6151C231.178 60.3186 232.896 62.3041 229.095 63.1952C228.94 63.2444 228.78 63.2759 228.618 63.289C228.016 63.4171 227.404 63.5007 226.789 63.5392C220.126 64.0707 217.454 66.5721 217.454 66.5721L215.402 64.8055C215.402 64.8055 218.583 56.3632 222.145 54.4872C222.288 54.4872 222.4 54.3152 222.527 54.2527C222.959 53.97 223.471 53.8278 223.99 53.8462C224.202 53.8723 224.405 53.9431 224.586 54.0538C224.767 54.1644 224.922 54.3122 225.04 54.4872C225.162 54.6823 225.326 54.8486 225.521 54.9744C225.715 55.1003 225.936 55.1825 226.166 55.2153C226.397 55.2481 226.632 55.2307 226.855 55.1643C227.078 55.0979 227.284 54.9842 227.457 54.8311C227.95 54.5184 228.602 54.0651 229.318 53.6117L229.795 53.3146C230.797 52.6607 231.952 52.268 233.15 52.1734C233.622 52.1652 234.09 52.2557 234.523 52.439C234.956 52.6223 235.345 52.8941 235.663 53.2365C235.729 53.2915 235.788 53.3546 235.838 53.4241L235.981 53.5804C237.19 55.1125 235.774 56.3945 234.152 57.2544Z" fill="#55A491"/>
<path d="M236.078 53.5803C227.903 54.19 216.342 65.3057 216.246 65.4151L215.96 65.1493C218.316 62.9677 220.784 60.9065 223.355 58.9739C226.631 56.5507 231.434 53.6115 235.744 53.2363C235.81 53.2914 235.868 53.3544 235.918 53.4239L236.062 53.5803H236.078Z" fill="#1D6D60"/>
<path d="M229.14 63.1955L228.679 63.305C226.055 61.0849 221.395 61.3664 220.727 61.4289H220.25L220.552 61.0693C221.952 59.4121 222.142 55.832 222.142 54.4406L222.54 54.1904C222.574 56.2703 222.213 58.3381 221.475 60.2876V60.2876C221.347 60.5065 221.22 60.741 221.077 60.9443H221.268C222.826 60.9443 226.818 61.0224 229.14 63.1955Z" fill="#1D6D60"/>
<path d="M234.15 57.2552L233.768 57.4584C231.876 56.1764 228.33 56.4266 227.805 56.4735H226.962L227.646 56.067C228.533 55.4799 229.154 54.5778 229.379 53.55C229.527 53.4471 229.681 53.3531 229.84 53.2686C229.701 54.0192 229.403 54.7328 228.966 55.3635C228.796 55.599 228.598 55.8141 228.377 56.0045H228.6C230.536 55.8563 232.473 56.2927 234.15 57.2552V57.2552Z" fill="#1D6D60"/>
<path d="M192.723 91.8058L193.264 92.1028C194.522 92.7786 195.836 93.3487 197.192 93.8069C197.192 93.8069 198.384 94.2603 197.51 95.3703C196.635 96.4803 194.186 99.0755 199.498 100.576L200.166 100.748C201.024 100.954 201.895 101.106 202.774 101.202C212.316 102.39 215.926 106.111 215.926 106.111L218.995 103.734C218.995 103.734 215.115 91.4775 210.042 88.5696C209.835 88.4601 209.676 88.3038 209.485 88.21C208.879 87.7883 208.159 87.5542 207.418 87.5377C207.104 87.555 206.798 87.6412 206.523 87.79C206.248 87.9388 206.01 88.1464 205.827 88.3976C205.639 88.6679 205.393 88.8945 205.106 89.0616C204.819 89.2287 204.499 89.3322 204.167 89.3649C203.835 89.3977 203.5 89.3589 203.186 89.2512C202.871 89.1435 202.584 88.9696 202.344 88.7416C201.661 88.2569 200.754 87.5534 199.768 86.8811L199.116 86.4277C197.712 85.4233 196.069 84.7883 194.345 84.5829C193.671 84.5448 192.997 84.6477 192.366 84.8849C191.735 85.122 191.163 85.4881 190.687 85.9587C190.6 86.0289 190.52 86.1074 190.449 86.1932V86.1932L190.242 86.4277C188.524 88.5539 190.465 90.4613 192.723 91.8058Z" fill="#55A491"/>
<path d="M190.289 86.4427C201.93 87.8185 217.738 104.406 217.865 104.562L218.279 104.203C215.065 100.899 211.673 97.7678 208.117 94.8224C203.584 91.1641 196.984 86.6772 190.766 85.8799C190.679 85.95 190.599 86.0286 190.528 86.1144V86.1144L190.321 86.3489L190.289 86.4427Z" fill="#1D6D60"/>
<path d="M199.498 100.592L200.15 100.764C204.046 97.7623 210.678 98.4502 211.569 98.5752H212.252L211.855 98.0593C209.962 95.6204 209.915 90.5082 209.978 88.5227C209.8 88.3871 209.614 88.2618 209.422 88.1475C209.22 91.1101 209.604 94.0829 210.551 96.9024V96.9024C210.71 97.2307 210.885 97.5747 211.06 97.8717H210.789C208.658 97.7623 202.965 97.6216 199.498 100.592Z" fill="#1D6D60"/>
<path d="M192.739 91.8048L193.264 92.1018C196.047 90.4134 201.088 90.9762 201.82 91.07H201.9L203.108 91.242L202.154 90.6166C200.935 89.7211 200.11 88.4011 199.848 86.927C199.649 86.7635 199.436 86.6171 199.212 86.4893C199.352 87.5684 199.732 88.604 200.325 89.5222V89.5222C200.553 89.8596 200.814 90.1738 201.104 90.4603H200.802C198.783 90.2414 194.998 90.2414 192.739 91.8048Z" fill="#1D6D60"/>
<path d="M213.366 120.212C213.366 120.212 216.245 100.592 215.863 86.8963C215.481 73.2011 215.068 52.1735 217.167 44.0439C217.167 44.0439 217.533 64.5712 218.01 72.7008C218.487 80.8304 221.811 105.532 218.01 120.212H213.366Z" fill="#CF865F"/>
<path d="M204.878 62.2241C203.853 68.2424 200.291 75.5541 196.148 77.7621C191.662 80.1509 178.597 84.2225 172.26 80.9497C165.923 77.6768 156.934 73.1118 157.427 65.1402C157.758 57.5955 160.784 50.5282 162.054 43.1939C162.169 42.3993 162.348 41.6214 162.586 40.8725C163.565 38.0931 165.99 36.1023 167.371 33.6116C169.195 30.3533 171.026 26.7628 173.852 24.8341C182.467 20.5693 195.77 24.6296 200.011 35.3688C200.839 37.6536 201.191 40.3277 202.178 42.5407C203.047 44.5168 203.854 45.6909 204.125 48.0989L204.747 53.2186C205.095 55.4548 205.238 57.7396 205.173 60.0256C205.112 60.7655 205.013 61.4999 204.878 62.2241V62.2241Z" fill="#81B7A9"/>
<path d="M191.69 60.6896C186.28 64.2278 181.762 57.1301 181.762 57.1301C179.322 61.8168 174.559 60.5439 174.559 60.5439C172.214 67.4682 166.137 66.7843 166.137 66.7843C162.568 66.8681 159.833 62.1075 158.35 58.6671C157.885 60.7831 157.589 62.9527 157.466 65.1418C156.985 73.1136 165.974 77.6787 172.311 80.9515C178.648 84.2243 191.713 80.1528 196.199 77.7639C198.223 76.6853 200.107 74.3648 201.622 71.5978C193.832 71.1991 191.69 60.6896 191.69 60.6896Z" fill="#5AA491"/>
<path d="M183.941 53.7813L181.603 63.9534L180.229 51.7019L176.782 53.6162L177.977 75.5911L173.041 119.538C173.026 120.195 174.974 120.768 177.375 120.824C179.776 120.879 181.748 120.396 181.763 119.739L184.082 77.0158L188.439 55.3804L183.941 53.7813Z" fill="#726658"/>
<path d="M204.788 53.2201C204.582 51.5161 204.371 49.8043 204.165 48.1003C203.871 45.6919 203.082 44.5181 202.218 42.5421C201.243 40.3295 200.891 37.6704 200.052 35.3702C195.816 24.6312 182.513 20.5709 173.904 24.8358C171.096 26.7649 169.229 30.3546 167.423 33.5832C166.037 36.0737 163.618 38.0646 162.639 40.844C162.4 41.5929 162.222 42.3709 162.107 43.1654C161.206 48.3558 159.434 53.4204 158.353 58.5991C159.871 62.0402 162.57 66.8303 166.139 66.7842C166.139 66.7842 170.243 67.2716 173.01 63.5969C174.179 61.9936 175.72 60.9298 177.394 60.5713C177.792 60.4953 178.185 60.3755 178.568 60.2132C180.879 59.2698 183.368 59.4699 185.55 60.7745C186.535 61.3667 187.61 61.6748 188.701 61.6779C189.592 61.6507 190.471 61.9244 191.25 62.4721C192.03 63.0198 192.683 63.8225 193.147 64.8014C194.552 67.8095 197.169 71.4043 201.664 71.6137C203.207 68.7786 204.316 65.5909 204.93 62.2259C205.057 61.501 205.144 60.7661 205.19 60.0266C205.266 57.7418 205.131 55.4568 204.788 53.2201V53.2201Z" fill="#81B7A9"/>
<path d="M290.469 47.1066C289.839 44.4247 289.405 42.1196 289.058 40.0908C289.474 51.6288 279.39 36.7996 273.979 36.3914C267.844 35.958 267.107 42.867 263.681 36.3914C258.749 35.6063 251.083 44.3304 247.304 37.2142C244.155 48.9783 244.016 62.8151 252.576 69.9628C258.453 74.8744 265.507 75.8982 272.222 75.1822C275.612 74.7927 278.954 74.0668 282.199 73.0153C285.071 72.1171 288.668 71.6586 290.595 68.1539C293.782 62.3692 291.88 53.331 290.469 47.1066Z" fill="#4A7E72"/>
<path d="M256.148 54.1666C261.817 65.6041 262.321 76.1183 259.373 88.3974C259.373 88.3974 260.104 116.611 259.373 117.233C258.92 122.503 270.27 121.328 270.339 119.08C271.032 96.6003 264.929 76.7338 281.526 58.111L277.577 53.1302L267.385 64.9571L262.39 51.874L256.148 54.1666Z" fill="#644F44"/>
<path d="M278.904 9.91132C278.904 9.91132 260.625 6.96558 252.954 25.7329C252.648 26.5291 252.406 27.3481 252.229 28.1824C250.214 36.737 231.122 48.9094 246.56 60.0203C259.655 69.4416 265.223 51.7107 269.62 54.9956C269.922 55.2401 270.166 55.5482 270.335 55.8978C270.504 56.2474 270.593 56.63 270.596 57.018C270.785 61.2388 285.386 68.8324 287.017 54.939C287.017 54.939 292.428 55.8937 292.95 50.8502C293.061 49.514 292.762 48.1759 292.094 47.0126C291.703 46.3154 291.199 45.3732 290.683 44.2804C288.743 40.2041 289.31 35.4871 291.728 31.7186C294.764 26.9074 292.018 11.8835 278.904 9.91132Z" fill="#5D9E8F"/>
<path d="M128.948 89.0452V89.775C128.948 92.9483 128.473 96.1216 128.156 99.2949C127.522 105.853 126.909 112.411 126.318 118.969C126.366 119.391 126.366 119.817 126.318 120.239H123.338C121.511 115.471 120.504 110.428 120.359 105.324C120.269 100.219 120.823 95.1224 122.007 90.1558C122.483 88.0297 123.687 85.0151 126.318 84.9199H126.73C128.631 85.2055 128.916 87.4903 128.948 89.0452Z" fill="#E7FBBC"/>
<path d="M124.891 120.334H124.004C124.004 119.445 123.814 118.303 123.687 116.97C123.275 112.837 123.138 108.682 123.275 104.531C123.275 103.706 123.275 102.817 123.465 101.897C123.901 96.3003 124.621 90.7293 125.62 85.2055C125.855 85.1195 126.1 85.0661 126.349 85.0469H126.698C125.499 91.5077 124.695 98.0356 124.289 104.594V104.594C124.117 109.848 124.318 115.108 124.891 120.334V120.334Z" fill="#8CA35D"/>
<path d="M127.174 120.271H121.564C121.564 119.922 121.279 119.414 121.279 119.382C120.873 118.289 120.386 117.229 119.821 116.209C119.192 115.207 118.504 114.242 117.761 113.321C114.433 108.784 109.457 103.579 110.154 97.455C110.293 96.3252 110.683 95.2408 111.295 94.2817C111.512 93.9076 111.767 93.5567 112.056 93.2345L112.468 92.8855L112.753 92.6633L113.038 92.4729C113.924 92.1392 114.889 92.0725 115.813 92.2812C116.736 92.4898 117.579 92.9646 118.236 93.6471C119.65 94.9542 120.792 96.5288 121.596 98.2801C124.039 103.851 125.641 109.754 126.35 115.797C126.793 117.352 127.174 118.811 127.174 120.271Z" fill="#C4E877"/>
<path d="M124.638 120.334H123.561C123.054 118.843 122.166 116.082 120.898 111.988C120.328 110.211 119.726 108.212 119.028 105.927C117.723 101.294 115.382 97.0184 112.183 93.4247L112.595 93.0756L112.88 92.8535C116.158 96.4947 118.564 100.836 119.916 105.547L120.201 106.53C121.596 111.1 122.673 114.527 123.371 116.939L124.638 120.334Z" fill="#8CA35D"/>
<path d="M142.323 100.564C141.948 101.324 141.456 102.02 140.865 102.627C140.516 103.007 140.104 103.388 139.692 103.801C138.646 104.816 137.664 105.895 136.713 106.974C135.036 108.973 133.51 111.094 132.149 113.321C130.756 115.529 129.558 117.854 128.568 120.27H125.208C126.202 114.092 128.125 108.1 130.913 102.5C132.72 99.3264 136.364 93.6145 141.023 96.1531C141.325 96.3144 141.602 96.5174 141.847 96.7561V96.7561C142.298 97.1644 142.599 97.7117 142.703 98.311C142.806 99.0832 142.673 99.8684 142.323 100.564V100.564Z" fill="#C4E877"/>
<path d="M141.943 96.6928C140.454 98.3112 137.57 101.421 133.671 105.895C130.564 109.657 128.343 114.072 127.174 118.811C127.174 119.35 126.92 119.858 126.825 120.239H125.779C126.017 119.165 126.313 118.106 126.667 117.065V117.065C126.649 116.96 126.649 116.853 126.667 116.748V116.748C127.989 112.59 130.146 108.745 133.006 105.451C136.841 101.008 139.693 97.9304 141.246 96.2803C141.501 96.4311 141.745 96.6008 141.975 96.788V96.788L141.943 96.6928Z" fill="#8CA35D"/>
<path d="M95.7387 3.71289C95.5564 4.4752 93.9504 39.2113 93.9504 39.2113L90.2827 30.3936L86 42.5108L94.8389 62.0577L94.8389 84.5286L90.9434 90.1492L95.7387 99.1604L94.0415 140.882C94.0415 140.882 101.571 143.511 108.53 141.633C115.489 139.756 120 140.689 120 140.689L110.979 76.4277L108.53 39.4161L117.141 30.587L113.986 17.4344L106.081 21.5645L105.899 4.85066L95.7387 3.71289Z" fill="#69574E"/>
<path d="M116.628 30.872C117.901 30.6282 118.353 27.4138 117.638 23.6926C116.923 19.9713 115.312 17.1524 114.04 17.3963C112.767 17.6402 112.315 20.8545 113.029 24.5758C113.744 28.297 115.355 31.1159 116.628 30.872Z" fill="#F9CD90"/>
<path d="M105.996 5.56082C106.234 4.23092 104.118 2.74029 101.269 2.23141C98.4205 1.72252 95.9183 2.38808 95.6802 3.71798C95.4421 5.04788 97.5582 6.53851 100.407 7.0474C103.255 7.55628 105.757 6.89072 105.996 5.56082Z" fill="#F9CD90"/>
<path d="M60.163 86.3906V86.9274C60.163 89.2614 60.5127 91.5954 60.7458 93.9294C61.212 98.7529 61.6627 103.576 62.0978 108.4C62.0622 108.71 62.0622 109.023 62.0978 109.334H64.2891C65.6329 105.827 66.3737 102.118 66.4803 98.3639C66.5467 94.6089 66.1395 90.8604 65.2682 87.2075C64.9185 85.6437 64.0327 83.4265 62.0978 83.3564H61.7948C60.3961 83.5665 60.1863 85.247 60.163 86.3906Z" fill="#E7FBBC"/>
<path d="M63.1464 109.404H63.7991C63.7991 108.751 63.939 107.91 64.0322 106.93C64.335 103.89 64.4362 100.834 64.3352 97.7808C64.3352 97.174 64.3353 96.5205 64.1954 95.8436C63.8746 91.7272 63.3455 87.6297 62.6102 83.5669C62.4377 83.5036 62.2573 83.4643 62.074 83.4502H61.8176C62.6992 88.2022 63.2908 93.0035 63.5893 97.8275V97.8275C63.716 101.692 63.568 105.561 63.1464 109.404V109.404Z" fill="#8CA35D"/>
<path d="M61.4683 109.357H65.5945C65.5945 109.1 65.8043 108.727 65.8043 108.703C66.1024 107.899 66.4608 107.119 66.8766 106.369C67.3393 105.632 67.8453 104.923 68.3918 104.245C70.8395 100.908 74.4994 97.0802 73.9866 92.5756C73.8845 91.7446 73.5978 90.947 73.1473 90.2416C72.9876 89.9664 72.8001 89.7084 72.5879 89.4714L72.2848 89.2147L72.075 89.0513L71.8652 88.9112C71.2134 88.6657 70.504 88.6167 69.8246 88.7702C69.1452 88.9236 68.5256 89.2729 68.0422 89.7748C67.0019 90.7362 66.1621 91.8944 65.5711 93.1824C63.7739 97.2796 62.5954 101.622 62.0744 106.066C61.7481 107.21 61.4683 108.283 61.4683 109.357Z" fill="#C4E877"/>
<path d="M63.3329 109.404H64.1254C64.4984 108.307 65.1511 106.276 66.0836 103.265C66.5032 101.958 66.9461 100.488 67.459 98.8074C68.4189 95.3994 70.1408 92.2547 72.4941 89.6115L72.1911 89.3548L71.9813 89.1914C69.5705 91.8695 67.8007 95.0622 66.8062 98.5273L66.5964 99.2508C65.5707 102.612 64.7781 105.132 64.2653 106.906L63.3329 109.404Z" fill="#8CA35D"/>
<path d="M50.3259 94.8629C50.6015 95.4219 50.9634 95.9338 51.3982 96.3799C51.6547 96.66 51.9577 96.9401 52.2608 97.2435C53.0301 97.9904 53.7527 98.7839 54.4521 99.5775C55.6857 101.048 56.8077 102.608 57.8089 104.245C58.8334 105.869 59.7148 107.58 60.4431 109.357H62.9141C62.1832 104.813 60.7684 100.406 58.718 96.2866C57.3893 93.9526 54.7085 89.7514 51.2817 91.6186C51.0599 91.7372 50.8559 91.8865 50.6756 92.0621V92.0621C50.3443 92.3624 50.1228 92.7649 50.0462 93.2057C49.9708 93.7737 50.0683 94.3512 50.3259 94.8629V94.8629Z" fill="#C4E877"/>
<path d="M50.6054 92.0153C51.701 93.2057 53.8223 95.493 56.6896 98.7839C58.975 101.551 60.6084 104.798 61.4684 108.283C61.4684 108.68 61.6549 109.053 61.7249 109.333H62.4941C62.3194 108.544 62.1015 107.765 61.8414 106.999V106.999C61.8545 106.922 61.8545 106.843 61.8414 106.766V106.766C60.8686 103.707 59.2821 100.88 57.1792 98.4571C54.3585 95.1895 52.2605 92.9256 51.1182 91.7119C50.9305 91.8229 50.7513 91.9477 50.5821 92.0853V92.0853L50.6054 92.0153Z" fill="#8CA35D"/>
<path d="M283.882 100.081V100.618C283.882 102.952 284.231 105.286 284.465 107.62C284.931 112.443 285.381 117.267 285.817 122.09C285.781 122.401 285.781 122.714 285.817 123.024H288.008C289.352 119.518 290.092 115.809 290.199 112.054C290.265 108.299 289.858 104.551 288.987 100.898C288.637 99.3342 287.751 97.1169 285.817 97.0469H285.514C284.115 97.2569 283.905 98.9374 283.882 100.081Z" fill="#E7FBBC"/>
<path d="M286.865 123.094H287.518C287.518 122.441 287.658 121.601 287.751 120.62C288.054 117.581 288.155 114.524 288.054 111.471C288.054 110.864 288.054 110.211 287.914 109.534C287.593 105.418 287.064 101.32 286.329 97.2573C286.156 97.194 285.976 97.1547 285.793 97.1406H285.536C286.418 101.893 287.01 106.694 287.308 111.518V111.518C287.435 115.382 287.287 119.251 286.865 123.094V123.094Z" fill="#8CA35D"/>
<path d="M285.187 123.047H289.313C289.313 122.791 289.523 122.417 289.523 122.394C289.821 121.59 290.18 120.81 290.595 120.06C291.058 119.323 291.564 118.613 292.111 117.936C294.558 114.598 298.218 110.771 297.705 106.266C297.603 105.435 297.317 104.637 296.866 103.932C296.706 103.657 296.519 103.399 296.307 103.162L296.004 102.905L295.794 102.742L295.584 102.602C294.932 102.356 294.223 102.307 293.543 102.461C292.864 102.614 292.244 102.963 291.761 103.465C290.721 104.427 289.881 105.585 289.29 106.873C287.493 110.97 286.314 115.312 285.793 119.756C285.467 120.9 285.187 121.974 285.187 123.047Z" fill="#C4E877"/>
<path d="M287.052 123.094H287.844C288.217 121.997 288.87 119.967 289.802 116.956C290.222 115.649 290.665 114.178 291.178 112.498C292.138 109.09 293.86 105.945 296.213 103.302L295.91 103.045L295.7 102.882C293.289 105.56 291.519 108.753 290.525 112.218L290.315 112.941C289.289 116.302 288.497 118.823 287.984 120.597L287.052 123.094Z" fill="#8CA35D"/>
<path d="M274.045 108.553C274.32 109.112 274.682 109.624 275.117 110.07C275.373 110.35 275.676 110.631 275.98 110.934C276.749 111.681 277.471 112.474 278.171 113.268C279.404 114.738 280.526 116.298 281.528 117.936C282.552 119.56 283.434 121.27 284.162 123.047H286.633C285.902 118.503 284.487 114.096 282.437 109.977C281.108 107.643 278.427 103.442 275 105.309C274.779 105.428 274.575 105.577 274.394 105.753V105.753C274.063 106.053 273.842 106.455 273.765 106.896C273.69 107.464 273.787 108.042 274.045 108.553V108.553Z" fill="#C4E877"/>
<path d="M274.324 105.706C275.42 106.896 277.541 109.183 280.408 112.474C282.694 115.241 284.327 118.488 285.187 121.974C285.187 122.37 285.374 122.744 285.444 123.024H286.213C286.038 122.235 285.82 121.455 285.56 120.69V120.69C285.573 120.613 285.573 120.534 285.56 120.456V120.456C284.587 117.398 283.001 114.57 280.898 112.148C278.077 108.88 275.979 106.616 274.837 105.402C274.649 105.513 274.47 105.638 274.301 105.776V105.776L274.324 105.706Z" fill="#8CA35D"/>
<path d="M79.2989 123.062H82.0795C82.0795 122.91 82.2208 122.688 82.2208 122.674C82.4217 122.197 82.6633 121.734 82.9435 121.29C83.2553 120.852 83.5963 120.431 83.9646 120.029C85.6141 118.049 88.0804 115.778 87.7348 113.105C87.6661 112.612 87.4728 112.139 87.1693 111.72C87.0616 111.557 86.9353 111.404 86.7923 111.263L86.588 111.111L86.4467 111.014L86.3053 110.931C85.866 110.785 85.3879 110.756 84.9301 110.847C84.4723 110.938 84.0547 111.145 83.729 111.443C83.0279 112.013 82.462 112.701 82.0637 113.465C80.8526 115.896 80.0584 118.472 79.7073 121.109C79.4874 121.788 79.2989 122.425 79.2989 123.062Z" fill="#C4E877"/>
<path d="M80.5558 123.094H81.0899C81.3412 122.478 81.7811 121.34 82.4095 119.651C82.6922 118.918 82.9907 118.093 83.3363 117.15C83.9832 115.239 85.1436 113.475 86.7295 111.992L86.5253 111.848L86.3839 111.757C84.7593 113.259 83.5666 115.05 82.8964 116.993L82.7551 117.399C82.0639 119.284 81.5297 120.698 81.1841 121.693L80.5558 123.094Z" fill="#8CA35D"/>
<path d="M71.7904 113.295C71.9761 113.671 72.2199 114.016 72.513 114.317C72.6858 114.506 72.8901 114.695 73.0943 114.899C73.6127 115.402 74.0997 115.937 74.571 116.472C75.4023 117.463 76.1584 118.514 76.8331 119.618C77.5235 120.712 78.1175 121.865 78.6082 123.062H80.2734C79.7809 120 78.8275 117.03 77.4458 114.254C76.5503 112.681 74.7438 109.85 72.4345 111.108C72.285 111.188 72.1475 111.289 72.026 111.407V111.407C71.8028 111.61 71.6535 111.881 71.6019 112.178C71.5511 112.561 71.6168 112.95 71.7904 113.295V113.295Z" fill="#C4E877"/>
<path d="M71.9785 111.376C72.7168 112.179 74.1464 113.72 76.0786 115.938C77.6187 117.802 78.7194 119.99 79.299 122.339C79.299 122.606 79.4247 122.858 79.4718 123.047H79.9902C79.8725 122.515 79.7256 121.99 79.5504 121.474V121.474C79.5592 121.422 79.5592 121.369 79.5504 121.317V121.317C78.8948 119.256 77.8256 117.35 76.4085 115.717C74.5077 113.515 73.0939 111.99 72.3241 111.172C72.1976 111.247 72.0768 111.331 71.9628 111.424V111.424L71.9785 111.376Z" fill="#8CA35D"/>
</g>
<defs>
<clipPath id="clip0_7075_103842">
<rect width="400" height="128" fill="white"/>
</clipPath>
</defs>
</svg>
