<svg width="400" height="128" viewBox="0 0 400 128" fill="none" xmlns="http://www.w3.org/2000/svg">
<g clip-path="url(#clip0_7302_105712)">
<g filter="url(#filter0_d_7302_105712)">
<path d="M115.947 22.3447C117.375 22.3447 118.745 23.0015 119.755 24.1705C120.765 25.3395 121.332 26.925 121.332 28.5782V136.5H110.562V28.5782C110.562 26.925 111.13 25.3395 112.14 24.1705C113.149 23.0015 114.519 22.3447 115.947 22.3447Z" fill="#656557"/>
<path d="M115.947 26.0824C119.516 26.0824 122.409 23.1894 122.409 19.6208C122.409 16.0521 119.516 13.1592 115.947 13.1592C112.378 13.1592 109.485 16.0521 109.485 19.6208C109.485 23.1894 112.378 26.0824 115.947 26.0824Z" fill="#FFBC0E"/>
<path d="M223.637 22.3447C225.066 22.3447 226.436 23.0015 227.447 24.1705C228.457 25.3395 229.025 26.925 229.025 28.5782V136.5H218.256V28.5782C218.256 26.9266 218.822 25.3425 219.831 24.1737C220.84 23.005 222.209 22.3472 223.637 22.3447Z" fill="#656557"/>
<path d="M223.64 26.0824C227.209 26.0824 230.102 23.1894 230.102 19.6208C230.102 16.0521 227.209 13.1592 223.64 13.1592C220.072 13.1592 217.179 16.0521 217.179 19.6208C217.179 23.1894 220.072 26.0824 223.64 26.0824Z" fill="#FFBC0E"/>
<path d="M245.408 33.8639V68.2985C245.405 69.2587 245.022 70.1787 244.343 70.8569C243.663 71.535 242.742 71.9158 241.782 71.9158H98.0338C97.0736 71.9158 96.1527 71.535 95.473 70.8569C94.7933 70.1787 94.4104 69.2587 94.4082 68.2985V33.8639C94.4082 32.9023 94.7902 31.9801 95.4701 31.3002C96.15 30.6203 97.0722 30.2383 98.0338 30.2383L241.782 30.2383C242.616 30.2415 243.424 30.531 244.07 31.0583C244.717 31.5856 245.163 32.3189 245.333 33.1354C245.384 33.3749 245.409 33.6191 245.408 33.8639V33.8639Z" fill="#2B2020"/>
<path d="M245.408 96.5162V108.56C245.405 109.521 245.023 110.442 244.343 111.121C243.664 111.801 242.743 112.183 241.782 112.186H98.0338C97.0729 112.183 96.152 111.801 95.4725 111.121C94.7931 110.442 94.4104 109.521 94.4082 108.56V96.5162C94.4082 95.5546 94.7902 94.6325 95.4701 93.9525C96.15 93.2726 97.0722 92.8906 98.0338 92.8906H241.815C242.771 92.8994 243.685 93.2852 244.357 93.9642C245.03 94.6432 245.408 95.5604 245.408 96.5162Z" fill="#2B2020"/>
<path d="M138.644 30.2129L98.1828 71.8905H98.0338C97.0736 71.8905 96.1527 71.5096 95.473 70.8315C94.7933 70.1533 94.4104 69.2333 94.4082 68.2732V50.5343L114.134 30.2129H138.644Z" fill="#FDE568"/>
<path d="M142.848 71.891H118.338L158.807 30.2217H183.317L142.848 71.891Z" fill="#FDE568"/>
<path d="M187.522 71.891H163.012L203.472 30.2217H227.982L187.522 71.891Z" fill="#FDE568"/>
<path d="M245.408 33.8636V58.2824L232.164 71.8908H207.688L245.334 33.1104C245.386 33.3579 245.411 33.6106 245.408 33.8636Z" fill="#FDE568"/>
<path d="M119.928 112.186L138.66 92.8906H119.787L101.047 112.186H119.928Z" fill="#FDE568"/>
<path d="M173.053 92.8906L154.312 112.186H135.439L154.172 92.8906H173.053Z" fill="#FDE568"/>
<path d="M188.699 112.186L207.439 92.8906H188.574L169.834 112.186H188.699Z" fill="#FDE568"/>
<path d="M223.083 112.186L241.815 92.8906H222.959L204.219 112.186H223.083Z" fill="#FDE568"/>
<path d="M206.462 47.0518L172.49 13.0802C171.065 11.6547 168.754 11.6547 167.328 13.0802L133.356 47.0518C131.931 48.4774 131.931 50.7887 133.356 52.2142L167.328 86.1858C168.754 87.6114 171.065 87.6114 172.49 86.1858L206.462 52.2142C207.888 50.7887 207.888 48.4774 206.462 47.0518Z" fill="white"/>
<path fill-rule="evenodd" clip-rule="evenodd" d="M199.828 46.3715L172.691 19.2391C172.311 18.858 171.859 18.5558 171.362 18.3495C170.865 18.1433 170.332 18.0371 169.794 18.0371C169.255 18.0371 168.722 18.1433 168.225 18.3495C167.728 18.5558 167.276 18.858 166.896 19.2391L139.759 46.3715L139.758 46.3724C138.992 47.1417 138.562 48.1827 138.562 49.2679C138.562 50.3531 138.992 51.3942 139.758 52.1634L139.759 52.1644L166.894 79.295L166.896 79.2964C167.275 79.6794 167.726 79.9831 168.224 80.1897C168.721 80.3962 169.255 80.5014 169.794 80.4993C170.332 80.5014 170.866 80.3962 171.363 80.1897C171.861 79.9831 172.313 79.6794 172.691 79.2964L172.693 79.295L199.828 52.1644L199.829 52.1634C200.595 51.3942 201.025 50.3531 201.025 49.2679C201.025 48.1827 200.595 47.1417 199.829 46.3724L199.828 46.3715ZM169.794 20.3438C170.256 20.3449 170.7 20.5289 171.027 20.8557L198.165 47.9883C198.491 48.3155 198.675 48.7592 198.675 49.2216C198.675 49.684 198.492 50.1275 198.165 50.4547L171.031 77.5831C170.697 77.9 170.254 78.0767 169.794 78.0767C169.333 78.0767 168.89 77.9 168.556 77.5831L141.423 50.4548C141.096 50.1277 140.912 49.684 140.912 49.2216C140.912 48.7592 141.096 48.3157 141.422 47.9885L168.56 20.8559C168.887 20.529 169.331 20.3449 169.794 20.3438Z" fill="#4D20B2"/>
<path d="M168.07 56.3533H171.745C172.403 56.3533 173.035 56.6149 173.501 57.0806C173.967 57.5463 174.228 58.178 174.228 58.8366V62.3049C174.228 62.9635 173.967 63.5951 173.501 64.0608C173.035 64.5265 172.403 64.7882 171.745 64.7882H168.07C167.411 64.7882 166.779 64.5265 166.314 64.0608C165.848 63.5951 165.586 62.9635 165.586 62.3049V58.8366C165.586 58.178 165.848 57.5463 166.314 57.0806C166.779 56.6149 167.411 56.3533 168.07 56.3533V56.3533ZM167.143 35.7256H172.672C173.019 35.7241 173.362 35.7951 173.679 35.9342C173.996 36.0732 174.281 36.2771 174.515 36.5329C174.749 36.7886 174.927 37.0905 175.037 37.419C175.147 37.7476 175.188 38.0956 175.155 38.4407L174.154 50.7742C174.11 51.4023 173.829 51.9901 173.368 52.4188C172.907 52.8476 172.3 53.0852 171.67 53.0837H168.144C167.515 53.0852 166.908 52.8476 166.447 52.4188C165.986 51.9901 165.705 51.4023 165.661 50.7742L164.659 38.4407C164.627 38.0956 164.667 37.7476 164.777 37.419C164.888 37.0905 165.065 36.7886 165.299 36.5329C165.533 36.2771 165.818 36.0732 166.135 35.9342C166.453 35.7951 166.796 35.7241 167.143 35.7256Z" fill="#4D20B2"/>
</g>
</g>
<defs>
<filter id="filter0_d_7302_105712" x="78.4082" y="-3.98926" width="183" height="156.489" filterUnits="userSpaceOnUse" color-interpolation-filters="sRGB">
<feFlood flood-opacity="0" result="BackgroundImageFix"/>
<feColorMatrix in="SourceAlpha" type="matrix" values="0 0 0 0 0 0 0 0 0 0 0 0 0 0 0 0 0 0 127 0" result="hardAlpha"/>
<feOffset/>
<feGaussianBlur stdDeviation="8"/>
<feComposite in2="hardAlpha" operator="out"/>
<feColorMatrix type="matrix" values="0 0 0 0 0 0 0 0 0 0 0 0 0 0 0 0 0 0 0.1 0"/>
<feBlend mode="normal" in2="BackgroundImageFix" result="effect1_dropShadow_7302_105712"/>
<feBlend mode="normal" in="SourceGraphic" in2="effect1_dropShadow_7302_105712" result="shape"/>
</filter>
<clipPath id="clip0_7302_105712">
<rect width="400" height="128" fill="white"/>
</clipPath>
</defs>
</svg>
